<?xml version="1.0" encoding="UTF-8" standalone="no"?>
<!-- Generator: Adobe Illustrator 12.0.0, SVG Export Plug-In . SVG Version: 6.00 Build 51448)  -->

<svg
  xmlns:dc="http://purl.org/dc/elements/1.1/"
  xmlns:cc="http://creativecommons.org/ns#"
  xmlns:rdf="http://www.w3.org/1999/02/22-rdf-syntax-ns#"
  xmlns:svg="http://www.w3.org/2000/svg"
  xmlns="http://www.w3.org/2000/svg"
  xmlns:sodipodi="http://sodipodi.sourceforge.net/DTD/sodipodi-0.dtd"
  xmlns:inkscape="http://www.inkscape.org/namespaces/inkscape"
  version="1.1"
  id="Layer_1"
  width="1027.26"
  height="1025"
  viewBox="0 0 1027.26 1025"
  overflow="visible"
  enable-background="new 0 0 1027.26 1025"
  xml:space="preserve"
  inkscape:version="0.47 r22583"
  sodipodi:docname="EuropeContour.svg"><metadata
  id="metadata187"><rdf:RDF><cc:Work
    rdf:about=""><dc:format>image/svg+xml</dc:format><dc:type
     rdf:resource="http://purl.org/dc/dcmitype/StillImage" /></cc:Work></rdf:RDF></metadata><defs
  id="defs185"><inkscape:perspective
  sodipodi:type="inkscape:persp3d"
  inkscape:vp_x="0 : 512.5 : 1"
  inkscape:vp_y="0 : 1000 : 0"
  inkscape:vp_z="1027.26 : 512.5 : 1"
  inkscape:persp3d-origin="513.63 : 341.66667 : 1"
  id="perspective189" />
	

		
		
		
		
		
		
		
		
		
		
		
		
		
		
		
		
		
		
		
		
		
		
		
		
		
		
		
		
		
		
		
		
		
		
		
		
		
		
		
		
		
		
		
		
		
		
		
		
		
		
		
		
		
		
		
		
		
		
		
		
		
		
		
		
		
		
		
		
		
		
		
		
		
		
		
		
		
		
		
		
		
		
		
		
		
		
		
		
	</defs><sodipodi:namedview
  pagecolor="#ffffff"
  bordercolor="#666666"
  borderopacity="1"
  objecttolerance="10"
  gridtolerance="10"
  guidetolerance="10"
  inkscape:pageopacity="0"
  inkscape:pageshadow="2"
  inkscape:window-width="1366"
  inkscape:window-height="722"
  id="namedview183"
  showgrid="false"
  inkscape:zoom="2"
  inkscape:cx="229.33693"
  inkscape:cy="664.60287"
  inkscape:window-x="0"
  inkscape:window-y="23"
  inkscape:window-maximized="1"
  inkscape:current-layer="layer1" />
<g
  inkscape:groupmode="layer"
  id="layer1"
  inkscape:label="Lag" /><path
  clip-rule="evenodd"
  d="m 667.888,0 c 0.377,0 0.754,0 1.131,0 0.254,0.877 0.031,2.229 1.13,2.26 0.19,2.451 -4.008,0.512 -5.65,1.13 -0.346,-2.605 3.264,-1.256 3.389,-3.39 z"
  id="path7"
  style="fill-rule:evenodd" /><path
  clip-rule="evenodd"
  d="m 676.929,6.781 c 3.31,-0.295 3.472,2.555 6.781,2.26 -0.601,3.165 -1.659,5.875 -2.261,9.041 -1.825,0.319 -1.945,-1.068 -3.391,-1.13 0.685,2.707 1.625,5.156 1.131,9.041 -3.92,-0.906 -4.346,1.683 -7.911,1.13 0.295,-3.309 -2.556,-3.472 -2.26,-6.781 5.029,-2.095 11.621,-6.205 7.911,-13.561 z"
  id="path9"
  style="fill-rule:evenodd" /><path
  clip-rule="evenodd"
  d="m 654.328,11.301 c 3.193,-0.934 2.927,1.593 5.65,1.13 -0.743,1.518 -2.415,2.104 -4.521,2.26 0.182,1.324 2.06,0.954 3.39,1.13 -0.83,3.232 -4.631,7.234 -7.91,4.521 -1.335,-1.792 3.101,-2.55 2.261,-3.39 -0.063,-0.062 -1.127,0.056 -1.13,0 -0.108,-1.764 2.719,-3.145 2.26,-5.651 z"
  id="path11"
  style="fill-rule:evenodd" /><path
  clip-rule="evenodd"
  d="m 672.41,18.082 c -1.508,0 -3.014,0 -4.521,0 -0.175,-2.811 1.776,-3.499 2.261,-5.65 1.675,0.961 2.428,2.843 2.26,5.65 z"
  id="path13"
  style="fill-rule:evenodd" /><path
  clip-rule="evenodd"
  d="m 669.019,33.903 c -1.583,0.4 -0.098,1.99 1.13,2.26 -0.311,2.327 -4.21,1.064 -4.52,3.391 -1.228,-0.279 -0.768,-2.247 -2.261,-2.26 -1.218,-2.887 4.865,-3.956 1.13,-5.651 1.347,-1.693 6.1,-2.224 10.172,-2.26 -0.19,3.201 -2.072,4.709 -2.261,7.911 -1.627,-0.633 -2.758,-1.763 -3.39,-3.391 z"
  id="path15"
  style="fill-rule:evenodd" /><path
  clip-rule="evenodd"
  d="m 676.929,32.773 c 1.518,0.744 2.104,2.416 2.261,4.521 -1.131,0 -2.261,0 -3.391,0 -0.143,-2.028 1.384,-2.384 1.13,-4.521 z"
  id="path17"
  style="fill-rule:evenodd" /><path
  clip-rule="evenodd"
  d="m 652.068,38.423 c 3.456,-0.82 3.324,1.95 6.779,1.13 -0.109,2.904 -4.41,1.615 -4.52,4.52 -1.676,-0.96 -2.429,-2.843 -2.259,-5.65 z"
  id="path19"
  style="fill-rule:evenodd" /><path
  clip-rule="evenodd"
  d="m 649.807,46.334 c 1.484,0.399 1.778,1.99 3.391,2.26 -0.957,1.68 -3.639,1.636 -5.65,2.26 0.586,-1.671 1.671,-2.848 2.259,-4.52 z"
  id="path21"
  style="fill-rule:evenodd" /><path
  clip-rule="evenodd"
  d="m 549.228,63.286 c 1.528,-1.109 2.259,-3.015 3.39,-4.521 1.343,-0.44 0.574,1.973 1.131,2.26 0.841,0.433 1.364,-1.008 1.13,-1.13 3.633,1.896 5.586,3.506 10.171,4.52 0.91,7.691 -6.717,6.844 -5.649,14.691 -3.555,1.343 -5.98,3.814 -10.172,4.521 -0.485,-1.775 -3.555,-0.966 -2.26,-4.521 -6.354,1.081 -9.015,-1.534 -12.432,-3.39 1.032,-1.981 2.102,-3.927 5.65,-3.391 -1.566,-2.953 -9.59,0.55 -11.301,-2.26 -0.191,-2.829 1.736,-3.537 3.391,-4.521 -0.744,-1.517 -2.416,-2.104 -4.521,-2.26 0.29,-2.646 4.965,-0.651 5.651,0 2.913,-0.273 -1.553,-1.945 0,-4.521 1.483,0.399 1.776,1.99 3.39,2.26 0.462,-2.723 -2.064,-2.457 -1.131,-5.65 2.279,1.487 3.824,3.71 4.521,6.78 2.625,-0.331 5.297,-2.839 4.521,2.26 2.3,-1.09 2.441,-4.339 2.261,-7.911 4.854,-0.385 3.056,4.12 2.259,6.784 z"
  id="path23"
  style="fill-rule:evenodd" /><path
  clip-rule="evenodd"
  d="m 494.983,82.497 c 0.961,-0.208 1.066,0.44 1.13,1.13 0.982,5.045 2.8,9.255 3.39,14.691 -3.072,-3.708 -4.261,-9.298 -4.52,-15.821 z"
  id="path25"
  style="fill-rule:evenodd" /><path
  clip-rule="evenodd"
  d="m 576.351,87.018 c -0.079,4.064 -4.716,3.571 -9.041,3.391 1.188,-2.956 4.592,-3.697 9.041,-3.391 z"
  id="path27"
  style="fill-rule:evenodd" /><path
  clip-rule="evenodd"
  d="m 543.578,94.928 c 0,1.883 0,3.767 0,5.65 1.381,1.632 4.313,1.714 5.65,3.391 -3.082,4.188 2.685,7.339 6.781,7.911 -2.507,5.028 -8.795,6.273 -11.302,11.301 -3.182,-1.142 0.313,-4.799 0,-6.78 -3.165,0.602 -5.874,1.659 -9.041,2.26 0.877,-3.644 2.363,-6.678 4.521,-9.041 -1.326,-5.078 -6.643,-6.165 -5.65,-13.561 4.19,0.799 4.85,-1.931 9.041,-1.131 z"
  id="path29"
  style="fill-rule:evenodd" /><path
  clip-rule="evenodd"
  d="m 336.77,195.507 c -1.416,3.104 -6.112,2.928 -10.171,3.39 1.711,-2.647 6.783,-5.953 10.171,-3.39 z"
  id="path33"
  style="fill-rule:evenodd" /><path
  clip-rule="evenodd"
  d="m 808.021,210.198 c -0.095,2.068 -1.974,1.426 -3.391,2.26 -0.4,0.236 -2.005,2.204 -2.26,2.26 -1.416,0.313 -3.645,-4.387 -5.65,0 -2.881,-3.146 -8.214,-3.842 -9.041,-9.041 1.055,-0.829 1.712,-2.055 2.26,-3.391 5.344,1.437 10.478,3.083 15.821,4.521 0.972,0.913 0.672,3.097 2.261,3.391 z"
  id="path35"
  style="fill-rule:evenodd" /><path
  clip-rule="evenodd"
  d="m 748.125,255.402 c -2.03,4.75 -6.038,7.523 -7.91,12.431 -9.234,-0.318 -10.805,-12.636 -5.65,-18.082 6.049,0.356 10.271,2.536 13.56,5.651 z"
  id="path37"
  style="fill-rule:evenodd" /><path
  clip-rule="evenodd"
  d="m 766.208,261.053 c 1.927,-3.857 3.134,1.387 2.26,2.26 -0.474,0.474 -1.343,-2.824 -2.26,-2.26 z"
  id="path39"
  style="fill:#ffffff;fill-rule:evenodd" /><path
  clip-rule="evenodd"
  d="m 247.492,363.892 c 0.909,0.598 1.834,1.179 3.39,1.13 -0.095,4.048 -1.757,6.53 -2.26,10.171 -2.594,-2.584 -4.55,-8.999 -1.13,-11.301 z"
  id="path41"
  style="fill-rule:evenodd" /><path
  clip-rule="evenodd"
  d="m 254.272,442.999 c 2.962,0.804 1.083,6.45 4.52,6.78 -2.289,2.579 -8.584,-0.392 -7.911,-4.52 0.912,-0.972 3.097,-0.672 3.391,-2.26 z"
  id="path55"
  style="fill-rule:evenodd" /><path
  clip-rule="evenodd"
  d="m 530.016,506.284 c 2.976,1.17 3.807,4.481 6.781,5.651 -0.338,3.051 -4.754,2.026 -5.65,4.52 -2.975,-1.17 -3.807,-4.48 -6.78,-5.65 0.338,-3.052 4.754,-2.026 5.649,-4.521 z"
  id="path67"
  style="fill-rule:evenodd" /><path
  clip-rule="evenodd"
  d="m 381.974,577.48 c -4.191,0.802 -4.851,-1.931 -9.042,-1.13 -0.002,-4.519 -2.258,-6.783 -2.26,-11.301 4.191,0.8 4.85,-1.931 9.041,-1.13 0.399,1.295 1.99,2.863 2.261,1.13 3.38,3.092 -1.509,7.469 0,12.431 z"
  id="path77"
  style="fill-rule:evenodd" /><path
  clip-rule="evenodd"
  d="m 431.698,580.871 c 3.052,0.339 2.027,4.753 4.521,5.65 -1.393,3.434 -3.886,-1.227 -6.781,0 -0.175,-2.81 1.775,-3.498 2.26,-5.65 z"
  id="path79"
  style="fill-rule:evenodd" /><path
  clip-rule="evenodd"
  d="m 203.418,864.525 c -0.972,0.912 -0.672,3.095 -2.26,3.391 1.028,1.985 3.959,2.068 5.65,3.391 -2.695,3.332 -4.948,7.107 -10.171,7.91 -1.308,-2.836 -4.503,-3.784 -4.521,-7.91 -0.744,-1.517 -2.416,-2.105 -4.52,-2.261 2.688,-2.466 7.443,-2.482 11.301,-3.39 1.149,-0.27 2.444,-1.675 4.521,-1.131 z"
  id="path97"
  style="fill-rule:evenodd" /><path
  clip-rule="evenodd"
  d="m 309.647,870.177 c 1.416,2.114 -2.187,1.881 -2.26,2.26 -0.158,0.823 1.892,2.491 2.26,3.391 0.761,1.853 -0.163,3.377 1.13,4.521 -0.077,3.313 -2.583,4.196 -4.521,5.65 -1.841,8.33 -1.869,18.472 -5.65,24.862 -3.026,-0.741 -4.297,-3.237 -6.781,-4.521 -2.968,0.799 -2.23,5.304 -4.521,6.78 -1.407,-0.296 -2.441,-1.564 -3.39,-2.26 -0.447,-0.328 -1.875,0.384 -2.26,0 -0.27,-0.271 0.318,-2.104 0,-2.261 -0.658,-0.323 -2.402,1.712 -3.39,0 -0.416,-1.922 0.882,-2.132 2.26,-2.26 -2.958,-6.045 1.514,-11.197 4.521,-14.691 -0.031,-1.1 -1.383,-0.876 -2.26,-1.13 0.601,-3.166 1.659,-5.876 2.26,-9.041 -0.599,-4.3 -2.361,-7.435 -3.391,-11.301 1.517,-0.744 2.105,-2.416 2.26,-4.521 2.904,0.11 1.616,4.412 4.521,4.521 5.064,-0.965 9.708,-2.348 12.431,-5.651 3.314,0.83 4.861,3.429 6.781,5.652 z"
  id="path99"
  style="fill-rule:evenodd" /><path
  clip-rule="evenodd"
  d="m 212.458,866.786 c 1.504,-2.866 5.016,1.656 7.911,1.13 0,1.884 0,3.768 0,5.65 -3.335,-1.561 -4.575,-5.218 -7.911,-6.78 z"
  id="path101"
  style="fill-rule:evenodd" /><path
  clip-rule="evenodd"
  d="m 172.905,872.437 c 0.982,4.372 -2.76,4.021 -3.391,6.78 -2.232,-0.781 -3.013,-3.015 -3.39,-5.65 3.457,0.82 3.325,-1.949 6.781,-1.13 z"
  id="path103"
  style="fill-rule:evenodd" /><path
  clip-rule="evenodd"
  d="m 568.441,907.47 c 3.286,0.983 1.271,1.691 1.13,4.521 -1.484,-0.399 -1.778,-1.99 -3.391,-2.261 0.278,-1.227 2.247,-0.766 2.261,-2.26 z"
  id="path105"
  style="fill-rule:evenodd" /><path
  clip-rule="evenodd"
  d="m 559.4,918.771 c 2.636,0 5.272,0 7.91,0 -0.485,2.152 -2.435,2.839 -2.261,5.65 -2.091,-1.316 -6.66,0.989 -5.649,-5.65 z"
  id="path107"
  style="fill-rule:evenodd" /><path
  clip-rule="evenodd"
  d="m 563.919,1025 c -3.391,0 -6.78,0 -10.171,0 -0.182,-1.244 0.2,-3.319 -1.131,-3.391 -1.208,-0.063 -0.619,-0.91 -1.129,-1.13 -1.17,-0.503 -3.244,0.169 -4.521,0 -4.432,-0.585 -10.63,-2.213 -14.691,-2.26 1.267,-5.143 -0.423,-6.594 1.131,-9.041 0.644,-1.016 1.328,2.35 1.129,2.26 1.218,0.541 1.569,-3.11 2.261,-3.39 1.588,0.294 1.288,2.479 2.26,3.39 2.663,0.025 3.328,-1.946 6.781,-1.13 -2.268,2.301 -0.295,3.011 1.13,4.521 10.196,-0.779 16.925,1.909 27.122,1.13 0,1.13 0,2.261 0,3.391 3.988,-0.157 5.053,-3.234 9.041,-3.391 0.294,3.309 -2.555,3.472 -2.261,6.781 -2.24,-0.964 -4.179,0.842 -6.78,1.13 -3.189,0.353 -7.916,-1.228 -10.171,1.13 z"
  id="path111"
  style="fill-rule:evenodd" /><path
  clip-rule="evenodd"
  d="m 438.479,850.965 c -1.585,3.292 -3.894,-2.004 -6.781,-1.13 1.585,-3.292 3.893,2.004 6.781,1.13 z"
  id="path115"
  style="fill-rule:evenodd" /><path
  clip-rule="evenodd"
  d="m 0,843.054 c 5.742,-7.442 12.397,-13.973 11.301,-28.252 -1.69,-0.192 -4.17,0.402 -4.52,-1.13 -1.075,-4.818 -1.518,-8.482 0,-11.302 0.341,-0.633 1.867,-1.531 2.26,-2.26 1.261,-2.339 0.691,-5.456 3.39,-5.65 1.444,0.062 1.565,1.447 3.39,1.13 1.983,-3.667 5.652,-5.65 9.041,-7.911 1.501,-2.386 -0.558,-3.339 1.13,-6.78 2.905,-0.763 2.684,-2.953 3.391,-4.521 0.166,-0.368 1.981,-0.708 2.26,-1.13 0.911,-1.375 0.33,-3.104 1.13,-4.521 0.248,-0.439 1.913,-0.666 2.26,-1.13 0.795,-1.061 0.806,-3.226 1.13,-4.521 0.716,-2.865 3.476,-8.698 1.13,-12.431 3.94,-1.539 4.68,-1.981 3.39,-6.781 2.887,-0.126 3.956,-2.072 5.65,-3.39 -1.654,-0.982 -3.582,-1.692 -3.39,-4.521 1.982,-5.345 -1.488,-5.154 -1.13,-11.302 2.531,-1.235 5.663,-1.871 7.911,-3.39 3.299,1.222 6.512,2.529 11.301,2.26 2.011,-2.132 3.285,-5.002 7.911,-4.521 -1.62,3.287 -0.867,1.271 2.26,1.131 1.243,4.03 4.807,5.739 5.65,10.171 2.578,0.899 3.705,0.643 5.65,1.13 0.661,0.165 1.103,1.123 1.13,1.13 4.081,1.013 7.907,0.874 9.041,2.26 0.303,0.369 1.853,-0.284 2.26,0 0.698,0.487 1.449,1.643 2.26,2.261 1.855,1.414 3.021,3.255 4.521,4.521 3.386,2.858 7.764,7.026 11.301,7.91 2.758,0.69 6.038,2.553 10.171,2.261 2.738,2.536 6.018,4.53 7.911,7.91 2.723,0.463 2.456,-2.063 5.651,-1.13 2.479,2.576 4.519,7.159 9.041,7.911 2.878,0.478 5.313,-0.803 9.041,-1.131 1.734,-6.929 6.176,-11.151 7.911,-18.081 1.502,-1.135 4.205,-1.068 4.521,-3.391 -1.945,-0.445 -2.897,1.678 -3.391,0 4.197,-5.22 6.008,-12.826 10.171,-18.081 -1.588,-0.296 -1.289,-2.479 -2.26,-3.391 3.723,-1.551 4.568,-5.98 5.651,-10.171 -1.501,-3.772 -6.611,-3.938 -7.911,-7.911 -1.252,-2.138 -1.442,-5.339 -2.26,-7.91 0.333,-2.305 3.058,-2.216 3.39,-4.521 -3.034,-1.824 -1.68,-3.579 0,-5.65 -1.502,-1.135 -4.205,-1.068 -4.521,-3.391 1.335,-0.547 2.562,-1.205 3.39,-2.26 -1.958,-0.451 -6.991,-1.957 -6.78,-3.391 0.055,-0.374 2.887,0.066 2.26,-1.13 -1.556,0.05 -2.481,-0.532 -3.391,-1.13 -1.494,0.013 -1.033,1.98 -2.26,2.26 -0.174,-2.811 1.776,-3.497 2.26,-5.65 -3.281,-3.123 -7.433,-5.375 -10.171,-9.041 -3.194,-0.934 -2.927,1.593 -5.65,1.131 1.654,-4.021 -3.631,-6.772 -1.13,-7.911 2.104,-1.082 3.777,3.385 4.521,0 -2.03,0.146 -2.645,-1.122 -2.26,-3.391 -0.486,-1.774 -3.555,-0.966 -2.26,-4.521 0.88,-0.249 1.313,-0.946 1.13,-2.26 5.684,-0.788 7.877,1.918 13.561,1.13 -0.049,1.203 0.532,2.871 1.13,1.13 1.613,0.271 1.906,1.861 3.39,2.261 -0.205,-2.465 0.925,-3.596 3.391,-3.391 3.255,2.396 4.177,7.124 5.65,11.301 3.457,0.82 3.324,-1.948 6.78,-1.13 -0.191,2.829 1.736,3.538 3.39,4.521 -0.117,-7.482 5.869,1.455 6.781,-1.13 -1.758,-0.295 -0.783,-2.479 0,-3.391 0.156,-2.105 0.744,-3.777 2.26,-4.521 0.477,-2.327 -3.836,-6.335 -2.26,-7.91 1.712,-1.712 1.046,-6.326 3.391,-6.781 1.646,2.874 6.852,2.188 7.911,5.651 0.82,3.456 -1.95,3.323 -1.13,6.78 5.416,2.119 9.983,5.085 16.952,5.65 2.243,-2.606 -0.284,-1.256 -1.13,-3.391 5.074,-5.474 16.43,-4.665 24.862,-6.78 0.899,-2.577 0.644,-3.705 1.13,-5.65 0.175,-0.697 1.109,-1.056 1.13,-1.13 0.679,-2.521 -0.234,-6.459 2.26,-7.911 10.015,0.597 18.11,-0.725 25.992,-2.26 3.409,0.521 8.463,7.002 10.171,2.26 -3.981,-1.292 -8.063,-2.484 -10.171,-5.65 3.202,-0.113 7.474,4.479 9.041,2.26 -2.12,-0.271 0.641,-1.86 -1.13,-2.26 -1.335,-0.548 -2.562,-1.205 -3.39,-2.26 3.194,0.934 2.927,-1.593 5.65,-1.131 -0.315,-2.576 0.273,-4.247 2.26,-4.521 2.152,-0.484 2.839,-2.435 5.65,-2.26 2.09,-5.444 3.942,-11.126 7.911,-14.691 7.215,4.069 11.67,-4.325 18.082,-4.521 1.083,-0.033 1.406,0.872 2.26,1.13 4.563,1.38 6.691,0.904 10.171,3.391 -0.924,-4.313 2.405,-4.375 4.52,-5.65 4.654,-0.888 5.8,1.735 10.171,1.13 -0.687,4.454 2.528,5.005 5.651,5.65 -0.744,-4.133 2.445,-4.335 2.26,-7.91 3.268,1.402 5.152,0.577 5.651,-3.391 1.477,-4.867 -3.207,-3.573 -4.521,-5.65 2.636,-0.377 4.869,-1.159 5.65,-3.391 -1.815,-1.353 -2.331,-7.699 -2.26,-9.04 0.042,-0.801 1.132,-1.144 1.13,-1.131 0.257,-2.23 -1.465,-2.233 -2.26,-3.389 4.017,1.756 0.682,-3.84 3.39,-3.392 0.373,-4.893 -6.259,-2.782 -5.65,-7.911 1.68,-0.957 1.635,-3.638 2.26,-5.65 1.003,2.271 4.947,-0.498 2.26,-1.13 -0.271,1.735 -1.861,0.166 -2.26,-1.13 1.795,-1.188 0.296,-3.868 1.13,-5.65 0.065,-0.14 1,0.108 1.13,0 0.382,-0.313 -0.354,-1.907 0,-2.261 0.565,-0.564 2.479,0.218 2.26,-1.13 -3.156,-1.449 0.517,-5.38 2.26,-5.65 -1.294,2.318 1.775,5.387 2.26,2.26 -1.68,-0.956 -1.635,-3.637 -2.26,-5.65 3.064,-0.703 2.813,-4.721 6.781,-4.521 3.567,-0.553 3.991,2.037 7.911,1.131 3.703,-1.948 5.338,-5.963 9.041,-7.911 2.951,0.938 6.2,-3.417 7.911,0 -1.572,8.224 -7.641,11.948 -7.911,21.472 -1.42,-0.248 -2.31,-1.76 -2.26,1.131 0.611,1.439 2.453,0.098 4.52,1.13 0.404,0.202 1.698,1.831 2.26,2.26 0.915,0.7 2.03,0.9 2.26,2.261 -3.303,0.84 -2.187,6.101 -6.78,5.65 -1.866,-0.018 -0.632,-3.135 -2.26,-3.391 -1.005,2.59 -3.291,6.016 -3.391,7.911 -0.214,4.082 -3.554,-2.645 -3.39,1.13 0.013,0.288 2.008,0.916 1.13,2.26 -2.642,0.372 -4.669,1.359 -6.781,2.261 -0.819,3.456 1.95,3.324 1.13,6.78 -1.501,1.136 -4.205,1.069 -4.52,3.391 4.03,1.214 1.292,3.587 0,4.521 4.214,-1.923 1.789,0.667 5.65,1.13 -1.082,2.309 -2.308,4.472 -3.391,6.78 3.42,-0.843 5.402,1.381 7.911,2.261 2.546,0.894 6.303,0.955 7.911,3.39 -1.567,0.693 -0.17,4.351 -2.26,4.521 -1.055,1.206 -4.169,0.353 -3.391,3.391 4.126,-2.323 5.075,0.508 7.911,2.26 0.257,-4.64 5.51,-4.284 10.171,-4.521 1.692,-1.697 2.021,-4.759 4.52,-5.65 4.425,4.339 8.898,0.366 12.431,-2.26 0.156,3.987 3.234,5.054 3.39,9.041 -2.636,0.377 -4.869,1.157 -5.65,3.39 3.327,-0.034 5.772,1.389 7.911,3.391 1.335,1.249 0.86,1.941 3.391,2.26 1.262,0.159 0.648,-0.923 1.13,-1.13 0.903,-0.386 2.419,0.19 3.39,0 6.614,-1.293 14.601,-2.668 19.212,-3.39 1.403,-2.364 3.287,-4.248 5.65,-5.651 7.017,-1.271 14.328,-2.246 21.472,-3.39 2.219,1.925 5.648,2.64 6.78,5.65 -2.246,-0.015 -1.437,-3.084 -4.52,-2.261 1.104,2.663 0.365,7.17 4.52,6.781 2.188,2.839 6.884,-1.327 10.171,-1.13 1.292,-3.981 2.484,-8.063 5.651,-10.171 2.723,-0.464 2.457,2.064 5.65,1.13 0.812,-3.152 4.652,-3.839 5.65,-5.65 0.543,-0.984 0.986,-3.953 1.13,-4.521 1.18,-4.661 1.796,-9.709 1.13,-14.691 -0.674,-5.05 -0.257,-10.518 0,-15.821 4.75,-3.916 6.314,-11.015 10.171,-15.821 3.177,-1.345 6.498,-2.543 10.171,-3.391 3.436,6.359 6.383,13.207 12.432,16.951 2.264,-1.88 4.187,-4.101 7.911,-4.521 0.659,-5.934 -1.992,-8.556 -1.131,-14.69 0.849,-3.217 4.129,-7.736 2.261,-10.171 -3.631,-0.995 -1.549,3.726 -4.521,3.39 -0.744,-1.517 -2.415,-2.105 -4.521,-2.26 -0.379,-3.679 -2.261,-6.826 -2.261,-7.911 0,-0.279 0.883,-1.874 1.131,-1.13 -0.449,-1.349 -1.647,-1.145 -2.261,-2.26 -0.003,-1.133 0.915,-1.345 1.13,-2.26 -0.114,-1.268 1.644,-1.759 0,-2.26 0.004,0.628 -0.914,1.283 -1.13,0 -0.877,-0.252 -2.229,-0.031 -2.26,-1.13 2.861,2.057 2.366,-2.672 3.39,-3.39 1.773,-1.244 5.52,0.245 5.651,-2.26 0.182,-3.45 11.416,-3.292 15.82,-3.391 2.905,-0.109 1.616,-4.411 4.521,-4.52 6.699,2.717 14.838,3.997 24.862,3.39 0,-2.26 0,-4.521 0,-6.781 1.539,0.43 2.142,1.512 4.521,1.13 0.313,-0.051 0.147,-2.064 1.129,-2.26 1.093,-0.219 1.38,1.087 2.261,1.13 1.334,-1.679 0.978,-5.049 4.521,-4.521 4.111,-0.619 9.739,3.727 11.3,-1.13 -3.906,-1.366 -7.488,-3.059 -13.561,-2.26 -3.334,-2.317 -6.278,-5.022 -7.911,-9.041 1.054,0.69 4.169,2.63 3.39,-1.13 -0.837,0.675 -1.145,-1.133 -1.129,-1.13 -1.154,-0.231 -0.837,1.066 -1.13,1.13 -3.83,0.84 -5.034,2.047 -6.782,3.39 -3.999,3.077 -3.644,0.614 -6.78,-1.13 -2.355,2.232 -4.604,3.765 -7.91,2.26 0.99,5.268 -2.932,-1.556 -3.39,2.26 3.49,2.768 -3.246,-1.242 -2.261,1.13 0.882,0.25 1.313,0.947 1.131,2.26 -1.674,-0.588 -2.849,-1.672 -4.521,-2.26 -3.827,6.719 -16.8,4.296 -22.602,9.041 -1.495,-0.013 -1.033,-1.981 -2.261,-2.26 -0.823,2.567 -3.4,3.38 -5.649,4.521 0.765,-2.625 3.755,-3.025 4.52,-5.651 -3.519,0.529 -4.04,-2.842 -2.261,-4.52 -2.811,-0.174 -3.497,1.775 -5.65,2.26 -0.671,-3.605 2.122,-3.495 0,-5.65 -6.468,-0.503 -8.638,-1.881 -11.301,-2.261 -1.076,-8.547 -1.773,-17.697 2.261,-21.472 0.795,-0.744 2.121,-0.867 2.261,-2.26 -6.824,-5.659 -2.039,-15.992 -5.652,-24.862 0.994,-3.527 5.331,-3.71 6.782,-6.781 -0.881,-0.25 -1.315,-0.946 -1.13,-2.26 -1.141,-0.013 -1.422,-1.981 0,-2.26 3.452,-0.817 4.118,1.156 6.779,1.13 1.016,-3.309 1.016,-3.472 0,-6.781 2.982,0.344 2.916,-2.36 3.392,-4.521 4.443,5.243 6.855,-4.158 11.3,-5.65 1.352,-6.184 5.432,-9.638 6.781,-15.821 3.061,-1.459 4.018,-5.024 9.04,-4.521 0.792,-4.937 -1.922,-6.366 -1.129,-11.301 -3.177,-1.72 -7.433,-2.363 -6.782,-7.911 -2.524,1.988 -7.97,0.166 -11.3,1.13 -1.382,0.4 -1.119,1.684 -2.261,2.26 -2.152,-0.485 -2.838,-2.435 -5.649,-2.26 0.374,2.118 -1.435,2.517 -1.131,4.521 0.067,0.447 3.59,1.728 1.131,2.26 -3.817,-3.741 -8.048,1.691 -10.171,3.391 1.526,1.109 2.258,3.015 3.389,4.521 -2.265,1.878 -5.252,3.034 -5.649,6.78 2.316,1.828 2.849,5.438 4.52,7.911 -4.018,3.893 -5.766,10.054 -10.17,13.562 -3.618,0.901 -5.703,3.338 -10.171,3.39 -0.356,1.527 -1.608,2.159 -1.13,4.521 -3.414,-3.28 -3.154,3.486 -5.651,4.521 -1.981,1.033 -5.638,0.388 -6.78,2.26 4.887,-0.401 -3.048,7.533 -4.521,4.521 -0.254,2.137 1.274,2.493 1.13,4.521 -2.513,0.877 -6.128,0.653 -6.78,3.39 5.541,4.516 -3.612,8.58 -1.13,16.952 -1.672,-0.588 -2.848,-1.672 -4.52,-2.26 2.066,8.3 -1.195,11.553 -1.13,20.342 3.034,1.487 6.007,3.034 9.041,4.521 0.77,4.126 4.284,5.511 5.65,9.041 -1.133,0.003 -1.345,-0.915 -2.26,-1.13 -1.139,3.399 2.518,2.003 4.521,2.26 -0.295,3.309 2.555,3.472 2.26,6.78 -1.445,-0.062 -1.565,-1.448 -3.391,-1.13 -1.294,3.555 1.775,2.746 2.26,4.521 -2.473,1.671 -6.083,2.204 -7.911,4.52 1.004,0.333 4.948,3.059 2.26,3.391 -5.1,-0.775 -2.592,1.896 -2.26,4.521 -5.072,-0.928 -5.046,3.24 -7.911,4.52 0.315,-2.576 -0.272,-4.248 -2.26,-4.52 -0.503,2.887 -1.584,5.196 -3.39,6.78 -2.702,0.689 -8.199,-1.418 -9.041,1.13 3.79,-0.776 4.131,1.896 4.521,4.52 -2.577,1.553 -4.248,-2.913 -4.521,0 1.989,0.274 2.576,1.945 2.26,4.521 -0.744,1.721 -2.033,0.964 -2.26,3.391 -0.138,1.482 1.982,2.193 1.13,4.521 -1.133,0.003 -1.345,-0.915 -2.26,-1.131 -0.281,2.135 1.311,2.497 1.13,4.521 -0.013,0.149 -2.19,1.873 -2.26,2.261 -0.212,1.179 1.284,3.07 1.13,3.39 -0.36,0.751 -3.168,1.415 -3.391,2.261 -0.271,1.029 0.128,2.328 0,3.391 -0.256,2.138 -2.918,6.102 0,7.91 -0.096,-3.332 2.266,-3.6 3.391,-4.521 0.375,-0.306 -0.299,-1.857 0,-2.26 0.5,-0.675 1.636,-1.519 2.26,-2.261 0.717,-0.852 1.523,-2.998 2.26,-1.13 -1.831,3.873 -3.688,7.102 -5.651,11.301 -1.766,3.779 -2.584,8.36 -5.65,11.302 -0.672,-2.341 1.396,-7.425 -1.13,-7.911 -1.484,4.166 -3.756,7.546 -6.781,10.171 -3.647,-1.627 -8.385,-2.163 -12.431,-3.391 0.984,6.524 -3.752,0.313 -5.65,3.391 -1.811,4.972 1.707,10.569 -4.521,12.431 -5.28,-1.124 -12.418,-0.388 -15.821,-3.39 1.806,-1.585 2.887,-3.894 3.39,-6.781 -2.377,-1.389 -0.73,-6.804 -3.39,-7.91 -0.604,5.047 -1.074,10.228 -6.781,10.171 -0.294,3.309 2.555,3.472 2.26,6.78 -3.194,-0.935 -2.927,1.594 -5.65,1.13 0.151,5.644 4.583,0.453 5.65,5.651 -6.286,-0.636 -6.738,4.563 -10.171,6.78 0.687,-6.361 -2.528,-0.611 -5.65,-1.13 -0.856,-2.93 -5.752,-5.218 -3.39,-7.911 4.369,-2.553 4.458,2.098 7.911,3.391 -0.167,-9.044 5.752,4.444 6.78,-2.261 -2.063,-1.722 -8.649,-2.319 -5.65,-5.65 -2.012,-0.626 -4.693,-0.58 -5.65,-2.26 0.343,-5.24 -0.011,-9.784 -2.26,-12.432 3.417,-0.35 8.789,1.255 9.041,-2.26 -1.847,0.823 -4.916,-2.246 -2.26,-2.261 2.012,0.625 4.693,0.581 5.65,2.261 -1.29,0.356 -4.318,5.356 0,4.521 0,-1.507 0,-3.013 0,-4.521 4.372,0.604 5.517,-2.018 10.171,-1.13 0.934,-3.194 -1.592,-2.928 -1.13,-5.65 3.561,3.665 0.477,-4.313 5.651,-2.261 -1.25,-9.923 -10.789,-15.46 -6.781,-27.122 -0.102,-1.781 -2.883,-0.886 -2.26,-3.391 0.706,-4.191 3.177,-6.617 4.521,-10.171 -3.353,1.487 -5.575,1 -6.781,-2.26 -0.787,-5.685 1.917,-7.876 1.13,-13.561 0.014,-2.246 3.083,-1.437 2.26,-4.521 -3.066,-0.323 -5.327,-1.455 -6.781,-3.39 -0.881,5.718 -6.719,6.577 -12.431,4.521 -0.25,0.88 -0.946,1.314 -2.26,1.13 -0.676,0.825 1.136,1.161 1.13,1.13 0.281,1.541 -1.679,0.501 -2.26,1.13 -0.76,0.821 -2.391,2.6 -3.391,3.39 -1.863,1.471 -2.983,1.568 -4.52,2.26 -0.367,0.166 -0.711,1.981 -1.13,2.26 -0.994,0.662 -2.535,0.624 -3.39,1.13 -0.291,0.172 -0.597,0.79 -1.13,1.13 -2.78,1.772 -1.475,-0.292 -4.52,0 0.125,-0.012 -0.537,0.982 -1.13,1.13 -3.631,0.907 -6.926,-0.684 -10.171,0 -0.36,-2.653 -3.498,-2.529 -4.52,-4.52 1.504,-1.131 3.411,-1.863 4.52,-3.391 -4.136,1.524 -6.956,-1.452 -9.041,-4.52 -2.094,-3.082 -2.624,-7.698 -3.391,-11.301 2.327,-0.31 1.064,-4.21 3.391,-4.52 0,1.13 0,2.26 0,3.39 3.009,1.541 2.462,-2.518 3.39,-3.39 1.363,-1.283 4.31,-0.957 4.521,-3.391 -3.575,-1.552 -3.777,-0.246 -7.911,0 2.036,-3.494 -2.668,-5.007 -2.26,-6.78 0.087,-0.382 2.943,-1.939 3.39,-2.26 1.191,-0.856 2.225,-1.417 3.391,-2.26 -1.62,1.654 -0.867,3.582 2.26,3.39 2.099,-1.998 -0.491,-3.3 -1.13,-5.65 2.773,-0.995 6.518,-1.017 6.781,-4.521 -3.548,-0.534 -2.986,3.042 -5.651,3.39 -0.656,-3.864 -3.78,-5.26 -3.39,-10.171 5.159,1.704 9.482,-3.239 6.781,-5.65 -0.311,1.026 -4.21,3.795 -4.521,1.13 -2.001,-5.364 0.704,-5.938 1.13,-11.301 1.983,2.532 7.698,5.431 10.171,1.13 -5.093,0.195 -10.346,0.552 -10.171,-4.521 4.333,0.205 0.41,-0.925 1.13,-3.39 1.69,-0.193 4.171,0.404 4.521,-1.13 -1.677,-0.96 -2.43,-2.844 -2.26,-5.65 3.018,0.004 2.456,-3.571 5.65,-3.39 0.934,-3.194 -1.593,-2.928 -1.13,-5.651 1.411,0.126 1.574,1.403 2.26,2.26 0.333,0.415 1.743,-0.745 1.13,-1.13 1.855,1.165 1.604,1.36 3.39,3.39 1.121,-4.368 6.761,-3.557 9.041,-5.65 -6.765,-0.323 -0.207,-0.671 0,-2.26 0.009,-0.073 -2.738,-1.382 -2.26,-2.26 3.92,-0.906 4.344,1.683 7.911,1.13 0.271,-1.614 1.861,-1.906 2.261,-3.391 -1.229,-0.271 -2.714,-1.86 -1.131,-2.26 2.717,-2.583 6.835,-0.193 9.041,1.13 0.158,-3.232 4.713,-2.067 7.911,-2.26 -1.676,-7.703 7.293,-4.761 11.301,-6.781 1.441,-2.829 -0.574,-3.537 1.13,-4.521 4.006,-0.221 4.114,-4.315 5.65,-5.65 2.113,-1.836 5.242,-2.087 6.781,-4.521 -2.063,-1.052 3.977,-3.467 5.65,-4.52 0.156,2.104 0.743,3.776 2.26,4.52 2.118,-2.152 0.124,-2.838 0,-5.65 -0.628,0.003 -1.283,-0.915 0,-1.13 1.366,-0.238 0.695,-1.255 0,-2.26 5.199,-0.829 11.573,-0.48 13.561,-4.521 -1.33,-0.176 -3.208,0.194 -3.39,-1.13 2.25,-1.14 4.827,-1.954 5.65,-4.521 -1.004,-0.332 -4.947,-3.058 -2.26,-3.39 1.13,0 2.26,0 3.39,0 0.463,-2.723 -2.063,-2.457 -1.13,-5.651 2.21,-3.111 5.149,2.459 4.521,-2.26 -0.013,-1.493 -1.98,-1.033 -2.26,-2.26 3.82,0.429 4.822,-1.959 6.781,-3.391 -1.776,-0.108 -3.918,0.151 -3.391,-2.26 -0.004,-1.134 0.916,-1.345 1.13,-2.26 -0.468,-1.972 2.177,0.097 2.26,0 1.299,-1.514 -0.742,-3.439 1.13,-4.52 1.352,-0.78 4.427,0.849 4.521,-1.13 -1.268,-0.238 -1.759,-1.253 -2.26,-2.26 2.787,-0.13 8.439,-0.729 9.041,-2.26 -3.844,-2.136 1.936,-3.962 1.13,-6.78 2.295,-0.982 3.828,-3.258 6.781,-4.521 1.233,-0.527 5.572,1.479 4.52,-2.26 -2.476,-3.354 -6.278,5.017 -7.911,2.26 3.436,-1.131 1.442,-1.863 0,-3.39 1.127,-0.047 2.264,0.06 3.391,0 0.917,-0.049 0.993,-1.105 1.13,-1.13 1.726,-0.319 5.041,1.235 5.65,-1.13 -0.686,-1.951 -5.361,0.087 -5.65,-2.26 1.884,0 3.767,0 5.65,0 0.109,-5.783 2.603,-2.984 3.391,-3.39 0.557,-0.287 -0.212,-2.702 1.13,-2.26 3.837,0.307 9.162,-0.875 11.301,1.13 -0.204,-4.692 -8.218,-1.576 -10.171,-4.521 1.613,-0.27 1.906,-1.86 3.391,-2.26 1.69,-0.192 4.17,0.404 4.521,-1.13 -2.085,-0.585 0.587,-1.158 1.13,-2.26 0.797,-1.619 0.479,-2.885 1.13,-4.52 4.699,-0.575 4.685,-5.863 6.781,-9.041 2.246,1.882 1.438,-0.103 4.52,0 2.019,-4.386 8.104,-4.704 11.302,-7.911 1.632,0.134 1.879,2.041 3.391,2.26 -0.157,-0.022 1.035,-2.251 1.129,-2.26 0.851,-0.077 1.338,1.208 1.13,2.26 3.632,0.994 1.549,-3.725 4.521,-3.391 1.132,1.505 1.863,3.412 3.39,4.521 -0.366,-0.941 0.46,-2.496 0,-3.39 -0.167,-0.326 -1.982,0.277 -2.26,0 -0.382,-0.382 0.369,-1.863 0,-2.26 -1.424,-1.53 -4.333,-0.776 -4.521,-3.39 1.672,-0.588 2.849,-1.672 4.521,-2.26 0.138,0.468 0.74,2.177 1.131,2.26 1.36,0.288 1.248,-2.577 2.259,-2.26 0.77,0.24 0.563,3.024 1.131,3.39 1.332,0.857 4.186,-0.649 5.65,0 -0.315,2.576 0.272,4.248 2.26,4.521 -0.906,-3.92 1.683,-4.344 1.131,-7.911 2.772,-0.995 6.518,-1.018 6.779,-4.521 3.269,-0.505 -4.68,-4.862 -1.129,-5.65 3.56,3.659 0.845,-2.944 3.39,-3.391 3.494,1.236 7.008,-0.993 9.041,3.391 -3.813,3.721 -6.765,8.303 -6.78,15.821 4.295,-0.808 3.862,-5.937 5.65,-9.041 0.257,-0.447 1.907,-0.66 2.26,-1.13 0.634,-0.845 0.68,-2.629 1.131,-3.39 1.002,-1.696 1.215,-4.138 3.391,-4.521 -0.373,2.642 -1.358,4.669 -2.261,6.781 4.614,-0.345 0.604,2.359 1.131,4.52 4.27,1.157 3.357,-5.032 3.39,-5.65 0.152,-2.897 3.227,-1.208 3.39,-3.39 -2.104,-0.156 -3.776,-0.744 -4.521,-2.26 4.8,1.409 3.022,-3.759 5.651,-4.521 0.896,2.493 5.312,1.469 5.65,4.521 -1.464,3.152 -2.404,3.501 -1.131,4.521 0.987,0.789 -4.09,2.836 -2.26,4.52 3.112,1.092 2.65,-3.371 3.391,-4.52 1.267,-1.967 2.47,-3.791 4.521,-4.521 -0.317,2.576 0.271,4.249 2.26,4.521 0.464,-1.42 1.458,-2.31 3.391,-2.26 0.014,1.493 1.98,1.033 2.261,2.26 2.057,3.216 6.425,4.122 7.91,7.911 -2.81,0.7 -4.74,3.669 -7.91,4.521 -1.929,0.518 -4.362,-1.373 -5.651,1.13 1.335,0.548 2.561,1.205 3.391,2.26 0.36,2.621 -0.182,4.338 -1.13,5.65 4.599,0.833 3.82,-3.713 5.649,-5.65 2.681,1.841 6.537,2.505 10.172,3.39 -1.243,-1.944 2.127,-1.938 2.26,-2.26 0.447,-1.083 -2.474,-2.752 0,-3.39 2.81,2.088 8.517,1.278 9.041,5.65 -1.157,-0.132 -2.286,4.875 -3.391,1.13 -2.828,-0.142 -3.538,-2.157 -4.521,1.13 3.297,-0.315 3.886,0.272 2.261,2.26 3.334,-2.145 6.996,0.335 9.041,-1.13 0,1.506 0,3.013 0,4.52 2.991,-0.873 3.677,-1.814 6.78,-2.26 3.115,-0.448 7.418,-0.543 10.171,0 0.08,0.016 -0.068,1.046 0,1.13 0.255,0.311 1.857,-0.161 2.26,0 3.107,1.243 5.626,3.11 6.781,4.52 0.269,0.33 1.851,-0.194 2.26,0 0.14,0.067 -0.108,0.998 0,1.13 0.291,0.355 1.846,-0.247 2.261,0 0.464,0.278 0.644,1.895 1.13,2.26 0.824,0.618 2.65,0.708 3.391,1.13 1.328,0.757 1.354,1.151 2.259,2.26 0.29,0.353 1.847,-0.243 2.261,0 0.163,0.095 -0.126,0.976 0,1.13 0.284,0.346 1.847,-0.231 2.261,0 0.641,0.355 1.49,1.926 2.261,2.26 1.597,0.694 3.78,0.51 5.649,1.13 1.828,0.607 4.426,3.456 4.521,1.13 -0.88,-0.249 -1.314,-0.946 -1.129,-2.26 5.054,2.103 5.138,9.177 13.56,7.911 1.229,4.069 4.51,6.623 5.651,10.171 0.436,1.354 -0.279,3.12 0,4.52 0.022,0.113 0.938,0.36 1.13,1.13 0.918,3.67 -4.378,8.585 -4.521,11.301 -0.066,1.246 -0.859,0.574 -1.13,1.13 -0.681,1.396 -0.157,3.416 -1.131,4.52 -2.649,3.01 -9.735,5.678 -13.56,6.781 -5.165,1.489 -6.586,0.439 -10.172,0 -3.466,-0.424 -5.795,-0.832 -6.781,-1.13 -1.006,-0.305 -2.347,0.151 -3.39,0 -5.314,-0.77 -10.876,-1.678 -14.69,-2.26 -2.627,-0.765 -3.026,-3.756 -5.651,-4.521 0.191,2.45 -4.009,0.512 -5.65,1.13 -1.499,-1.123 -2.139,-2.139 -3.391,-3.39 -1.251,-1.251 -2.267,-1.892 -3.39,-3.39 -0.295,3.309 2.554,3.472 2.259,6.78 3.195,-0.934 2.929,1.593 5.652,1.13 -2.843,2.738 2.276,2.513 4.52,3.39 -0.271,1.612 -1.862,1.906 -2.261,3.391 4.063,0.882 7.664,1.589 9.041,3.39 0.688,0.903 0.374,2.469 1.131,3.39 2.262,2.754 4.135,2.995 4.521,4.521 -0.026,-0.102 -1.043,0.088 -1.131,0 -4.251,-4.25 4.022,9.55 -2.26,6.781 0.826,4.824 6.371,4.929 4.521,12.431 1.33,0.176 3.208,-0.194 3.39,1.13 -0.64,2.352 -3.229,3.653 -1.13,5.65 4.079,1.833 5.471,-0.193 9.04,1.13 1.891,1.878 4.576,2.958 4.521,6.78 5.685,-0.788 7.877,1.918 13.561,1.13 2.126,-2.619 4.673,-4.813 2.261,-9.041 -3.014,0 -6.028,0 -9.041,0 -2.457,-4.325 -7.391,-6.17 -9.041,-11.301 0.295,-1.589 2.479,-1.289 3.391,-2.26 0.191,-1.691 -0.404,-4.17 1.131,-4.521 2.405,2.115 7.195,1.844 9.041,4.521 3.192,0.934 2.927,-1.593 5.649,-1.13 2.004,2.895 7.922,1.873 10.171,4.521 3.479,0.842 2.172,-3.102 5.65,-2.26 2.104,-1.08 3.776,3.385 4.521,0 -1.401,-0.009 -0.663,-1.246 -1.13,-2.26 -1.411,-3.06 -3.994,-4.495 -5.65,-6.78 -2.182,-3.009 -5.467,-5.387 -5.651,-10.171 3.942,-5.098 7.638,-10.445 12.432,-14.691 0.991,-3.906 1.967,-7.829 4.521,-10.171 3.268,0.334 5.908,-0.46 7.91,0 2.624,0.604 3.277,2.703 4.521,3.39 2.031,1.123 2.844,-0.022 4.521,1.13 -0.55,-2.368 -1.367,-4.376 -1.13,-6.781 0.162,-1.633 1.584,-2.047 1.13,-4.521 -0.673,-3.674 -3.623,-5.551 -4.521,-9.041 -1.642,-0.618 -5.84,1.32 -5.65,-1.13 -0.574,-5.127 -1.709,-8.956 -2.26,-13.561 -0.287,-2.388 1.34,-2.294 0,-3.39 -0.327,-0.267 0.188,-1.851 0,-2.26 -0.304,-0.658 -2.005,-1.428 -1.131,-3.391 -3.619,-0.523 -3.983,-4.303 -7.91,-4.52 0.114,-1.268 -1.644,-1.759 0,-2.26 6.25,2.604 13.691,-0.658 20.342,-1.13 4.785,3.125 7.394,8.427 11.301,12.431 -6.092,1.819 -12.072,3.749 -11.301,12.431 5.617,1.164 8.638,4.924 12.431,7.911 0.014,-1.493 1.98,-1.033 2.261,-2.26 2.223,-0.337 2.241,1.526 3.39,2.26 0.893,-2.499 3.952,-2.827 5.65,-4.521 -0.59,-5.438 -2.407,-9.646 -3.39,-14.691 1.059,-3.462 6.264,-2.777 7.91,-5.651 -1.697,-1.693 -4.759,-2.021 -5.65,-4.52 2.787,0.149 5.445,0.171 6.781,-1.13 3.009,-8.667 6.771,-16.585 14.69,-20.342 1.998,-8.173 7.09,-13.251 13.562,-16.951 -0.332,2.304 -3.057,2.216 -3.39,4.521 2.524,0.747 0.58,4.072 1.13,5.65 0.039,0.113 1.021,-0.089 1.13,0 0.369,0.302 -0.283,1.853 0,2.26 0.526,0.756 2.327,0.858 2.26,2.26 -1.309,0.359 -5.322,3.497 -2.26,4.52 1.021,-1.992 2.527,-3.5 4.521,-4.52 0.254,0.876 0.032,2.229 1.13,2.26 -0.528,-3.519 2.842,-4.039 4.521,-2.26 0.248,-3.639 -1.999,-4.782 -1.13,-9.041 1.99,-1.023 1.867,-4.161 4.521,-4.521 3.166,-0.602 5.874,-1.659 9.04,-2.26 0.339,-6.442 2.876,-10.685 6.781,-13.561 0.17,2.09 3.827,0.694 4.521,2.26 0.753,0 1.506,0 2.26,0 -0.112,3.503 0.512,6.269 2.26,7.911 0.125,-2.136 3.737,-0.784 3.391,-3.39 -0.332,-2.305 -3.057,-2.216 -3.391,-4.521 3.151,-0.993 3.748,-4.539 4.521,-7.911 -2.313,0.617 -2.406,-1.605 -3.39,-2.26 -0.521,-0.347 -1.684,0.26 -2.261,0 -0.335,-0.151 -0.76,-1.979 -1.13,-2.26 -2.524,-1.918 -6.041,-2.93 -6.78,-5.65 0.117,0.43 2.193,-1.839 2.26,-2.26 0.228,-1.436 -2.049,-2.228 -1.13,-4.521 9.444,-3.089 17.78,-8.258 30.513,-6.781 4.146,0.481 5.382,0.595 7.91,0 4.663,-1.097 8.267,0.363 11.302,-1.13 0.43,2.812 2.79,4.971 4.521,6.781 2.012,2.104 4.719,3.589 6.78,5.65 3.638,3.636 10.314,9.436 11.301,13.561 0.715,2.987 -0.733,6.298 -1.13,10.171 -0.464,4.535 -0.876,9.047 -1.13,11.301 -0.255,2.248 0.41,4.558 0,6.78 -0.271,1.464 -0.982,1.575 -1.131,3.391 -0.21,2.564 0.368,4.794 0,6.78 -0.6,3.237 -2.474,7.13 -3.39,10.171 -0.847,2.812 -1.436,4.978 -2.261,5.651 -0.288,0.236 0.023,2.964 0,3.39 -0.056,1.074 -1.029,0.791 -1.13,1.13 -2.295,7.79 -3.342,15.441 -5.65,21.472 2.844,2.542 3.208,6.13 4.521,9.041 0.181,0.402 1.997,0.651 2.26,1.13 0.846,1.538 0.339,3 1.131,4.52 0.089,0.171 0.851,0.691 1.13,1.13 1.371,2.152 2.126,1.995 2.26,4.521 0.064,1.225 0.89,0.6 1.13,1.13 0.963,2.125 2.218,5.953 2.261,6.781 0.063,1.185 0.938,0.649 1.13,1.13 1.058,2.633 1.146,6.146 2.261,9.041 -0.036,-0.091 0.969,0.877 1.13,1.13 1.437,2.256 1.469,4.722 2.26,6.781 3.85,10.01 9.008,21.955 12.432,30.513 0.11,0.276 -0.016,0.83 0,1.13 0.062,1.177 0.946,0.661 1.13,1.13 0.689,1.768 0.46,2.812 1.13,4.52 0.827,2.108 3.282,6.988 3.391,9.041 0.064,1.239 0.872,0.584 1.131,1.13 0.993,2.098 1.712,5.176 2.259,6.781 0.799,2.336 1.729,4.816 2.261,5.65 0.438,0.688 0.864,1.584 1.13,2.26 1.084,2.764 1.749,4.374 2.26,5.65 0.971,2.424 1.524,4.875 2.261,6.781 1.325,3.427 3.183,6.478 3.391,9.041 0.179,2.21 -0.944,3.241 -1.131,4.52 -0.496,3.407 -0.84,5.822 -1.13,6.781 -0.311,1.03 0.221,2.334 0,3.39 -0.335,1.607 -1.508,2.081 -1.13,4.521 0.365,2.355 3.516,4.21 3.391,6.781 5.747,1.034 9.601,3.959 15.821,4.521 0.173,3.594 2.563,4.972 2.26,9.041 -3.812,4.181 -6.722,8.991 -10.171,13.561 -3.423,4.536 -8.121,8.882 -10.171,14.691 3.693,1.939 8.36,4.567 10.171,6.781 0.295,0.36 1.848,-0.259 2.261,0 0.723,0.454 1.345,1.668 2.26,2.26 0.413,0.267 1.9,1.111 2.26,1.13 1.303,0.068 0.51,0.74 1.131,1.13 2.524,1.587 4.628,3.227 6.78,3.39 3.205,0.245 5.358,-1.755 9.041,-2.26 -0.407,-1.245 0.857,-1.77 1.13,-2.26 0.587,-1.057 0.414,-2.266 1.13,-3.39 0.312,-0.489 1.875,-0.617 2.261,-1.13 0.706,-0.942 0.529,-2.542 1.13,-3.39 2.242,-3.169 3.669,-6.901 7.911,-7.911 0.721,2.293 5.282,0.744 5.65,3.39 1.297,6.99 0.963,15.612 2.26,22.603 2.499,0.892 2.827,3.953 4.521,5.65 0.452,2.938 3.372,3.407 3.391,6.78 8.512,0.152 14.502,2.826 22.602,3.391 1.007,3.514 3.775,5.265 4.521,9.04 6.16,0.511 9.285,-2.014 15.821,-1.13 1.01,4.956 4.063,6.816 3.391,11.301 -0.269,1.785 -3.313,3.052 -3.391,4.521 -0.068,1.31 -0.712,0.5 -1.13,1.131 -2.447,3.687 -9.002,5.453 -12.432,6.78 0.169,2.807 -0.584,4.689 -2.26,5.65 -3.767,0 -7.534,0 -11.301,0 -1.998,-1.016 -3.3,-2.729 -5.65,-3.391 -1.399,3.541 -5.263,3.827 -7.911,4.521 -3.046,0.798 -6.878,0.674 -10.171,1.13 -3.312,0.462 -7.029,0.528 -10.171,1.131 -3.73,0.716 -12.228,2.892 -13.562,4.521 -0.229,0.277 -1.879,-0.108 -2.26,0 -3.706,1.046 -10.214,2.062 -11.301,3.39 -0.307,0.375 -1.858,-0.3 -2.261,0 -0.822,0.618 -0.81,2.185 -2.26,2.261 -2.231,0.118 -2.616,3.289 -4.521,3.39 -2.076,0.109 -2.628,2.459 -3.391,3.391 -0.302,0.37 -1.853,-0.283 -2.26,0 -0.704,0.491 -1.438,1.64 -2.261,2.26 -2.182,1.647 -4.12,3.578 -5.65,4.521 -1.158,0.713 -1.336,1.557 -2.26,2.261 -1.422,1.085 -3.292,1.336 -4.52,2.26 -1.578,1.187 -1.869,4.361 -4.521,3.391 1.262,6.649 2.204,13.617 2.261,21.472 3.675,3.678 6.568,8.319 10.17,12.432 3.467,3.958 8.591,7.476 11.302,12.431 0.833,1.524 0.518,2.933 1.13,4.521 1.524,3.953 4.335,8.918 4.521,12.431 0.061,1.151 0.974,0.695 1.13,1.13 2.158,5.953 3.941,12.712 5.65,19.212 -1.969,-0.085 -3.514,0.253 -4.521,1.13 -1.582,4.733 -6.07,7.865 -9.04,11.302 -0.817,0.945 -0.367,2.298 -1.131,3.392 -1.334,1.907 -5.82,5.265 -6.78,5.648 -0.843,0.337 -2.256,-0.036 -2.261,1.131 0.627,-0.004 1.284,0.915 0,1.13 -3.273,0.634 1.734,1.764 1.131,3.391 -1.203,-0.049 -2.871,0.531 -1.131,1.13 0,0.754 0,1.506 0,2.26 -2.887,0.504 -5.195,1.585 -6.78,3.391 3.273,2.264 -3.259,4.186 -2.26,7.91 -2.152,0.486 -2.84,2.435 -5.65,2.261 -1.071,2.468 -4.841,4.359 -2.261,4.521 0.033,0.002 -0.051,-1.081 0,-1.13 0.577,-0.576 2.289,-1.114 2.261,0 -0.295,1.588 -2.479,1.287 -3.391,2.26 -0.048,3.721 -1.908,5.626 -1.13,10.171 -3.474,3.309 -4.179,9.383 -5.65,14.691 3.176,1.344 6.497,2.543 10.171,3.391 0.662,2.352 2.375,3.652 3.39,5.65 2.104,1.08 3.778,-3.385 4.521,0 0.429,5.675 1.688,12.257 2.261,14.691 1.068,4.54 -0.03,3.776 2.26,5.65 0.37,0.303 -0.286,1.854 0,2.26 2.03,2.89 6.891,4.795 10.171,6.78 3.9,2.361 7.233,4.758 11.301,5.651 -0.44,1.612 -1.354,1.905 0,3.39 4.145,1.693 6.896,5.243 10.171,7.911 0.837,0.682 1.505,1.682 2.261,2.26 0.92,0.704 2.434,0.37 3.39,1.13 1.762,1.399 2.616,5.198 5.65,4.521 6.036,-2.947 11.945,0.767 14.691,4.521 -3.39,0 -6.78,0 -10.171,0 0.05,1.557 -0.531,2.481 -1.13,3.391 -1.494,0.013 -1.033,1.979 -2.26,2.26 -1.438,6.168 4.34,13.882 -1.131,16.952 -6.193,-2.095 -12.313,-4.262 -16.951,-7.91 -4.182,1.863 -9.374,0.745 -13.561,1.129 -3.916,0.361 -8.006,1.516 -10.172,-1.129 -0.25,-0.306 -1.861,0.15 -2.26,0 -2.604,-0.983 -4.419,-2.138 -6.78,-2.261 -1.124,-0.06 -0.729,-0.996 -1.13,-1.131 -2.115,-0.71 -4.801,-0.473 -6.781,-1.13 -8.06,-2.672 -14.994,-5.864 -20.342,-10.171 -18.226,1.296 -36.019,1.296 -54.244,0 -0.295,-3.472 -2.451,-5.082 -3.391,-7.91 -3.69,-0.412 -8.044,-3.989 -10.171,-4.521 -1.398,-0.35 -1.504,-0.207 -2.261,-1.13 -0.228,-0.278 -1.879,0.106 -2.26,0 -3.552,-1.004 -6.433,-1.608 -9.041,-2.261 -0.943,-0.236 -0.749,-0.969 -1.13,-1.13 -3.812,-1.608 -7.711,-3.519 -11.301,-5.65 -0.162,-0.098 0.127,-0.976 0,-1.13 -0.282,-0.348 -1.847,0.229 -2.261,0 -0.641,-0.357 -1.54,-1.837 -2.26,-2.261 -1.742,-1.026 -4.45,-1.573 -5.65,-3.391 -4.371,0.605 -5.518,-2.017 -10.171,-1.13 -0.766,-2.625 -3.756,-3.023 -4.521,-5.65 -3.457,-0.818 -3.324,1.95 -6.78,1.13 -0.766,-2.624 -3.755,-3.024 -4.521,-5.65 -4.169,-0.729 -8.635,-1.16 -11.301,-3.39 3.725,-1.169 -0.224,-4.482 4.52,-5.651 2.029,0.387 3.396,2.485 4.521,2.261 0.34,-0.068 0.033,-1.024 1.13,-1.13 1.895,-0.184 5.435,-0.343 6.781,-2.261 -1.806,-1.585 -2.887,-3.893 -3.391,-6.78 1.806,-1.585 2.887,-3.894 3.391,-6.78 2.362,-1.404 4.248,-3.287 5.65,-5.651 -5.647,-0.756 -8.525,-4.281 -10.171,-9.04 3.885,0.494 6.334,-0.446 9.041,-1.131 -0.315,-2.575 0.272,-4.248 2.26,-4.52 2.832,-2.441 6.983,-3.565 9.041,-6.781 2.113,0.06 2.393,-0.87 1.13,-2.26 -1.143,-3.182 -4.801,0.311 -6.78,0 -3.153,5.102 -9.688,5.461 -14.691,7.91 -0.144,0.071 0.111,0.995 0,1.131 -0.27,0.328 -1.851,-0.194 -2.261,0 -0.141,0.065 0.108,0.997 0,1.13 -0.273,0.333 -1.848,-0.203 -2.26,0 -0.145,0.07 0.111,0.993 0,1.13 -0.732,0.896 -3.556,0.405 -4.521,1.13 -1.861,1.906 -2.455,5.079 -4.521,6.781 -0.294,-1.59 -2.479,-1.289 -3.39,-2.261 -1.59,4.062 -6.148,5.153 -11.302,5.65 -2.868,5.043 -6.214,9.607 -10.171,13.562 0.696,3.07 2.243,5.293 4.521,6.78 0.217,3.552 2.101,5.435 5.65,5.65 0.647,2.96 3.841,-2.811 3.391,-2.26 0.255,-0.312 1.858,0.161 2.26,0 3.011,-1.205 7.715,-1.607 11.302,-2.261 -1.63,2.515 -2.838,5.45 -2.261,10.171 -3.165,0.601 -5.875,1.66 -9.041,2.261 -2.151,-0.484 -2.838,-2.435 -5.65,-2.261 -1.402,3.495 -2.786,7.007 -5.65,9.041 -3.166,0.601 -5.875,1.66 -9.041,2.261 -0.696,3.07 -2.24,5.291 -4.52,6.78 -4.474,1.111 -8.207,1.566 -11.302,-1.13 3.693,-2.724 1.243,-6.457 1.131,-11.301 -4.907,-2.626 -13.148,-1.92 -16.951,-5.651 4.052,-2.906 6.128,-7.195 10.171,-10.171 1.983,-1.459 5.546,-1.052 5.649,-4.52 -1.647,-0.189 -1.264,-1.246 -2.26,0 -0.791,0.989 -3.533,-4.906 -5.65,-3.391 -2.363,2.158 -5.396,3.646 -9.041,4.521 -3.205,-1.692 -7.438,-2.356 -11.301,-3.391 0.271,-1.613 1.86,-1.906 2.261,-3.391 -4.592,1.303 -5.778,-3.229 -9.041,-3.39 -0.951,-0.047 -2.167,0.769 -3.391,1.13 -1.896,0.561 -2.675,0.658 -4.521,1.13 -2.488,5.046 -4.877,10.191 -6.78,15.821 -1.506,0 -3.015,0 -4.521,0 -0.24,3.247 -1.347,3.555 -2.261,4.521 -1.474,1.559 -2.392,-1.104 -2.259,2.261 1.157,5.874 1.157,9.946 0,15.821 -1.949,0.021 -3.71,1.197 -5.652,2.26 -0.959,0.525 -2.426,0.425 -3.389,1.13 -0.543,0.397 -0.081,3.486 -1.131,1.131 -1.228,0.27 -2.713,1.86 -1.13,2.26 -0.003,-0.628 0.915,-1.282 1.13,0 -1.141,2.102 -2.68,2.504 -3.391,5.65 -1.455,6.447 1.657,16.203 -2.261,20.342 -2.259,0 -4.52,0 -6.779,0 -1.504,3.393 -1.15,8.646 -1.131,13.562 -0.203,3.188 -5.371,1.409 -4.52,5.65 2.451,-0.85 2.769,2.351 3.391,3.391 3.002,5.034 4.386,10.031 6.78,14.69 2.415,0.931 4.584,1.834 5.65,2.261 0.275,0.11 0.829,-0.016 1.13,0 1.214,0.063 0.614,0.906 1.13,1.13 2.681,1.171 7.201,0.369 6.78,4.521 0,1.13 0,2.26 0,3.391 -7.782,1.636 -16.59,2.245 -25.992,2.26 -0.414,3.353 -1.959,5.574 -4.52,6.78 -1.142,-0.136 -1.337,1.082 -2.261,1.131 -1.247,0.065 -0.575,0.859 -1.13,1.13 -1.531,0.745 -3.178,0.194 -4.521,1.13 -0.488,0.341 -1.765,1.766 -2.259,2.261 -2.66,2.659 -3.962,5.953 -6.781,7.91 -2.174,-8.954 5.464,-8.099 7.911,-12.431 -3.639,-0.249 -4.782,1.998 -9.041,1.13 -1.771,-1.62 -0.89,-5.892 -4.521,-5.65 -0.14,-1.285 -1.085,-0.81 -2.261,-1.13 -2.839,-0.775 -6.373,-1.591 -9.041,-2.261 -2.793,1.063 -5.889,3.378 -9.041,4.521 -0.664,0.24 -1.572,-0.172 -2.259,0 -1.892,0.473 -4.215,1.993 -5.651,2.26 -2.422,0.453 -5.06,-1.273 -6.78,1.131 1.729,2.209 2.51,3.948 4.521,5.65 2.156,1.825 5.727,1.43 6.78,4.521 -3.554,-1.344 -5.979,-3.815 -10.171,-4.521 -2.862,3.429 5.718,2.649 3.391,9.041 -3.752,-1.146 -3.539,-6.255 -9.04,-5.651 -0.939,3.306 6.735,3.668 3.39,5.651 -2.724,0.462 -2.456,-2.064 -5.65,-1.131 0.462,-2.723 -2.064,-2.456 -1.131,-5.65 -2.887,-0.503 -5.195,-1.585 -6.779,-3.39 -0.722,-2.466 3.202,-3.596 -1.131,-3.391 0.559,1.403 -1.957,0.661 -2.261,1.13 -0.416,0.644 0.13,2.615 0,3.391 -0.617,3.711 0.537,6.295 1.131,6.78 0.369,0.303 -0.284,1.854 0,2.261 0.545,0.781 1.62,1.3 2.261,2.26 0.528,0.795 0.599,1.535 1.13,2.26 0.528,0.725 1.724,1.468 2.259,2.261 0.532,0.786 0.603,1.538 1.131,2.26 1.604,2.192 5.332,5.037 3.391,6.781 -2.912,0.557 -6.395,-7.488 -6.78,-2.261 -4.026,2.402 4.985,4.208 1.129,6.781 -2.011,0.624 -4.693,0.58 -5.65,2.26 5.286,0.741 11.501,0.554 11.302,6.78 6.727,-0.322 8.971,3.837 12.431,6.781 0.375,4.519 -2.015,6.272 -1.13,11.301 -3.364,-1.533 -4.692,-5.103 -6.781,-7.911 -3.148,0.995 -6.876,1.411 -9.041,3.391 3.469,-0.931 2.622,3.611 3.391,4.521 1.158,1.369 1.19,-0.073 2.261,1.13 1.588,0.295 1.288,2.479 2.26,3.391 -5.075,0.554 -8.467,-0.573 -12.431,-1.13 -1.269,0.114 -1.76,-1.643 -2.261,0 2.337,1.411 2.21,4.159 3.392,6.78 2.126,4.725 4.684,9.478 4.52,15.821 -4.22,-1.808 -5.023,-7.03 -10.172,-7.911 -1.987,1.779 -1.48,6.053 -3.39,7.911 -2.534,-4.246 -2.648,-10.912 -6.78,-13.562 -1.635,1.755 -1.507,5.274 -3.39,6.781 -0.295,-1.589 -2.479,-1.287 -3.391,-2.261 0.084,-1.969 -0.252,-3.515 -1.13,-4.521 -0.495,-3.885 0.446,-6.334 1.13,-9.04 -2.331,-4.073 -6.709,-6.099 -9.041,-10.171 1.668,-1.26 2.092,-2.973 3.39,-4.521 1.476,-1.76 3.385,-2.477 4.521,-4.521 -3.07,-2.604 -5.292,2.151 -6.781,0 -1.253,-2.138 -1.442,-5.34 -2.26,-7.911 -2.104,-0.155 -3.777,-0.743 -4.52,-2.26 0.062,-1.445 1.448,-1.565 1.13,-3.391 -4.408,-2.907 -6.926,-7.734 -9.041,-11.301 -1.354,-2.286 -1.84,-3.39 -3.39,-4.521 -1.503,-4.896 -2.364,-8.015 -4.521,-10.171 -2.428,-2.428 -5.579,-3.872 -6.78,-6.78 4.013,0.294 0.515,-4.5 1.13,-6.781 0.026,-0.096 1.035,0.079 1.13,0 0.351,-0.286 -0.237,-1.846 0,-2.26 0.793,-1.386 2.359,-1.184 2.26,-3.391 0,-3.39 0,-6.78 0,-10.171 1.011,-2.002 4.587,-1.44 3.391,-5.65 -2.621,0.36 -4.339,-0.182 -5.65,-1.13 -4.188,-6.039 -8.645,-10.364 -13.562,-14.691 -1.225,-1.077 -2.328,-2.328 -3.39,-3.391 -2.859,-2.859 -5.516,-3.329 -7.911,-5.65 0.627,0.005 1.282,-0.915 0,-1.129 -0.25,0.88 -0.946,1.313 -2.26,1.129 1.965,-2.074 -1.531,-4.436 -3.39,-6.78 -1.636,-2.062 -3.723,-5.363 -5.651,-6.78 -1.68,-1.235 -4.201,0.088 -4.52,-2.261 -3.014,0 -6.027,0 -9.041,0 0,-1.883 0,-3.768 0,-5.65 -1.764,-0.331 -3.33,-2.992 -5.65,-5.65 -4.508,-5.163 -6.578,-5.578 -3.391,-7.911 0.72,-0.526 1.439,-1.772 2.26,-2.26 -3.313,-0.077 -4.197,-2.584 -5.65,-4.521 -1.025,-6.808 0.098,-16.074 -6.78,-15.821 -2.604,-0.172 -3.403,2.978 -4.521,4.521 -1.47,2.028 -2.201,4.628 -4.521,5.65 -1.331,-5.449 -2.767,-10.795 -4.521,-15.821 0.46,-2.178 4.381,-0.893 3.391,-4.521 -0.955,0.633 -0.992,-1.077 -1.13,-1.13 -0.837,-0.319 -2.41,1.093 -2.26,1.13 -1.405,-0.349 -1.976,-2.553 -4.521,-2.26 1.012,3.648 -3.685,1.588 -4.52,3.39 -4.069,0.396 -5.446,1.729 -9.041,0 -2.796,4.971 2.088,7.216 3.39,11.301 -1.557,0.326 -1.331,2.438 -2.26,3.391 -0.793,0.813 -4.812,0.119 -3.391,3.391 -0.249,3.64 2,4.781 1.13,9.041 6.122,5.179 11.772,10.828 16.951,16.951 2.217,4.281 0.901,11.044 2.26,15.821 0.084,0.295 0.902,0.218 1.13,1.13 0.403,1.615 0.424,2.283 1.13,3.391 0.518,0.813 0.624,1.517 1.13,2.26 0.857,1.26 2.531,2.16 3.39,3.391 2.277,3.261 3.927,7.43 4.521,7.91 0.441,0.358 1.73,-0.238 2.26,0 0.833,0.376 0.813,2.185 2.26,2.261 1.162,0.061 0.681,0.961 1.13,1.13 2.914,1.091 7.666,0.424 11.301,1.13 0.43,0.084 1.603,2.174 3.391,1.131 1.493,0.013 1.033,1.98 2.26,2.26 -0.208,3.56 -6.087,1.447 -5.65,5.65 4.582,4.612 10.979,7.465 16.952,11.301 1.162,0.747 2.269,2.705 3.39,3.391 0.471,0.287 3.269,1.123 3.391,1.13 1.304,0.068 0.504,0.729 1.129,1.13 3.311,2.119 6.879,3.269 9.041,5.651 0.571,0.63 0.741,2.764 1.13,3.39 0.423,0.68 1.805,1.5 2.26,2.261 0.67,1.117 0.581,2.462 1.13,3.39 0.173,0.292 0.791,0.597 1.13,1.131 0.513,0.804 0.502,1.607 1.13,2.26 -2.494,0.897 -1.468,5.312 -4.521,5.65 -0.459,-2.413 -3.415,-1.154 -4.52,-2.26 -0.386,-0.386 0.342,-1.825 0,-2.261 -1.32,-1.672 -2.56,-3.489 -3.391,-5.65 -3.153,-0.988 -5.582,-2.705 -9.041,-3.391 -2.622,-1.654 2.208,-3.582 -2.26,-3.39 -5.302,3.74 -9.828,8.253 -10.171,16.951 4.166,1.484 7.545,3.757 10.171,6.78 2.207,9.741 -4.266,10.803 -11.301,11.302 0.554,3.566 -2.036,3.991 -1.13,7.91 -4.601,2.18 -5.77,7.791 -11.301,9.041 -1.143,-1.872 -4.8,-1.228 -6.781,-2.26 -0.253,-0.877 -0.031,-2.229 -1.13,-2.261 -2.203,4.579 -6.505,7.056 -7.911,12.432 2.191,1.575 1.685,5.849 3.391,7.91 -2.421,2.477 -3.517,6.278 -6.781,7.911 -2.736,-1.407 -5.49,-2.798 -9.041,-3.391 -1.27,-2.875 -2.776,-5.512 -4.521,-7.911 -3.202,-0.189 -4.71,-2.071 -7.911,-2.26 -0.741,-1.781 -3.58,-4.471 -4.521,-4.521 -2.264,-0.119 -2.354,-2.681 -3.39,-3.391 -1.328,-0.909 -3.087,-0.433 -4.521,-1.13 -0.109,-0.053 -0.738,-0.879 -1.13,-1.13 -0.82,-0.523 -1.548,-0.552 -2.26,-1.13 -2.499,-2.027 -2.963,-3.255 -4.521,-6.781 4.318,-3.037 2.877,-5.644 6.78,-6.78 -0.246,0.07 1.087,2.22 1.13,2.261 1.952,1.817 3.906,0.658 5.65,0 1.285,-0.485 1.687,-1.126 3.39,-1.131 2.166,2.355 4.333,4.709 7.911,5.65 6.953,0.549 10.798,-2.011 18.082,-1.13 3.653,4.692 8.664,-0.514 14.691,0 1.402,-3.063 4.362,-2.812 2.26,-6.78 3.44,0.05 4.394,-2.386 6.781,-3.391 -0.941,-8.853 -4.931,-14.657 -5.65,-23.731 -4.528,-2.63 -11.387,-2.929 -13.562,-7.911 4.16,-2.334 -0.042,-5.779 -1.13,-9.041 -3.457,-0.819 -3.324,1.949 -6.781,1.13 3.152,-4.967 -3.604,-2.95 -4.521,-6.78 -1.486,-3.033 -3.034,-6.007 -4.52,-9.041 -4.372,0.605 -5.517,-2.017 -10.171,-1.13 -5.961,-9.484 -15.438,-15.45 -19.212,-27.122 -2.472,-1.671 -6.083,-2.204 -7.911,-4.521 0,-1.507 0,-3.013 0,-4.521 -1.015,-0.701 -2.695,-1.293 -3.39,-2.26 -0.615,-0.856 -0.341,-3.711 -1.13,-4.521 -0.736,-0.755 -3.663,0.638 -3.39,-1.13 4.903,-7.479 -1.805,-16.023 -2.26,-24.862 -7.122,-2.673 -11.192,-8.396 -18.082,-11.302 -3.517,3.265 -8.195,5.366 -12.431,7.911 -1.127,0.048 -2.263,-0.06 -3.39,0 -0.917,0.048 -0.993,1.104 -1.13,1.13 -1.725,0.318 -5.041,-1.234 -5.65,1.13 1.366,0.24 0.695,1.255 0,2.261 -0.294,1.588 -2.479,1.289 -3.39,2.26 -4.52,0.479 -3.383,-3.689 -6.781,-3.39 -1.862,1.905 -2.455,5.078 -4.521,6.78 -9.489,1.579 -11.575,-4.247 -18.082,-5.65 -1.152,-1.484 -1.108,-4.166 -2.26,-5.65 -4.267,-1.057 -5.305,-0.063 -7.911,-1.13 -4.211,-2.193 -6.409,-6.399 -11.301,-7.911 -3.41,3.747 -10.457,3.858 -14.691,6.78 -0.253,0.878 -0.031,2.229 -1.13,2.261 0.193,5.081 0.897,9.649 2.26,13.561 -5.36,-0.463 -2.82,6.973 -5.65,9.041 -5.811,0.986 -12.54,4.746 -20.342,5.65 -8.519,0.989 -16.606,-2.355 -21.472,2.261 0.899,0.126 3.425,3.735 1.13,3.39 -1.884,0 -3.767,0 -5.65,0 -2.756,2.892 -5.946,5.359 -9.041,7.911 -3.283,2.707 -6.378,5.835 -10.171,7.911 0,4.52 0,9.04 0,13.561 1.015,1.999 2.728,3.3 3.39,5.65 -7.619,2.176 -14.591,4.998 -20.342,9.041 0.823,3.084 -2.245,2.274 -2.26,4.521 0.881,0.249 1.314,0.947 1.13,2.26 0.627,-0.003 1.282,0.916 0,1.131 -5.568,-1.186 -8.126,-2.599 -11.301,-2.261 -1.159,0.124 -0.637,0.92 -1.13,1.13 -0.913,0.393 -2.53,-0.481 -3.391,0 -0.526,0.295 -1.592,1.761 -2.26,2.261 -2.462,1.843 -3.925,3.229 -5.65,4.521 -3.292,2.463 -2.545,1.84 -4.521,0 -3.146,-2.93 -5.886,0.571 -9.041,0 -8.795,-4.013 -16.568,-9.048 -25.992,-12.432 -3.549,3.408 -7.637,1.051 -12.431,0 -2.889,2.008 -4.938,4.857 -9.041,5.65 -6.549,-3.277 -9.889,-14.407 -6.78,-23.731 -2.158,-2.362 -3.645,-5.396 -4.521,-9.041 -5.666,-1.868 -10.272,-4.796 -18.082,-4.52 C 11.142,848.13 7.584,844.156 0.01,844.195 0,843.808 0,843.432 0,843.054 z m 710.833,-72.326 c 1.387,5.154 -3.964,3.571 -4.521,6.78 1.493,0.014 1.033,1.98 2.26,2.261 0.393,-3.306 7.278,-7.209 2.261,-9.041 z M 504.024,594.433 c 3.457,-0.82 3.324,1.949 6.781,1.13 0,-2.261 0,-4.521 0,-6.781 0.148,-1.485 0.171,-8.176 -1.131,-4.52 1.118,6.391 -4.276,6.27 -5.65,10.171 z m 264.443,-331.12 c 0.874,-0.873 -0.333,-6.117 -2.26,-2.26 0.918,-0.564 1.787,2.734 2.26,2.26 z m -343.55,127.701 c -0.346,-2.606 3.265,-1.256 3.39,-3.39 -2.866,-1.196 -6.441,2.379 -3.39,3.39 z m -10.17,6.781 c 2.723,-0.462 2.457,2.063 5.65,1.13 -3.125,-5.014 3.98,-3.516 5.65,-6.78 -4.398,1.252 -8.174,3.125 -11.3,5.65 z m -2.261,1.13 c 0.308,-1.538 -0.7,-4.411 -1.13,-2.26 -0.308,1.538 0.7,4.411 1.13,2.26 z m -35.033,18.082 c -0.541,-0.05 1.103,-3.656 1.13,-3.391 -0.134,-1.279 -1.334,-1.75 -2.26,-2.26 0.544,3.706 -1.342,5.425 1.13,5.651 z m 509.674,0 c 0.78,1.091 2.508,1.623 1.131,-1.13 -0.261,-0.522 -0.619,-2.092 -1.131,-2.26 -1.515,-0.497 -0.023,1.075 0,1.13 0.242,0.562 -0.349,1.77 0,2.26 z m -231.669,6.78 c 2.105,-0.155 3.777,-0.744 4.521,-2.26 -2.813,0.174 -3.498,-1.774 -5.65,-2.26 -0.255,2.136 1.272,2.493 1.129,4.52 z m -291.566,-1.13 c 1.642,-0.618 5.841,1.321 5.65,-1.13 -2.636,-0.343 -4.868,-2.413 -5.65,1.13 z m 526.626,2.26 c -0.314,-0.052 2.28,-2.146 2.26,-2.26 0.012,0.067 -2.339,-1.069 -2.26,-1.13 -0.344,0.263 0.236,1.866 0,2.26 -0.097,0.164 -1.716,0.844 0,1.13 z m -228.279,9.041 c -0.126,-0.898 -3.737,-3.426 -3.392,-1.13 1.141,0.013 1.422,1.981 0,2.26 -1.924,-2.22 -2.639,-5.648 -5.649,-6.781 1.788,5.955 4.589,8.849 2.26,14.691 6.97,2.442 12.141,5.727 14.691,11.301 0.532,1.163 -1.971,1.815 -1.13,3.391 0.324,0.608 3.425,0.028 3.391,1.13 0.217,-3.926 3.997,-4.291 4.52,-7.911 -4.148,-5.27 -7.905,-10.93 -11.3,-16.952 0.77,-3.027 -1.082,-5.149 -1.131,-5.65 -0.302,-3.066 0.215,-5.147 -3.391,-5.65 0.304,4.398 6.037,8.176 1.131,11.301 z m 228.279,-1.13 c 0.078,0.506 3.067,1.682 3.391,2.26 0.326,-3.701 -3.587,-3.54 -3.391,-2.26 z m -519.846,9.041 c -0.338,-2.221 1.526,-2.241 2.26,-3.39 -2.136,0.254 -2.493,-1.273 -4.521,-1.13 0.157,2.104 0.745,3.776 2.261,4.52 z m 241.842,11.301 c 1.685,3.55 0.858,5.434 -3.391,5.65 -0.408,2.805 2.254,3.473 3.391,4.521 1.635,1.506 2.991,2.281 4.521,4.521 1.584,2.322 3.271,5.649 3.391,7.91 0.066,1.266 0.827,0.551 1.13,1.13 1.428,2.734 1.339,8.847 6.78,7.911 0.617,-1.642 -1.321,-5.841 1.131,-5.65 4.191,0.8 4.85,-1.93 9.04,-1.13 -0.427,-4.194 -0.172,-7.707 3.391,-7.911 -0.569,-4.707 -3.954,-6.594 -4.521,-11.301 -6.986,-3.185 -12.594,-7.749 -19.212,-11.301 0.364,4.13 -3.042,4.491 -5.651,5.65 z m -254.273,-2.26 c 0.324,1.992 -5.321,3.5 -2.26,4.521 1.702,-3.195 7.687,-2.108 10.171,-4.521 -2.637,0 -5.274,0 -7.911,0 z m 333.38,21.471 c 2.138,0.254 2.494,-1.273 4.521,-1.13 0.205,-2.465 -0.925,-3.596 -3.391,-3.39 -0.357,1.529 -1.609,2.159 -1.13,4.52 z m 11.3,19.212 c 3.807,3.432 3.427,-4.178 0,0 l 0,0 z m -236.19,3.39 c 0.061,-1.944 -0.87,-2.897 -2.26,-3.39 -0.061,1.944 0.869,2.897 2.26,3.39 z m 5.65,3.391 c 2.514,0.49 6.128,2.597 6.781,-1.13 -1.991,-1.023 -1.868,-4.161 -4.521,-4.521 1.617,5.231 -6.867,-1.111 -3.39,2.26 2.349,0.633 2.395,1.763 1.13,3.391 z m 227.151,0 c 0.017,-1.866 3.135,-0.632 3.39,-2.26 -2.304,-0.332 -2.216,-3.058 -4.521,-3.39 1.939,2.886 -1.294,3.955 1.131,5.65 z m -5.651,4.52 c -0.062,1.439 1.334,0.616 2.26,1.13 0.642,0.356 1.539,1.836 2.26,2.26 1.807,1.064 3.625,1.662 4.521,2.26 1.702,1.135 3.188,1.408 5.65,1.13 -0.205,2.465 0.925,3.596 3.391,3.39 -0.924,-5.916 2.406,-0.514 4.521,-3.39 0,-1.506 0,-3.014 0,-4.521 -1.528,-0.355 -2.158,-1.608 -4.521,-1.13 -2.121,-1.81 -6.921,-8.545 -9.041,-3.391 1.651,0.986 4.376,0.897 3.391,4.521 -3.194,0.934 -2.927,-1.592 -5.65,-1.13 -0.254,0.877 -0.032,2.229 -1.13,2.26 -1.069,-1.285 -5.499,-8.381 -5.652,-3.389 z m -109.62,18.082 c 0.878,3.645 2.362,6.679 4.521,9.041 0.464,-1.927 1.458,0.237 3.391,0 0.55,-4.316 -3.996,-3.537 -5.65,-5.65 4.655,-3.308 2.784,-9.383 1.129,-14.691 -4.055,-0.666 -5.467,1.313 -7.91,2.26 0.875,3.643 2.361,6.678 4.519,9.04 z m 179.687,-3.391 c 1.943,0.446 2.896,-1.677 3.39,0 -2.679,3.245 0.513,7.854 3.391,9.041 0.294,-3.309 -2.556,-3.472 -2.261,-6.78 -0.313,-1.981 3.182,-5.64 0,-6.781 1.087,4.102 -5.08,0.949 -4.52,4.52 z m 110.749,1.131 c -0.507,0.078 -1.682,3.066 -2.26,3.39 3.701,0.327 3.539,-3.586 2.26,-3.39 z m -19.212,14.691 c -1.146,0.789 -3.175,1.505 -4.521,2.26 0.704,4.376 0.937,4.654 -1.13,7.911 5.233,-0.419 4.965,-6.337 6.78,-10.171 1.249,-0.766 5.862,-3.756 3.391,-4.521 -1.663,1.473 -2.637,3.225 -4.52,4.521 z m -488.203,-2.261 c -0.821,1.905 -5.99,5.191 -2.26,7.911 0.003,-2.153 3.571,-1.464 4.521,-2.261 0.979,-0.821 0.879,-2.951 2.26,-3.39 1.385,0.359 6.979,-0.183 3.39,-1.131 -3.669,0.657 -5.258,-0.768 -7.911,-1.129 z m 2.26,7.912 c 0,0.754 0,1.506 0,2.26 2.781,1.758 3.323,-3.838 1.13,-3.391 -0.064,0.69 -0.168,1.338 -1.13,1.131 z m 481.422,11.3 c -0.548,-1.336 -1.205,-2.562 -2.26,-3.391 -0.174,1.512 1.775,6.232 2.26,3.391 z m -4.52,3.391 c -0.315,2.575 0.273,4.247 2.261,4.52 0.249,-0.88 0.945,-1.313 2.26,-1.13 0.316,-2.575 -0.272,-4.248 -2.26,-4.521 -0.249,0.881 -0.948,1.315 -2.261,1.131 z m 13.561,9.04 c -2.021,0.274 0.211,1.577 1.13,0 0.312,-0.531 -0.366,-1.771 0,-2.26 0.572,-0.762 2.294,-0.854 2.261,-2.261 -2.979,-0.343 -2.914,2.361 -3.391,4.521 z m -1.13,12.432 c 1.883,0 3.768,0 5.65,0 -0.271,1.612 -1.86,1.905 -2.26,3.39 3.578,-0.942 5.744,-3.296 7.91,-5.65 -4.371,-0.604 -5.517,2.018 -10.171,1.131 0.464,-2.723 -2.063,-2.457 -1.13,-5.651 0.013,-1.494 1.979,-1.032 2.26,-2.26 -2.151,-2.118 -2.839,-0.124 -5.65,0 0.004,-0.628 -0.915,-1.282 -1.13,0 2.158,2.36 3.646,5.395 4.521,9.04 z m -2.26,32.772 c 0.333,-2.304 3.058,-2.216 3.391,-4.521 -1.556,0.049 -2.481,-0.533 -3.391,-1.13 1.467,2.804 -2.521,5.486 0,5.651 z m -431.698,6.781 c 0.785,-3.153 -5.623,-4.781 -6.781,-2.261 2.375,0.932 4.407,4.654 6.781,2.261 z m 414.747,45.204 c -0.022,-1.689 4.199,-4.623 1.13,-5.65 -0.23,1.439 -3.285,5.535 -1.13,5.65 z m -3.391,18.082 c 2.324,-0.135 0.805,-4.019 1.131,-5.65 0.404,-2.029 3.002,-7.998 0,-9.041 0.659,5.934 -1.991,8.556 -1.131,14.691 z m -14.69,21.471 c 3.247,-2.282 -2.272,-3.567 -2.261,-1.13 1.134,-0.003 1.345,0.915 2.261,1.13 z m -3.391,6.781 c -0.049,-1.556 0.533,-2.48 1.13,-3.39 -0.753,0 -1.506,0 -2.26,0 -1.265,1.628 -1.219,2.758 1.13,3.39 z m -4.521,5.651 c 0.062,1.444 1.448,1.564 1.13,3.39 -2.185,1.12 -2.166,6.894 -5.65,3.391 1.227,2.895 -3.434,5.388 0,6.78 2.161,-3.112 4.798,-5.748 7.911,-7.91 -0.674,-2.341 1.396,-7.424 -1.131,-7.911 -0.013,1.493 -1.98,1.032 -2.26,2.26 z m -636.245,28.252 c -0.36,-2.653 -1.785,-4.242 -1.13,-7.91 -1.493,-0.014 -1.033,-1.98 -2.26,-2.261 1.232,2.22 2.276,16.65 3.39,10.171 z m 481.421,33.903 c 4.269,0.841 11.353,2.819 12.432,-2.261 -2.95,-0.937 -6.2,3.418 -7.91,0 -0.064,-0.689 -0.17,-1.338 -1.13,-1.13 1.756,4.018 -3.839,0.683 -3.392,3.391 z M 526.625,957.194 c -3.244,-0.232 -3.543,-0.182 -5.649,-1.131 -0.421,-0.189 -0.575,-2.104 -1.131,-2.26 -2.486,-0.702 -2.002,1.388 -3.39,0 -0.816,-0.816 -8.741,-0.04 -6.781,1.13 5.569,1.29 14.219,11.461 16.951,2.261 z"
  id="path117"
  style="fill-rule:evenodd" /><path
  clip-rule="evenodd"
  d="m 490.463,297.216 c -4.648,0.722 -6.904,10.329 -11.3,4.521 -1.006,0.501 -2.022,0.992 -2.261,2.26 -2.612,-0.319 1.031,-2.635 1.13,-4.521 0.086,-1.63 1.393,-2.593 4.521,-2.26 -1.6,-3.489 -0.958,-8.455 4.521,-7.91 -0.284,1.228 -2.393,6.913 1.13,3.39 1.751,-1.753 0.507,-0.416 2.259,4.52 z"
  id="path119"
  style="fill-rule:evenodd" /><path
  clip-rule="evenodd"
  d="m 383.104,576.351 c 2.133,0.902 -2.775,6.436 -3.39,9.041 -3.328,-3.038 2.725,-6.25 3.39,-9.041 z"
  id="path121"
  style="fill-rule:evenodd" /><path
  clip-rule="evenodd"
  d="m 662.239,30.513 c -1.508,0 -3.014,0 -4.521,0 0.4,-1.484 1.99,-1.778 2.261,-3.39 -2.308,1.082 -4.472,2.309 -6.78,3.39 -2.841,-0.484 1.879,-2.435 3.391,-2.26 -0.268,-3.123 -6.377,-0.405 -5.651,-4.521 2.575,0.316 4.248,-0.272 4.521,-2.26 3.537,0.231 8.295,-0.762 10.172,1.13 0.961,0.208 1.064,-0.44 1.129,-1.13 2.656,0.015 -0.413,3.083 -2.26,2.26 0.292,3.309 -2.557,3.472 -2.262,6.781 z"
  id="path123"
  style="fill-rule:evenodd" /><path
  clip-rule="evenodd"
  d="m 643.027,32.773 c -0.524,5.35 0.981,1.679 4.521,2.26 -2.034,3.24 -4.245,6.303 -6.781,9.041 3.013,3.626 1.351,4.938 -1.129,7.911 -1.055,-0.829 -1.715,-2.055 -2.261,-3.39 -2.028,-0.144 -2.385,1.384 -4.522,1.13 -0.167,-1.505 4.596,-3.412 1.132,-4.521 0.781,-2.233 3.015,-3.013 5.651,-3.391 0.314,-2.576 -0.273,-4.248 -2.261,-4.52 -1.584,0.399 -0.099,1.99 1.13,2.26 -0.71,2.406 -2.213,-0.358 -3.391,0 -2.799,0.849 -3.424,4.564 -4.52,7.911 -2.156,-0.481 -2.046,-3.229 -5.651,-2.26 0.803,-1.253 2.066,-3.154 3.391,-4.521 0.75,-0.775 2.602,-2.854 3.39,-3.39 0.748,-0.51 2.542,0.35 3.391,0 2.932,-1.208 4.841,-5.22 7.91,-4.52 z"
  id="path125"
  style="fill-rule:evenodd" /><path
  clip-rule="evenodd"
  d="m 742.475,141.262 c -3.056,1.016 2.384,2.729 3.391,3.391 -1.715,7.005 5.01,15.502 -4.521,14.691 0.35,1.534 2.829,0.938 4.521,1.13 -0.589,1.672 -1.674,2.848 -2.261,4.521 0.908,-0.598 1.835,-1.179 3.391,-1.13 -0.5,1.007 -0.993,2.021 -2.261,2.26 0.183,1.324 2.061,0.954 3.391,1.13 -0.398,1.484 -1.988,1.778 -2.26,3.39 -0.374,1.358 1.889,0.552 2.26,1.13 1.15,1.792 0.429,6.958 -2.26,5.651 1.028,1.985 3.959,2.067 5.65,3.39 -0.816,3.453 1.155,4.119 1.13,6.781 7.363,6.574 15.473,12.403 27.122,14.691 0,1.506 0,3.014 0,4.521 -2.636,0 -5.272,0 -7.91,0 0.828,1.055 2.055,1.712 3.391,2.26 -0.135,1.482 -2.123,0.747 -3.391,1.13 -1.242,0.375 -3.548,2.281 -5.65,0 -3.385,0.744 1.08,2.416 0,4.521 -3.051,-2.224 -9.875,-0.672 -14.691,-1.13 -0.185,-1.313 0.249,-2.011 1.13,-2.26 -0.339,-1.33 -5.983,-2.836 -2.26,-4.521 -0.709,-2.304 -5.71,-0.318 -4.521,-4.521 -1.134,1.912 -3.443,1.45 -5.65,2.26 -1.687,0.62 -3.115,0.333 -3.391,2.26 -4.183,-2.974 -7.83,-6.484 -9.041,-12.431 2.027,0.144 2.384,-1.384 4.521,-1.13 1.092,-1.673 -1.11,-3.11 -1.13,-3.391 -0.121,-1.749 1.364,-2.083 1.13,-3.39 -0.189,-1.064 -3.31,-1.903 -1.13,-3.39 -0.743,-1.517 -2.415,-2.104 -4.521,-2.26 0.13,-2.883 0.212,-5.815 3.391,-5.65 0.191,-2.829 -1.737,-3.539 -3.391,-4.521 1.193,-0.461 0.4,-2.418 1.13,-3.39 0.228,-0.303 2.173,-0.886 2.261,-1.13 0.137,-0.378 -1.227,-2.198 -1.131,-3.39 -0.006,0.09 1.092,-0.39 1.131,-1.13 0.068,-1.3 0.047,-2.021 1.13,-2.26 -0.462,-2.494 -1.908,1.107 -2.261,1.13 -1.771,0.119 -2.721,-2.524 -5.65,-2.26 0.727,-0.964 0.235,-3.788 1.13,-4.521 0.182,-0.148 2.261,-2.262 2.261,-2.26 0.089,-0.723 -1.84,-2.048 -1.13,-3.39 0.267,-0.505 3.14,-0.437 3.39,-1.13 0.696,-1.615 -3.207,-0.574 -3.39,-1.13 -0.396,-1.195 2.15,-1.771 2.26,-2.26 0.32,-1.44 -1.921,-0.471 -2.26,-1.13 -0.404,-0.784 0.942,-1.426 1.13,-1.13 -0.962,-1.521 -1.842,-3.166 -3.391,-3.39 0.315,-2.322 3.019,-2.256 4.521,-3.39 -0.272,-2.914 -1.944,1.552 -4.521,0 -0.174,-2.811 1.776,-3.499 2.261,-5.651 -2.027,-0.143 -2.384,1.384 -4.521,1.13 0.144,-2.026 -1.384,-2.384 -1.13,-4.521 7.271,3.94 -1.823,-6.25 5.65,-5.65 -4.13,-3.197 1.147,-4.814 -1.131,-9.041 2.2,-0.914 2.183,-4.408 3.391,-6.78 0.378,-0.74 1.919,-1.625 2.261,-2.26 1.31,-2.433 1.138,-4.495 0,-7.911 2.642,-0.372 4.668,-1.359 6.78,-2.26 3.83,-3.704 5.728,-9.341 9.041,-13.561 -2.322,-1.821 -2.621,-5.666 -2.261,-10.171 2.93,-1.215 4.202,-4.086 7.911,-4.521 0.156,2.565 4.387,0.85 4.521,3.39 0.051,0.946 3.364,7.376 3.39,7.911 0.032,0.664 -0.689,4.16 -1.13,4.521 -0.136,0.111 -1.059,-0.145 -1.13,0 -0.202,0.412 0.334,1.988 0,2.26 -0.133,0.108 -1.063,-0.141 -1.13,0 -0.194,0.411 0.33,1.99 0,2.26 -1.76,1.439 -2.843,6.409 -4.521,9.041 -1.206,1.893 -0.939,3.67 -2.261,5.65 -1.14,1.711 -3.47,8.363 -5.65,10.171 -0.578,6.605 2.661,9.394 3.391,14.691 -4.428,-1.448 -3.988,3.292 -1.13,3.391 -0.829,2.013 -2.055,0.163 -3.391,0 0.155,2.104 0.743,3.776 2.26,4.52 -0.183,1.325 -2.06,0.954 -3.39,1.13 0.829,1.055 2.055,1.711 3.39,2.26 -3.82,2.537 2.09,7.446 0,7.911 -1.314,0.183 -2.011,-0.251 -2.26,-1.132 z"
  id="path127"
  style="fill-rule:evenodd" /><path
  clip-rule="evenodd"
  d="m 170.645,218.109 c 0.215,-1.283 1.134,-0.627 1.13,0 1.632,-1.347 1.714,-5.567 3.391,-1.13 2.177,-0.459 0.893,-4.381 4.52,-3.39 0.817,3.453 -1.155,4.119 -1.13,6.78 -0.44,2.237 2.679,-1.185 3.39,0 0.55,0.916 -2.707,2.208 -2.26,3.391 0.909,-0.598 1.835,-1.179 3.39,-1.13 -0.744,-4.15 -2.076,-7.747 1.13,-10.171 2.304,0.333 2.216,3.058 4.521,3.391 1.052,4.751 -3.961,10.526 1.13,12.431 -0.64,1.055 -3.142,1.711 -1.13,2.26 -0.892,2.229 -3.953,4.063 -5.651,2.26 1.57,2.957 -1.833,3.302 -2.26,4.521 -0.456,1.301 1.048,0.722 1.13,1.13 0.225,1.125 -1.874,2.492 -2.26,4.52 2.499,-0.892 2.828,-3.952 4.521,-5.65 1.517,0.743 2.104,2.416 2.26,4.521 4.958,-1.068 5.617,-6.437 7.911,-10.171 1.672,0.588 2.849,1.672 4.521,2.26 -0.818,2.571 -1.008,5.773 -2.26,7.911 2.625,-0.765 3.025,-3.756 5.65,-4.521 2.723,-0.462 2.456,2.064 5.651,1.13 0.244,1.058 -0.306,2.35 0,3.39 0.42,1.43 1.309,0.315 1.13,0 0.282,0.496 2.146,1.881 2.26,2.26 0.42,1.379 -0.322,3.112 0,4.521 3.865,1.286 8.231,-6.096 7.911,1.13 4.195,-0.326 3.062,-5.979 7.911,-5.65 0.031,1.099 1.383,0.877 2.26,1.13 0,3.391 0,6.781 0,10.171 3.166,-1.3 5.875,-1.3 9.041,0 -0.923,2.843 -5.958,1.576 -7.911,3.391 2.778,3.391 2.065,5.651 -2.26,6.78 0.282,1.393 2.777,1.267 3.391,2.26 0.19,0.308 -1.169,1.596 -1.13,2.26 -0.008,-0.143 1.093,0.428 1.13,1.13 0.072,1.364 1.226,2.515 1.13,5.651 -2.027,-0.144 -2.384,1.384 -4.521,1.13 0.829,1.055 2.055,1.712 3.391,2.26 -0.828,2.012 -2.055,0.163 -3.391,0 -2.295,-0.346 0.232,3.265 1.13,3.39 -1.028,3.068 -3.96,-1.151 -5.65,-1.13 0.972,0.912 0.671,3.096 2.26,3.39 -0.35,1.534 -2.829,0.938 -4.521,1.13 -0.183,1.325 -2.061,0.954 -3.391,1.13 -3.104,2.169 -6.228,4.319 -11.301,4.521 0,-1.13 0,-2.26 0,-3.39 -2.079,1.805 -4.656,0.76 -6.781,1.13 -2.457,0.427 -6.278,2.572 -9.041,0 -0.136,-0.126 -1.101,-2.255 -1.13,-2.26 -2.496,-0.483 -1.481,3.375 -5.65,1.13 -0.081,-0.044 -0.794,-0.906 -1.13,-1.13 -0.569,-0.379 -1.366,0.01 -1.13,-1.13 -2.104,0.156 -3.777,0.744 -4.52,2.261 -1.006,-0.695 -2.021,-1.365 -2.26,0 -4.943,-4.098 -9.63,-8.452 -14.691,-12.431 -1.009,-4.314 1.845,-7.213 0,-9.041 -3.622,-3.912 -8.199,-6.869 -12.431,-10.171 0.663,-2.352 2.375,-3.653 3.39,-5.65 2.33,0.308 0.27,5.005 3.391,4.521 2.567,0.347 4.725,-1.024 5.65,-2.26 0.746,-0.996 -1.105,-0.993 -1.13,-1.13 -0.272,-1.493 1.965,-0.42 2.26,-1.13 0.106,-0.253 -1.308,-3.042 -1.13,-4.521 -0.034,0.281 1.022,-0.7 1.13,-1.13 0.452,-1.808 0.461,-3.022 2.26,-3.391 -2.993,-2.657 -6.428,-4.874 -10.171,-6.78 -0.144,-2.026 1.383,-2.384 1.13,-4.521 5.126,0.523 6.702,4.6 12.431,4.521 -2.754,2.653 1.261,2.529 2.26,4.52 2.822,-0.781 -2.097,-3.015 -1.13,-5.65 2.786,-0.149 5.445,-0.171 6.781,1.13 1.113,0.028 0.577,-1.683 0,-2.26 -2.462,-2.462 1.408,1.02 1.13,-3.391 -0.761,-3.125 -5.929,3.146 -4.521,-3.39 -3.92,0.906 -4.344,-1.683 -7.911,-1.13 0.295,-3.309 -2.555,-3.472 -2.26,-6.781 2.625,-0.331 5.296,-2.838 4.521,2.26 1.517,-0.743 2.104,-2.416 2.26,-4.521 2.451,-0.19 0.512,4.008 1.13,5.65 1.673,-0.588 2.849,-1.672 4.521,-2.26 -0.501,-1.643 -0.993,0.115 -2.26,0 0.182,-1.316 -0.251,-2.013 -1.132,-2.262 z"
  id="path129"
  style="fill-rule:evenodd" /><path
  clip-rule="evenodd"
  d="m 278.004,427.178 c 0.404,-0.36 3.168,0.449 3.39,0 0.741,-1.497 -1.143,-1.881 -1.13,-2.26 0.091,-2.536 1.858,-2.334 5.65,-3.391 0.079,7.613 -4.636,10.433 -6.781,15.822 -2.295,0.346 0.231,-3.265 1.13,-3.391 0.297,-3.309 -2.553,-3.472 -2.259,-6.78 z"
  id="path135"
  style="fill-rule:evenodd" /><path
  clip-rule="evenodd"
  d="m 203.418,453.17 c -1.918,-0.734 -0.707,-2.598 1.13,-2.26 1.17,-0.916 -0.042,-2.986 1.13,-4.521 2.395,-3.136 8.908,-3.454 13.561,-4.521 0,1.506 0,3.013 0,4.521 -2.327,1.441 -5.732,1.802 -5.65,5.65 -3.372,1.619 -3.842,-0.922 -6.781,1.13 -1.654,-0.019 -3.581,4.766 -3.39,0.001 z"
  id="path143"
  style="fill-rule:evenodd" /><path
  clip-rule="evenodd"
  d="m 214.719,467.861 c -0.829,-1.055 -2.055,-1.712 -3.39,-2.26 1.744,-2.399 3.252,-5.036 4.521,-7.911 1.099,0.031 0.876,1.384 1.13,2.26 1.991,-1 1.867,-5.014 4.521,-2.26 1.677,-0.494 -0.446,-1.446 0,-3.391 1.922,0.416 2.132,-0.882 2.26,-2.26 1.082,-0.877 2.3,1.117 2.26,1.13 1.404,-0.47 0.361,-1.236 1.13,-2.26 0.861,-1.149 3.77,-1.858 4.521,-4.521 1.563,1.828 5.376,1.405 4.521,5.65 5.726,-2.898 10.394,1.483 15.821,2.26 -1.749,7.668 -9.569,9.266 -16.952,11.301 -0.563,1.269 2.127,0.663 2.26,1.13 0.424,1.479 -3.971,2.595 -6.781,2.26 0.279,1.227 2.247,0.767 2.26,2.26 11.829,-1.281 14.637,6.458 22.602,9.041 -0.063,2.09 -2.104,1.786 -3.39,3.391 -0.94,1.172 -1.096,3.217 -2.26,4.52 -2.481,2.78 -5.251,4.346 -7.911,7.911 -1.324,1.776 -1.941,4.294 -6.781,3.391 0.155,2.104 0.743,3.777 2.26,4.521 -1.935,2.585 -8.626,0.415 -12.431,1.13 -0.411,2.13 2.641,1.343 3.39,2.26 0.135,0.165 -0.17,1.021 0,1.13 0.412,0.265 1.963,-0.362 2.26,0 0.301,0.369 0.766,2.023 1.13,2.26 0.412,0.269 1.963,-0.363 2.26,0 1.251,1.53 3.122,3.177 5.65,4.521 4.443,8.672 -0.378,19.363 -1.13,29.383 1.55,2.595 4.654,3.633 6.781,5.65 0.186,4.804 2.144,7.073 2.26,10.171 -0.022,-0.598 -2.195,0.713 -2.26,1.13 -0.414,2.654 2.558,6.606 1.13,10.171 -1.484,-0.398 -1.778,-1.988 -3.391,-2.259 1.626,3.646 2.164,8.383 3.391,12.43 -2.938,0.452 -3.409,3.372 -6.781,3.391 0.961,1.357 2.135,4.646 4.521,2.26 0.045,-0.045 1.324,-2.234 1.13,-2.26 4.016,0.539 6.219,4.127 11.301,5.65 0.218,3.079 0.339,3.145 1.13,6.78 0.19,0.877 1.221,1.166 1.13,2.261 -0.303,3.657 -4.245,5.382 -5.65,9.04 -2.621,-0.36 -4.339,0.183 -5.65,1.131 -1.725,0.583 0.928,1.744 -1.13,2.26 -1.789,0.447 -4.143,0.289 -5.65,2.261 -0.206,0.268 2.094,3.169 -1.13,2.26 1.828,2.316 5.438,2.85 7.911,4.521 -1.833,2.393 -1.922,4.718 -5.65,5.65 -1.818,0.455 -9.845,2.291 -13.562,3.391 -2.636,-0.379 -4.868,-1.159 -5.65,-3.391 -4.372,0.604 -5.517,-2.018 -10.171,-1.13 -0.06,-1.407 -1.567,-1.498 -2.26,-2.261 -0.236,-0.259 -0.885,-2.146 -1.13,-2.26 -0.175,-0.082 -2.375,1.172 -3.39,1.13 0.465,0.019 -0.829,-1.055 -1.13,-1.13 -2.11,-0.527 -3.183,-0.014 -4.521,-1.13 -1.324,0.182 -0.953,2.059 -1.13,3.39 -3.567,0.553 -3.991,-2.037 -7.911,-1.13 -0.37,-6.033 -5.522,-7.285 -10.171,-9.041 -2.04,2.481 -4.409,4.632 -5.65,7.911 -4.513,-3.398 -7.545,-8.277 -15.822,-7.911 -3.314,0.077 -4.197,2.584 -5.65,4.521 -2.996,-1.147 -3.062,-5.226 -5.65,-6.78 0.141,-2.496 4.794,-0.48 6.781,-1.13 3.726,-1.925 6.865,-4.436 11.301,-5.65 2.684,-2.591 4.857,-5.69 9.041,-6.781 4.464,1.94 10.155,2.652 13.561,5.65 2.386,-1.004 3.341,-3.439 6.781,-3.39 -1.643,-3.35 -4.409,1.488 -7.911,0 -0.939,-2.829 -3.096,-4.439 -3.391,-7.911 -2.26,0 -4.521,0 -6.78,0 -0.436,-1.117 2.215,-1.876 2.26,-2.26 0.125,-1.048 -3.248,-1.245 -2.26,-3.391 -2.637,0 -5.274,0 -7.911,0 -0.753,-2.25 -3.898,-4.827 0,-5.65 -0.031,-1.099 -1.383,-0.876 -2.26,-1.13 2.596,-2.591 6.609,-1.472 10.171,-2.261 2.091,-0.463 3.695,-0.44 5.65,-1.13 2.396,-0.846 4.131,-3.195 6.781,-3.391 -0.318,-1.825 1.068,-1.945 1.13,-3.389 0.144,-2.028 -1.383,-2.385 -1.13,-4.521 -2.723,-0.463 -2.457,2.063 -5.65,1.13 0.144,-2.027 -1.383,-2.384 -1.13,-4.521 5.284,-1.121 9.408,-3.4 14.692,-4.521 2,2.144 4.78,3.509 6.78,5.65 2.304,-2.018 0.317,-4.17 4.521,-2.26 0.144,-2.027 -1.383,-2.384 -1.13,-4.521 0.909,-0.599 1.834,-1.179 3.39,-1.13 -1.763,-3.579 0.811,-5.746 3.39,-7.911 -0.493,-1.678 -1.446,0.446 -3.39,0 -1.105,-1.454 1.129,-3.395 1.13,-3.39 -0.251,-1.694 -1.255,-0.089 -1.13,0 -1.829,-1.31 -0.933,-3.258 -2.26,-6.781 -0.374,-1.385 1.032,-3.12 2.26,-4.521 1.744,-1.99 3.077,-3.403 6.78,-3.39 -2.441,-4.268 -6.597,-0.773 -10.17,0 -0.588,-1.672 -1.672,-2.848 -2.26,-4.521 -1.517,0.743 -2.105,2.416 -2.26,4.521 -2.232,-0.781 -3.013,-3.015 -3.391,-5.65 -1.39,0.493 -2.321,1.445 -2.26,3.39 -1.621,-1.393 -2.141,-3.887 -2.26,-6.78 1.613,0.602 4.512,-0.798 5.65,-2.261 0.624,-0.799 0.417,-2.545 1.13,-3.39 1.972,-2.338 4.04,-2.736 4.521,-4.521 0.446,-1.654 -0.976,-2.099 -1.13,-3.391 -0.31,-2.596 1.023,-3.343 1.13,-5.65 -7.705,-0.17 -5.263,9.805 -14.691,7.911 1.983,-3.667 5.652,-5.649 9.041,-7.911 0.34,-1.362 -1.847,-0.547 -2.26,-1.13 -0.242,-0.34 2.083,-2.531 0,-2.26 0.103,-2.126 2.006,-2.537 3.39,-4.521 1.474,-2.111 0.871,-5.35 5.651,-4.521 -0.695,-1.006 -1.366,-2.021 0,-2.26 -0.494,-1.677 -1.446,0.446 -3.391,0 -0.972,-0.911 -0.671,-3.095 -2.26,-3.39 -0.72,-2.465 3.204,-3.595 -1.13,-3.39 0.17,-2.811 3.827,-0.33 4.521,0 1.309,-0.558 -1.332,-5.907 4.52,-4.521 -2.168,-2.159 0.632,-1.724 0,-1.13 0.202,-0.19 2.735,-3.011 2.26,-3.391 -2.02,-1.608 0.156,-0.542 2.256,-2.256 z"
  id="path149"
  style="fill-rule:evenodd" /><path
  clip-rule="evenodd"
  d="m 175.166,533.407 c 0.555,5.075 -0.573,8.467 -1.13,12.431 -0.916,-0.214 -1.126,-1.134 -2.26,-1.13 0.249,3.639 -1.999,4.782 -1.13,9.041 -4.242,4.046 -9.719,6.856 -11.301,13.561 -1.69,-1.323 -4.622,-1.404 -5.65,-3.39 -3.775,1.96 -5.526,-1.029 -9.041,-2.261 -2.887,0.503 -5.196,1.585 -6.781,3.391 -1.295,-0.211 -2.637,-0.377 -3.39,-1.13 -1.729,-1.729 -1.974,1.716 -5.65,2.26 -1.753,0.26 -2.024,-0.89 -3.391,-1.13 -3.031,-0.535 -4.686,0.193 -7.911,-1.13 -0.489,-0.201 0.063,-1.067 -1.13,-1.131 -0.938,-0.048 -1.813,-1.599 -3.391,-1.13 0.494,-1.391 1.446,-2.321 3.391,-2.26 0.041,-1.685 -2.352,-0.484 -3.391,-1.131 -0.562,-0.35 -0.132,-3.337 -2.26,-2.26 -0.579,-1.255 2.146,-0.682 2.26,-1.13 0.404,-1.585 -4.174,-3.518 -3.39,-6.781 3.669,0.656 5.258,-0.768 7.911,-1.13 -0.824,-2.565 -3.4,-3.379 -5.65,-4.521 0.954,-2.66 5.827,0.07 6.781,1.131 1.766,0.393 0.376,-2.812 1.13,-3.391 1.136,-0.873 4.865,0.247 2.26,-1.13 1.393,-1.62 3.886,-2.142 6.781,-2.261 3.07,-1.45 3.252,-5.788 6.78,-6.78 -0.828,-1.055 -2.055,-1.712 -3.39,-2.261 1.799,-3.615 -0.146,-6.409 -4.521,-6.78 -0.144,-2.026 1.383,-2.384 1.13,-4.521 4.15,-1.479 7.747,-0.147 10.17,-1.13 -0.743,-1.518 -2.415,-2.104 -4.52,-2.26 1.126,-1.51 3.054,-2.219 3.39,-4.521 -0.215,-1.283 -1.134,-0.626 -1.13,0 -3.225,-1.862 4.218,-2.456 4.52,-4.52 2.266,1.878 5.253,3.034 5.651,6.78 1.746,-2.365 2.948,1.169 4.52,1.13 2.03,-0.05 4.079,-3.459 7.911,-2.26 0.529,-3.542 -2.842,-3.186 -4.52,-4.521 -0.567,-3.081 4.357,0.844 4.52,-2.26 0.075,-1.432 2.404,-1.131 2.26,0 1.985,-1.028 2.067,-3.959 3.391,-5.65 2.104,0.156 3.776,0.743 4.52,2.26 2.573,-2.272 4.378,1.312 6.781,-1.13 2.499,0.892 2.828,3.952 4.521,5.651 3.551,0.592 6.305,1.982 9.041,3.39 -1.39,5.829 3.979,11.45 -2.26,12.431 0.828,1.055 2.055,1.712 3.39,2.26 -0.189,3.203 -2.071,4.711 -2.26,7.911 -2.099,1.146 -6.68,-0.101 -7.911,1.13 -0.072,0.072 0.074,1.119 0,1.13 -0.941,0.133 -2.594,-1.012 -2.26,-1.13 -2.484,0.88 2.266,2.579 -3.391,2.263 z"
  id="path151"
  style="fill-rule:evenodd" /><path
  clip-rule="evenodd"
  d="m 520.976,519.846 c 0.215,-1.282 1.133,-0.627 1.13,0 1.826,-0.318 1.946,1.068 3.39,1.13 2.072,-1.246 4.234,-1.767 6.781,-3.391 0.506,-0.321 3.533,-0.861 4.521,-2.26 2.605,-0.347 1.256,3.266 3.39,3.391 -1.437,2.063 -5.522,-0.796 -1.13,2.26 -4.183,4.104 -13.425,3.148 -14.69,10.171 -1.792,3.364 -0.832,-3.706 1.129,-3.391 -0.314,-2.32 -3.018,-2.254 -4.52,-3.39 0.329,-0.694 2.811,-4.35 -10e-4,-4.52 z"
  id="path157"
  style="fill-rule:evenodd" /><path
  clip-rule="evenodd"
  d="m 483.683,528.887 c 1.41,1.77 1.864,2.657 5.65,1.13 -1.593,3.557 -4.77,6.78 -2.26,11.301 -3.864,2.917 -7.254,6.308 -10.171,10.171 -2.671,-0.315 1.295,-3.019 1.13,-4.521 0.539,-3.317 -1.434,-5.468 -1.13,-7.91 0.53,-4.254 5.184,-6.604 6.781,-10.171 z"
  id="path161"
  style="fill-rule:evenodd" /><path
  clip-rule="evenodd"
  d="m 201.158,532.276 c 2.53,0.823 -2.497,3.401 -2.26,5.65 -3.194,-0.934 -2.928,1.593 -5.65,1.131 1.866,-3.029 5.734,-4.059 7.91,-6.781 z"
  id="path165"
  style="fill-rule:evenodd" /><path
  clip-rule="evenodd"
  d="m 313.038,828.362 c 3.18,1.97 0.205,4.672 0,6.781 -0.182,1.866 0.172,3.783 0,5.65 -0.809,8.765 -6.105,16.001 -9.041,22.602 -2.975,-1.169 -3.806,-4.481 -6.78,-5.65 0.5,-1.006 0.993,-2.021 2.26,-2.26 -0.828,-1.056 -2.055,-1.712 -3.39,-2.261 2.741,-2.25 -1.908,-4.827 2.26,-5.65 -0.628,-0.652 -0.618,-1.455 -1.13,-2.26 -1.831,-2.873 1.663,-1.866 0,-6.781 2.418,-2.478 5.487,-4.306 11.301,-3.39 2.858,-0.907 2.881,-4.652 4.52,-6.781 z"
  id="path179"
  style="fill-rule:evenodd" /><path
  clip-rule="evenodd"
  d="m 531.147,81.367 c 0.35,1.534 2.829,0.937 4.52,1.13 1.242,3.279 3.611,5.43 5.651,7.911 -3.126,2.525 -6.903,4.397 -11.302,5.65 0,3.014 0,6.028 0,9.041 -4.913,0.36 -3.947,6.6 -4.521,11.301 -7.56,0.351 -6.584,9.237 -7.911,15.821 -2.104,0.155 -3.776,0.744 -4.52,2.26 -2.732,-1.411 -3.655,-4.632 -4.521,-7.911 1.825,0.318 1.946,-1.068 3.391,-1.13 -0.005,-1.167 -1.417,-0.792 -2.261,-1.13 -1.299,-0.52 -2.421,-2.419 -4.52,-3.391 0.801,-4.19 -1.931,-4.85 -1.13,-9.041 3.202,0.188 4.709,2.071 7.911,2.26 -0.837,-0.546 -1.521,-1.654 -2.261,-2.26 -1.42,-1.162 -2.019,-2.478 -5.65,-2.26 0,-2.637 0,-5.274 0,-7.911 0.707,-0.165 1.386,1.609 2.26,1.13 0.949,-0.52 1.319,-1.588 2.26,-2.26 1.049,-0.749 2.028,-0.457 3.391,-1.13 0.533,-0.264 1.859,-2.139 2.26,-2.26 1.379,-0.419 3.112,0.322 4.521,0 -0.214,-0.915 -1.135,-1.127 -1.131,-2.26 -0.398,-1.583 -1.988,-0.097 -2.259,1.13 -2.348,-0.291 -0.309,-4.965 -2.261,-5.65 -2.496,0.141 -0.48,4.794 -1.13,6.78 -4.049,0.095 -6.53,1.758 -10.171,2.26 0.937,-2.951 -3.417,-6.2 0,-7.911 -2.291,-1.853 -3.681,-4.606 -3.391,-9.041 1.13,0 2.26,0 3.391,0 -0.695,-1.006 -1.366,-2.021 0,-2.26 0.034,-1.55 -1.445,-0.294 -1.13,0 -2.365,-2.205 -0.593,-6.012 -1.13,-10.171 1.993,-1.021 3.5,-2.527 4.521,-4.521 1.654,2.622 3.582,-2.208 3.39,2.26 3.309,0.294 3.473,-2.555 6.78,-2.26 0.157,4.678 -5.013,4.028 -3.39,10.171 2.732,-1.411 3.655,-4.632 4.521,-7.911 1.748,1.642 2.372,4.408 2.259,7.911 2.03,-2.155 0.8,-5.719 2.261,-7.911 0.591,-0.885 1.31,-2.659 2.261,-4.521 3.788,1.485 4.694,5.853 7.91,7.911 -0.777,4.548 1.083,6.454 1.131,10.174 z m -21.473,28.253 c 2.837,-0.932 9.73,2.197 9.041,-2.26 -2.849,1.127 -11.666,0.651 -9.041,2.26 z"
  id="path181"
  style="fill-rule:evenodd" />
</svg>