<?xml version="1.0" encoding="utf-8"?>
<!-- Generator: Adobe Illustrator 12.0.0, SVG Export Plug-In . SVG Version: 6.00 Build 51448)  -->
<!DOCTYPE svg PUBLIC "-//W3C//DTD SVG 1.1//EN" "http://www.w3.org/Graphics/SVG/1.1/DTD/svg11.dtd" [
	<!ENTITY ns_svg "http://www.w3.org/2000/svg">
	<!ENTITY ns_xlink "http://www.w3.org/1999/xlink">
]>
<svg  version="1.1" id="Layer_1" xmlns="&ns_svg;" xmlns:xlink="&ns_xlink;" width="1208" height="975.181"
	 viewBox="0 0 1208 975.181" overflow="visible" enable-background="new 0 0 1208 975.181" xml:space="preserve">
<g>
	<g>
		<path fill-rule="evenodd" clip-rule="evenodd" d="M361.868,0c4.878,0,9.756,0,14.634,0c2.645,7.555,14.781,5.619,22.617,7.982
			c3.447,6.703-3.648,15.733,0,25.277c1.952,5.107,6.532,2.673,9.313,6.652c2.59,3.706,1.264,13.399,7.982,14.634
			c12.139,2.232,15.002-18.575,21.286-21.287c3.058-1.319,8.376,1.39,10.644,0c1.428-0.875,1.077-4.615,2.661-6.652
			c12.912-16.608,30.617,4.442,46.564,9.313c8.227,2.513,20.674,2.686,31.929,5.321c5.813,1.361,9.691,7.15,15.965,9.313
			c6.594,2.273,14.756,0.724,19.956,2.661c4.749,1.769,7.838,7.35,11.974,9.313c2.745,1.303,6.874-0.856,9.313,0
			c11.091,3.892,17.433,18.611,27.938,14.634c1.644,6.792-6.45,7.506-2.66,14.634c0.037,0.07,14.629,6.974,19.956,9.313
			c9.528,4.185,22.624,4.118,17.295,15.964c-2.773,6.166-10.798,1.101-15.965,2.661c-1.557,13.357,16.743,15.782,21.286,21.286
			c1.03,1.248-0.619,5.105,0,6.652c0.61,1.522,8.922,11.691,6.652,10.644c4.385,2.024,9.133-4.628,11.974-1.331
			c2.283,2.151,3.305,5.564,2.66,10.643c4.074,5.889,13.618-6,10.644-5.321c7.612-1.738,19.645,3.365,17.295,9.313
			c-3.206,8.118-11.915-3.03-14.634-2.661c4.213-0.572-6.054,3.568-3.991,6.652c2.607,3.899,9.725-0.643,15.965,3.991
			c1.598,1.187,3.965,10.682,3.991,10.643c-0.187,0.281-16.222,3.033-18.626,2.661c-3.427-0.531-4.636-5.059-7.982-6.652
			c-10.575-5.034-26.4-0.486-35.921-5.321c-2.958-1.502-20.759-20.035-22.616-22.617c-4.845-6.732-3.078-12.664-10.644-15.965
			c-6.941-3.029-18.351,3.716-18.625-7.982c-3.649,5.946-6.817,3.264-11.974,5.321c-10.803,4.312-5.415,13.501-11.973,21.287
			c-6.767,8.032-18.003,4.504-23.947,3.991c-10.143-0.875-17.345,2.433-25.278-2.661c-7.976-5.122-6.989-14.622-17.295-17.295
			c-15.895-4.124-23.719,9.708-41.242,5.322c2.324-8.364,5.845-18.103,11.974-21.287c3.167-1.645,5.267,1.392,6.652-1.331
			c3.779-7.43-6.873-27.115-10.643-31.929c-9.188-11.733-37.816-13.925-55.877-19.956c-9.551-3.189-16.389-9.065-21.286-13.304
			c-5.766,4.717-5.617,9.172-10.643,9.313c-12.267,0.344-5.332-10.835-6.652-13.304c-3.684-6.888-11.521-6.932-17.295-10.643
			c-0.139-10.706,17.935-1.158,19.956-6.652c-5.404-7.665-6.537,0.12-13.304-3.991c-4.018-2.441-3.219-10.475-5.321-11.974
			c-5.3-3.777-13.022,0.342-18.626-3.991C339.656,7.944,354.202,7.412,361.868,0z"/>
		<path fill-rule="evenodd" clip-rule="evenodd" d="M619.965,35.921c-0.545-11.644,19.392-9.989,19.956-3.991
			C640.619,39.355,627.291,38.142,619.965,35.921z"/>
		<path fill-rule="evenodd" clip-rule="evenodd" d="M737.039,65.189c9.685,2.403,11.189,14.111,3.991,19.956
			c-3.355,2.725-4.893-3.617-9.313-2.661c1.167-0.252-7.621,6.526-6.651,5.322c-0.98,1.217,2.418,5.064,1.33,7.982
			c-1.647,4.421-6.356,1.39-9.313,2.661c-9.023,3.879-22.295,16.285-38.582,13.304c-3.721-0.681-3.828-3.936-6.652-5.322
			c-3.01-1.478-10.338-0.455-14.634-2.661c-3.465-1.778-5.672-6.554-13.304-3.991c0-2.217,0-4.435,0-6.652
			c2.922-3.644,6.455,3.913,7.982,3.991c0.345,0.018,2.505-3.513,3.991-3.991c5.418-1.746,19.989,1.765,23.946,0
			c5.111-2.28,3.413-12.988,10.644-9.313c-2.046,21.514,15.62,0.148,22.617-1.331c1.147-6.47-3.81-6.834-2.661-13.304
			c11.07,0.879,13.356,1.737,21.286,1.33l4.656-0.665L737.039,65.189z"/>
		<path fill-rule="evenodd" clip-rule="evenodd" d="M784.934,103.771c13.166,2.269,13.113,22.608,1.33,26.608
			c5.978-12.107-12.19-7.021-9.313-19.956l4.898-2.237L784.934,103.771z"/>
		<path fill-rule="evenodd" clip-rule="evenodd" d="M401.78,94.458c17.444-7.391,5.594,27.559-1.331,27.938
			C388.34,123.06,396.869,96.539,401.78,94.458z"/>
		<path fill-rule="evenodd" clip-rule="evenodd" d="M802.229,113.083c9.838,2.982,20.923,10.453,19.956,19.956
			C811.454,131.2,799.358,124.145,802.229,113.083z"/>
		<path fill-rule="evenodd" clip-rule="evenodd" d="M351.225,122.396c8.289,7.771-3.246,25.354-9.313,21.286
			C333.773,138.227,348.405,125.931,351.225,122.396z"/>
		<path fill-rule="evenodd" clip-rule="evenodd" d="M820.854,138.361C841.983,147.566,818.504,165.711,820.854,138.361
			L820.854,138.361z"/>
		<path fill-rule="evenodd" clip-rule="evenodd" d="M892.696,172.952c-7.833-1.701-24.612-27.097-13.305-29.269
			c6.453-1.239,4.341,6.35,6.652,10.644C889.865,161.424,898.821,169.1,892.696,172.952z"/>
		<path fill-rule="evenodd" clip-rule="evenodd" d="M883.383,176.943c-7.127,1.521-22.803,0.806-25.277-3.991
			C850.44,158.087,885.904,160.774,883.383,176.943z"/>
		<path fill-rule="evenodd" clip-rule="evenodd" d="M888.705,179.604c10.541-2.232,29.485,9.155,19.955,15.965
			C903.414,199.317,887.474,185.014,888.705,179.604z"/>
		<path fill-rule="evenodd" clip-rule="evenodd" d="M441.691,244.793c2.5-1.204,6.338-1.491,7.982,1.33
			c-0.187-0.32-2.482,13.225-2.661,13.304C437.313,263.745,431.319,249.79,441.691,244.793z"/>
		<path fill-rule="evenodd" clip-rule="evenodd" d="M960.546,396.458c-11.859-5.879-16.81-18.667-23.947-29.269
			c12.811-1.582,24.04,9.559,30.6,18.625l-5.1,4.213L960.546,396.458z"/>
		<path fill-rule="evenodd" clip-rule="evenodd" d="M993.806,379.163c8.022-8.022,12.691,7.587,7.982,10.643
			C996.702,393.106,988.022,384.946,993.806,379.163z"/>
		<path fill-rule="evenodd" clip-rule="evenodd" d="M1008.44,391.137c2.114-2.114,10.781,3.136,7.982,7.982
			C1013.89,403.505,1002.121,397.457,1008.44,391.137z"/>
		<path fill-rule="evenodd" clip-rule="evenodd" d="M574.731,780.942c10.292-5.329,6.844,19.855-2.661,13.304
			C567.803,791.306,573.089,781.793,574.731,780.942z"/>
		<path fill-rule="evenodd" clip-rule="evenodd" d="M646.572,783.604c2.206-0.954,15.451,4.844,10.644,11.974
			C652.666,802.324,636.694,787.876,646.572,783.604z"/>
		<path fill-rule="evenodd" clip-rule="evenodd" d="M588.035,803.56c2.595,3.486,7.023,0.401,10.643,1.33
			c6.567,1.685,10.74,8.447,15.964,9.313c5.455,0.904,8.034-2.542,14.635-3.991c2.481-0.544,4.657,1.956,6.652,1.331
			c3.7-1.161,10.631-7.076,13.304-6.652c9.283,1.474,12.865,21.69,7.982,37.251c-0.159,0.508-4.785-0.39-5.321,0
			c-7.495,5.451,5.142,18.925-2.661,26.608c-4.043,4.091-7.546-5.306-7.982-5.322c-5.686-0.214-7.288,13.035-10.644,14.635
			c-4.062,1.938-16.494-0.025-18.625-1.33c-3.624-2.22-14.74-21.475-15.965-27.938c-0.907-4.785,1.243-8.336,0-11.974
			C592.866,827.597,578.81,816.493,588.035,803.56z"/>
		<path fill-rule="evenodd" clip-rule="evenodd" d="M1001.788,972.52c4.974-3.595,0.69-12.822,3.991-15.965
			c3.686-3.508,15.837,0.517,11.974,10.644C1015.936,971.961,1007.794,972.646,1001.788,972.52z"/>
		<path fill-rule="evenodd" clip-rule="evenodd" d="M456.326,662.537c-6.859-6.932,7.508-16.827,7.982-21.286
			c0.01-0.097-3.04-6.729-2.661-6.652c-6.122-1.228-2.322,5.312-5.322,9.313c-4.836,6.45-32.948,18.727-25.277,31.929
			c-9.773,1.09-10.475-6.067-18.625-9.313c9.02-10.61-0.331-11.751-5.322-21.286c-0.8-1.529,1.086-5.359,0-6.652
			c-3.082-3.668-7.102-2.131-10.643-5.321c-5.682-5.119-5.769-14.815-7.982-19.956c-6.879,4.591-11.663-3.063-17.295-3.991
			c-3.077-0.507-6.313,2.278-9.313,1.33c-5.27-1.665-10.473-9.684-17.295-10.643c-2.942-0.414-4.964,3.676-7.982,3.991
			c-2.329,0.243-4.752-2.228-7.982-2.661c-20.95-2.813-44.803,17.281-65.189,17.295c-4.114,0.003-8.343-1.984-11.974-1.33
			c-6.323,1.14-18.074,12.194-25.277,14.635c-1.619,0.548-5.316-0.992-6.652,0c-5.105,3.791-5.727,18.285-11.973,21.286
			c-14.954,7.185-34.25-3.328-46.564-2.661c-2.672,0.145-7.815,3.773-11.974,3.991c-3.637,0.19-7.545-2.153-9.313-1.33
			c-4.067,1.896-4.692,10.415-9.313,13.304c-2.526,1.579-5.175-1.839-7.982-1.33c-6.564,1.188-9.893,12.832-17.295,14.634
			c-5.412,1.318-7.394-2.028-11.973-2.66c-7.081-0.979-12.844,1.691-18.626,0c-7.025-2.056-7.42-8.77-14.634-13.304
			c-8.155-5.127-18.931-3.611-11.974-22.617c15.124,5.243,9.818-6.318,10.644-19.956c0.292-4.84,3.247-8.623,2.661-14.634
			c-0.94-9.64-12.887-22.157-14.634-35.921c-0.771-6.077,1.022-12.797,0-17.296c-1.368-6.019-12.921-21.576-14.634-26.607
			c-1.061-3.114,0.656-7.258,0-10.644c-3.55-18.305-27.978-28.493-19.956-43.903c4.331,0.991,4.045,6.598,6.652,9.313
			c2.938-0.166,0.565-5.644,1.331-7.982c4.358-3.058,6.285,5.515,10.643,6.652c-2.254-13.603-17.691-24.195-13.304-37.251
			c1.404-4.177,7.07-5.212,7.982-9.313c2.444-10.98-5.322-27.787,5.322-34.59c3.348-2.14,5.116,2.67,6.652,2.661
			c13.546-0.08,33.604-26.577,43.903-27.938c4.725-0.625,9.368,4.513,13.304,3.991c2.519-0.333,6.189-6.515,11.974-7.982
			c2.995-0.76,7.079,0.934,9.313,0c3.125-1.306,5.27-5.807,7.982-6.652c6.672-2.078,14.818-0.043,22.617-2.661
			c5.645-1.895,12.231-4.625,14.634-6.652c7.805-6.583,6.604-20.761,19.956-23.947c-2.768-4.588-6.406-13.932-1.331-22.617
			c2.853-4.88,3.2,1.407,6.652-1.33c4.22-3.347,2.264-11.649,6.652-11.974c6.312-0.467,5.292,10.372,10.644,13.304
			c-0.967-6.436-3.166-15.441,3.991-18.625c2.742-1.22,4.931,5.368,7.982,5.322c4.798-0.073,3.804-8.509,7.982-6.652
			c0.952-3.613-6.273,0.952-5.321-2.661c5.367-11.928,15-19.59,22.617-29.269c4.165-0.617,5.939,1.157,5.321,5.322
			c6.826-3.296-0.017-7.937,2.661-11.974c12.196,3.692,16.418-7.464,27.938,0c5.831,3.778,7.146,12.646,14.634,15.965
			c4.915,2.178,16.198-0.593,22.617,3.991c-0.216-1.547,0.293-2.367,1.33-2.661c-11.547-6.127-2.371-23.276,9.313-25.277
			c0.347-3.895-3.008-4.088-2.661-7.982c7.649-3.438,11.108-11.064,15.964-17.295c-2.61-3.599-13.229,0.812-15.964-2.661
			c3.082-2.298,1.497-12.599,5.321-14.634c1.348-0.717,23.536,3.379,23.947,3.991c4.266,6.349-11.428,10.333-2.661,15.965
			c5.796,3.723,19.178,0.507,19.956-3.991c1.918-11.098-26.015-1.318-15.964-14.634c4.382-5.807,15.292-2.106,15.964,3.991
			c4.97,1.422,3.792-3.304,7.982-2.661c2.575,8.377,6.335,6.926,14.635,7.982c2.085,0.266,4.099,3.119,7.982,3.991
			c3.199,0.719,6.886-0.82,9.313,0c3.178,1.074,6.656,5.263,7.982,5.322c4.445,0.197,6.438-4.328,10.643-5.322
			c2.82-0.667,1.938,2.458,5.322,2.661c6.514,0.392,5.954-4.658,10.643-2.661c3.25,1.384,2.53,11.378,7.982,7.982
			c-4.877,4.436-7.249,11.377-7.982,19.956c-5.558,0.3-6.283-2.163-10.643,0c7.145,17.684-10.868,15.952-9.313,26.608
			c0.253,1.732,12.276,11.789,15.965,14.634c6.04,4.659,15.608,4.746,22.617,9.313c5.468,3.563,7.165,10.314,14.634,11.973
			c3.081,0.685,7.82-0.834,9.313,0c5.363,2.999,18.091,27.203,31.929,11.974c1.358-1.494,0.308-6.593,1.331-9.313
			c2.094-5.565,7.42-9.58,7.982-11.974c1.099-4.677-1.057-8.54,0-11.974c0.761-2.474,4.961-5.384,5.321-7.982
			c0.893-6.437-4.413-18.691-3.991-27.938c0.158-3.461,2.604-1.746,3.991-6.652c1.448-5.124-2.104-13.977-1.33-17.295
			c0.582-2.496,5.23-4.056,7.982-11.974c2.436-7.005,2.433-20.755,10.643-19.956c5.396,0.525,6.429,10.075,7.982,18.625
			c1.802,9.925,11.779,16.99,13.304,22.617c1.868,6.892-0.904,19.376,2.661,26.608c6.821,0.613,6.482-5.934,13.304-5.321
			c-0.004,8.714,13.469,10.384,15.965,15.965c1.52,3.397-2.551,4.964-2.661,7.982c-0.077,2.125,4.751,8.123,5.321,13.304
			c0.508,4.612-2.504,3.702-1.33,6.652c3.48,8.747,12.265,11.755,13.304,23.947c0.253,2.962-2.056,7.384-1.33,10.643
			c0.862,3.872,3.249,1.015,5.321,5.322c2.876,5.976,1.021,12.548,7.982,14.634c2.848,0.853,7.03-2.673,11.974,0
			c2.613,1.413,0.105,5.175,2.661,7.982c4.107,4.513,18.386,5.365,21.286,9.313c3.101,4.221-1.59,6.784,0,10.644
			c1.201,2.917,6.944,4.097,7.982,6.652c0.744,1.833-0.925,4.917,0,6.652c0.573,1.075,5.193,0.963,5.321,1.331
			c1.415,4.047-1.035,8.889,0,13.304c3.834,3.855,4.161-2.591,9.313-1.33c1.766,6.217,7.685,8.28,14.635,9.313
			c-4.85,30.496,25.495,28.155,31.93,51.886c4.144-0.013,8.67-3.146,11.974,0c-3.952,9.714-0.643,20.561-1.331,30.599
			c-0.199,2.915-3.112,7.648-2.66,10.643c1.646,10.901,9.713,14.159,10.643,21.287c1.702,13.041-7.801,36.133-10.643,50.555
			c-1.138,5.773,0.26,13.351-1.331,18.626c-1.243,4.123-6.847,7.782-7.982,11.973c-2.012,7.431-0.432,12.692-6.651,17.296
			c-1.734,1.283-6.216,0.702-7.982,2.66c-3.708,4.111-2.646,11.645-6.652,19.956c-1.908,3.96-8.015,7.259-9.313,10.644
			c-1.345,3.505,1.146,9.685,0,13.304c-2.255,7.116-9.641,12.982-11.974,19.956c-5.754,17.202,2.883,39.863-14.635,45.233
			c-5.817,1.783-12.078-0.649-17.295,0c-18.842,2.347-23.404,19.802-38.581,21.286c-2.612,1.009,3.609,4.247,1.33,9.313
			c-4.158,3.691-3.677-3.494-6.652-5.322c-1.148-0.706-4.344,0.89-5.321,0c-0.708-0.644-0.733-4.956-1.33-5.321
			c-0.681-0.416-5.996,1.578-6.652,1.33c-1.684-0.636-1.224-4.556-2.661-5.321c-2.603-1.388-15.454-3.802-13.304-3.991
			c-7.245,0.639-10.815,11.142-15.965,11.974c-7.735,1.25-20.66-12.378-30.599-11.974c-0.961,0.039-7.749,2.727-7.982,2.661
			c-4.122-1.154-2.985-5.74-6.652-7.982c-2.455-1.502-6.667,0.716-9.313,0c-7.706-2.087-19.055-19.312-19.956-25.277
			c-0.507-3.361,3.008-8.742,2.661-13.305c-0.663-8.721-7.778-20.903-19.956-18.625l0.665-5.322l-4.656-2.66
			c2.768-7.291,0.512-19.642-5.322-17.295l-5.987-0.666L456.326,662.537z"/>
		<path fill-rule="evenodd" clip-rule="evenodd" d="M458.321,692.472l3.326,4.656c0.683,2.493-15.547,4.956-17.295,3.991
			c-16.275-8.98,10.306-21.426,18.625-11.974L458.321,692.472z"/>
		<path fill-rule="evenodd" clip-rule="evenodd" d="M1145.471,717.084c0.803-4.959-3.401-8.415,0-11.974
			c7.946,5.425,12.038,10.244,13.305,14.634c0.837,2.902-1.939,7.699,0,10.644c3.18,4.829,16.895,9.844,21.286,9.313
			c4.895-0.592,21.047-20.224,26.607-5.321c-0.875-2.346-4.03,16.364-5.321,19.956c-2.473,6.881-10.442,8.434-6.652,18.625
			c-5.34-3.59-14.874-7.125-18.625,1.331c-0.906,2.041,4.103,6.337,3.991,9.313c-0.039,1.027-6.891,14.663-9.313,18.625
			c-7.282,11.914-19.837,28.15-26.608,27.938c-5.869-0.184-14.937-16.848-21.286-5.321c-1.614,2.931,3.72,4.101,3.991,7.982
			c0.617,8.831-21.41,29.382-25.277,35.921c-4.11,6.948,11.707,12.934,2.66,17.295c-3.895,1.878-24.637,0.555-27.938,3.991
			c-3.707,3.857-0.021,9.113-2.661,18.625c-3.299,11.886-13.655,16.85-9.313,27.938c-15.16,4.363-21.435,29.137-46.563,19.956
			c-2.663-0.973,1.08-4.844-1.33-6.651c-2.337-1.753-4.412,2.5-9.313,0c-0.913-0.466-2.334-5.261-2.661-5.322
			c-4.08-0.765-8.618,3.847-13.304,2.661c-11.841-2.995-7.564-12.273-3.991-19.956c2.368-5.093,2.86-14.512,5.321-17.295
			c0.728-0.823,4.297,0.529,5.321,0c7.112-3.676,11.016-19.085,21.287-25.277c6.839-4.124,13.502-4.518,21.286-9.313
			c2.916-1.797,9.804-5.729,10.643-6.651c0.574-0.632,0.283-5.809,1.331-6.652c1.239-0.998,5.58,1.138,6.651,0
			c2.233-2.372,1.297-7.198,2.661-9.313c2.865-4.442,7.535-4.988,9.313-9.313c3.566-8.676-0.473-9.938,7.982-14.634
			c11.911-6.614,3.246-35.735,25.277-29.269c-2.376,1.983-2.085,14.503,1.331,15.965c4.554,1.948,15.35-8.06,21.286-5.322
			c-3.876-1.787,6.924,4.969,5.321,5.322c6.982-1.541,11.737-17.139,7.982-22.617c-6.011-8.77-31.154-10.639-23.947-25.277
			c1.434-2.912,11.395-1.728,14.635-7.982c1.813-3.498,2.893-26.164,1.33-30.6c-5.335-15.144-17.505-30.195-25.277-41.242
			c-2.02-2.869-0.336-8.06-2.661-13.304c-0.149-0.337-17.445-20.979,0-15.965c3.964,1.139-1.113,5.429,3.991,10.644
			c3.308,3.378,11.52,2.202,14.635,3.991c1.95,1.12,7.63,5.908,9.313,9.313c1.591,3.218-0.275,9.067,1.331,13.304
			c2.102,5.545,7.698,5.989,3.99,13.305C1133.859,716.261,1137.944,711.747,1145.471,717.084z"/>
		<g>
			<path fill-rule="evenodd" clip-rule="evenodd" fill="none" stroke="#000000" stroke-width="6.29" stroke-linecap="round" d="
				M689.515,40.873c17.646,5.228,34.918,14.433,46.859,28.973"/>
			<path fill-rule="evenodd" clip-rule="evenodd" fill="none" stroke="#000000" stroke-width="8.6884" stroke-linecap="round" d="
				M781.85,108.186c-5.19-5.803-11.015-12.128-12.659-19.714"/>
			<path fill-rule="evenodd" clip-rule="evenodd" fill="none" stroke="#000000" stroke-width="6.9993" stroke-linecap="round" d="
				M840.678,133.173c6.414,6.878,15.027,9.559,22.274,14.976"/>
			<path fill-rule="evenodd" clip-rule="evenodd" fill="none" stroke="#000000" stroke-width="10.7516" stroke-linecap="round" d="
				M991.146,406.436c-10.634-3.567-19.817-10.201-29.047-16.408"/>
			<path fill-rule="evenodd" clip-rule="evenodd" fill="none" stroke="#000000" stroke-width="7.5193" stroke-linecap="round" d="
				M458.321,692.472c8.72,3.842,12.891-5.908,19.956-8.648"/>
			<path fill-rule="evenodd" clip-rule="evenodd" fill="none" stroke="#000000" stroke-width="10.4029" stroke-linecap="round" d="
				M449.807,677.837c6.265-3.28,14.056-4.691,12.505-14.635"/>
		</g>
	</g>
</g>
</svg>
