<?xml version="1.0" encoding="utf-8"?>
<!-- Generator: Adobe Illustrator 12.0.0, SVG Export Plug-In . SVG Version: 6.00 Build 51448)  -->
<!DOCTYPE svg PUBLIC "-//W3C//DTD SVG 1.1//EN" "http://www.w3.org/Graphics/SVG/1.1/DTD/svg11.dtd" [
	<!ENTITY ns_svg "http://www.w3.org/2000/svg">
	<!ENTITY ns_xlink "http://www.w3.org/1999/xlink">
]>
<svg  version="1.1" xmlns="&ns_svg;" xmlns:xlink="&ns_xlink;" width="612.076" height="1022.381" viewBox="0 0 612.076 1022.381"
	 overflow="visible" enable-background="new 0 0 612.076 1022.381" xml:space="preserve">
<g id="Layer_3_2_" opacity="0">
	<rect x="1.143" y="-0.693" fill="#C60000" width="610.47" height="1024.448"/>
</g>
<g id="Layer_1" display="none">
	<g id="Layer_1_1_">
		<rect x="-0.356" y="-1.309" display="inline" fill="#FF0000" stroke="#FF0000" width="613.469" height="1024"/>
	</g>
	<g id="Layer_2">
		<g display="inline">
			<g>
				<path fill="#FFFFFF" d="M253.877,1021.381c2.542-2.438-0.933-3.848,0-7.894c5.615-0.771,9.612-3.163,12.399-6.764
					c4.211-1.205,3.213,2.8,6.763,2.255c0.65-0.626,1.452-0.615,2.254-1.127c0.448-0.285,0.944-1.03,1.127-1.128
					c1.206-0.636,2.901-0.345,4.512-1.127c0.506-0.246,0.712-2.067,1.127-2.254c1.151-0.521,5.737,0.948,5.636-2.255
					c3.792,0.396,8.218,2.562,10.145-1.129c-1.695-3.297-4.674,0.037-6.764,0c-1.835-0.031-1.916-0.867-3.381-1.127
					c-3.449-0.607-6.081-0.076-10.146-1.129c-0.274-0.068-0.103-1.07-1.127-1.127c-2.604-0.137-3.357-0.217-5.636-1.127
					c-0.771-0.309-0.816-1-1.127-1.127c-1.507-0.619-3.104-0.258-4.509-1.128c-0.442-0.271-0.746-2.083-1.127-2.254
					c-0.489-0.221-1.875,0.354-2.254,0c-0.891-0.825-1.432-2.499-2.254-3.382c-1.492-1.594-2.831-4.197-4.512-5.638
					c-2.427-2.078-5.521-2.646-7.891-4.51c-0.355-0.278-0.803-2.105-1.127-2.255c-0.489-0.221-1.875,0.354-2.254,0
					c-0.976-0.904-0.667-3.091-2.254-3.382c-0.34-2.97,1.561-3.699,4.509-3.382c-1.031-6.483-7.451-7.578-9.021-13.526
					c-1.009-3.639,3.679-1.584,4.512-3.381c0.192-3.754-3.585-4.183-5.639-6.764c-0.313-0.396,0.377-1.945,0-2.255
					c-1.319-1.081-2.045-1.285-3.382-3.383c-0.243-0.383-0.755-3.077-1.127-3.383c-1.661-1.356,0.05-2.02-1.127-5.637
					c-0.179-0.551-2.063-0.702-2.254-1.127c-1.548-3.437,2.44-9.053,0-13.526c1.257-0.679,1.438-2.243,2.254-3.382
					c0.28-0.39,2.1-0.777,2.254-1.127c0.211-0.468-0.348-1.906,0-2.255c2.69-2.694,7.148-3.211,10.146-5.636
					c1.063-5.696,3.163-10.363,2.254-18.035c0.958,0.207,1.063-0.439,1.127-1.127c-0.356-4.49,5.214-3.054,5.636-6.766
					c2.156-1.979,4.047-4.22,4.509-7.892c4.686-1.704,7.123-5.65,10.146-9.019c0.264-7.402,0.009-14.287-3.382-18.034
					c-3.403-1.521-8.996-1.521-12.399,0c-1.687-1.878-3.854-2.776-5.636-4.51c-0.951-0.926-1.297-2.447-2.254-3.383
					c-0.767-0.745-2.2-0.803-2.254-2.255c-0.875-9.893,3.246-14.789,6.763-20.289c2.416-1.343,6.298-1.218,7.891-3.383
					c1.333-2.049,5.877-0.886,7.893-2.255c2.104-2.004-0.916-2.864,0-6.763c0.326-3.021,1.92-3.021,2.254-5.639
					c0.42-3.282-1.687-5.288-1.127-7.891c0.331-1.545,1.313-3.936,2.254-5.637c0.328-0.595,1.06,0.146,1.127-1.128
					c0.102-1.943,2.531-5.104,4.509-6.765c1.024-0.857,4.335-0.894,3.381-3.382c2.479-6.983-9.237,0.224-6.763-6.764
					c2.15-0.479,2.04-3.223,5.636-2.255c2.324,0.307,0.271,4.991,3.381,4.51c3.484-1.399,6.051-3.723,7.894-6.765
					c-0.021-3.362-2.934-3.833-3.382-6.765c-7.875-0.646-8.814,3.324-15.781,1.128c-4.051-4.593-2.871-14.414-4.509-21.417
					c3.192-1.498,7.612,1.278,12.396,2.254c1.998,0.406,4.662,0.776,6.765,1.128c7.338,1.225,11.919,0.513,16.906-4.51
					c-0.518-2.076,0.675-4.064,0-6.764c-0.11-0.453-1.129-1.446-1.127-1.127c-0.011-2.599,1.292-4.241,1.127-6.765
					c-0.256-3.917-1.709-7.662-2.254-11.271c-0.117-0.771,1.127-1.233,1.127-2.254c0-1.747-2.897-2.932-2.254-6.765
					c6.949,1.023,16.199,1.518,23.672-1.127c0.257-0.092,0.287-0.917,1.127-1.127c3.475-0.868,9.753-0.764,13.526-2.256
					c0.334-0.132,0.224-0.9,1.127-1.127c2.212-0.554,2.989-0.157,4.509-1.127c0.532-0.341,0.837-0.956,1.128-1.128
					c0.979-0.58,2.167-0.467,3.383-1.127c1.312-0.715,2.021-1.521,3.383-2.255c0.731-0.396,2.55-0.521,3.382-1.128
					c1.014-0.736,1.363-2.489,2.255-3.381c1.753-1.755,3.146-2.459,4.509-5.638c0.383-0.896,0.554-2.232,1.127-3.383
					c0.376-0.752,1.896-1.609,2.254-2.254c0.517-0.925-0.308-2.314,1.128-2.256c-1.028-5.109,1.027-8.261,2.256-11.271
					c1.405-3.456,0.729-5.555,0-11.271c-0.559-2.425-3.784-0.688-5.638-1.127c-2.785-0.663-2.621-1.061-4.509-2.255
					c-0.546-4.304,0.319-7.193,2.254-9.02c-1.141-2.271-2.398-3.282-4.509-4.509c-2.009-1.168-5.084-1.152-6.763-2.255
					c-0.948-0.621-0.989-1.621-2.257-2.255c-1.253-0.626-2.479-0.235-3.383-1.127c-1.62-1.604-2.788-3.554-2.254-6.765
					c6.234-1.351,3.936,5.837,9.021,5.638c5.644,0.188,8.401-1.667,13.523,0c0.387,0.125,0.021,1.067,1.127,1.127
					c4.084,0.216,7.321,2.073,11.272,3.383c2.753,2.854,2.398-2.378,6.764-1.128c4.113,1,6.003-1.99,7.893,0
					c4.231-1.776,6.688-5.332,11.271-6.764c0.826-4.088,2.734-6.604,4.509-10.146c0.674-1.341,0.479-2.213,1.127-3.381
					c0.331-0.596,1.063,0.146,1.128-1.128c-0.001,0.01,0.901-3.08,1.128-3.383c1.11-1.479,1.64-0.914,2.257-3.382
					c-0.014,0.043,1.027-3.304,1.127-3.382c0.146-0.121,1.04,0.155,1.127,0c0.802-1.439,1.293-3.146,2.255-4.51
					c1.095-1.552,2.04-1.885,3.381-3.382c0.935-1.041,1.495-3.087,3.382-3.383c0.708-2.226,1.069-4.396,2.257-6.764
					c0.375-0.753,1.896-1.608,2.255-2.255c0.229-0.413-0.35-1.972,0-2.254c0.175-0.145,1.003,0.177,1.128,0
					c0.283-0.406-0.37-1.953,0-2.256c0.942-0.773,2.515-0.333,3.381-1.127c2.214-2.026,3.519-4.503,5.637-7.892
					c0.388-0.62,1.062,0.171,1.127-1.128c0.026-0.497,0.843-1.67,1.127-2.255c2.802-5.737,2.626-11.505,6.767-18.035
					c0.682-2.698,1.619-5.144,1.127-9.019c1.146-0.731,1.166-2.592,3.382-2.255c1.104-3.774,4.854-2.897,6.763-5.636
					c0.283-0.406-0.368-1.953,0-2.256c1.099-0.896,0.905-1.531,1.128-3.382c0.04-0.337-0.229-2.063,0-2.255
					c2.376-1.943-0.882-8.852,0-14.653c0.144-2.245-1.475-3.369-2.255-4.51c-1.198-1.75-1.668-0.418-2.254-4.509
					c-0.979-6.826,4.755-12.302,4.509-19.163c6.316-1.197,7.043-7.985,11.271-11.271c0.786-2.973,5.132-2.384,5.637-5.638
					c1.688-1.691,2.017-4.746,4.509-5.636c1.816-1.685,5.651,0.973,10.146,0c4.563-0.696,4.728-5.793,7.891-7.892
					c3.438,0.056,5.739-1.023,6.764-3.382c5.018,0.882,6.768-1.502,11.271-1.128c2.958,0.417,2.834-3.179,4.509-4.51
					c0.486-0.387,1.425,0.017,1.127-1.127c2.077-0.519,4.066,0.675,6.766,0c0.772-0.192,1.008-1.104,1.127-1.127
					c2.481-0.505,6.172-0.42,7.892-1.127c4.356-1.79,6.53-5.664,10.146-7.892c1.163-5.298,0.24-10.274,1.127-14.653
					c0.033-0.171,1.077-0.187,1.127-1.127c0.058-1.078,2.067-3.225,1.128-6.764c0.689-1.563,4.34-0.17,4.509-2.254
					c1.311-2.396,1.077-4.324,2.255-6.765c0.597-1.235,1.621-1.347,2.254-2.255c0.283-0.406-0.368-1.953,0-2.254
					c2.281-1.866,2.067-7.646,3.382-12.398c0.465-1.678,1.652-4.733,1.129-9.019c-0.229-1.888-1.322-2.501-1.129-4.51
					c0.389-3.944,2.773-7.226,3.384-11.271c0.854-5.676,0.909-13.527,0-19.163c-0.935-5.772-3.736-10.189-5.638-15.779
					c1.271-6.416,3.047-11.127,1.127-18.035c1.506-1.878,6.389-0.378,7.894-2.255c1.712-3.548,3.362-7.156,4.509-11.271
					c5.171-3.095,8.899-7.632,10.146-14.652c2.136,0.114,2.028-3.251,4.51-3.383c0.565-0.029,5.533-3.695,5.638-5.637
					c0.091-1.728,4.857-6.127,6.763-7.892c3.731-3.456,5.521-4.703,7.893-10.146c0.839-1.923,1.863-3.997,2.256-5.636
					c0.306-1.285,1.217-2.409,1.127-3.381c0.006,0.063-1.087-0.368-1.127-1.128c-0.052-0.948,1.278-5.506,1.127-6.763
					c-0.517-4.225-4.146-7.798-4.51-12.398c-0.151-1.923,3.297-11.751,1.128-13.526c-0.133-0.106-1.063,0.143-1.128,0
					c-0.193-0.407,0.327-1.983,0-2.254c-0.151-0.125-1.034,0.16-1.127,0c-0.239-0.413,0.352-1.967,0-2.254
					c-0.479-0.394-1.867-0.659-2.256-1.127c-0.319-0.389,0.38-1.943,0-2.254c-1.144-0.936-4.265-1.334-5.637-3.382
					c-7.647-0.135-13.077,1.952-21.417,1.128c-0.685-2.441-2.782-1.012-4.509-2.255c-2.354-1.694-4.51-5.734-7.892-7.891
					c-1.073-0.686-4.419-2.563-6.766-3.383c-1.48-0.52-4.099-0.396-5.636-1.127c-0.651-0.311-0.594-1.854-1.127-2.254
					c-0.4-0.3-1.949,0.374-2.255,0c-0.135-0.164,0.17-1.019,0-1.127c-0.41-0.266-1.959,0.36-2.254,0
					c-0.241-0.294-0.851-2.104-1.129-2.254c-0.411-0.225-1.975,0.344-2.255,0c-0.106-0.133,0.143-1.062,0-1.127
					c-0.407-0.194-1.983,0.328-2.256,0c-2.731-3.343-8.443-1.908-14.65-1.127c-1.85,0.229-3.797-0.271-5.64,0
					c-1.706,0.248-4.934,2.088-9.018,1.127c-0.945-0.223-1.111-1-2.254-1.127c-4.104-0.456-6.166,0.075-10.146-1.128
					c-1.496-0.452-2.367-0.417-5.636-1.127c-0.938-0.205-1.104-1.072-2.254-1.127c-3.589-0.169-7.403,1.858-11.271,1.127
					c0.434-3.813-4.988-1.773-3.384-6.766c-2.063-1.313-3.813-2.944-5.636-4.509c-3.91-0.902-4.333,1.681-7.891,1.127
					c-2.573-3.813-7.365-5.41-13.526-5.636c-1.229-4.03-6.752-3.77-9.019-6.764c-1.784,0.095-4.301-0.542-4.51,1.127
					c-2.646-0.358-2.521-3.487-4.51-4.509c-2.255,0-4.509,0-6.764,0c-3.947,0.188-3.552-3.968-5.639-5.638
					c-1.938-0.42-2.487,1.745-4.509,1.127c-0.896-0.272-0.742-2.08-2.255-2.254c-1.059-0.122-0.813-1.063-1.127-1.127
					c-1.247-0.25-2.385,2.118-4.509,2.254c-2.451,0.157-3.854-0.381-6.767-1.127c-0.729-4.484,2.983-4.532,2.256-9.019
					c0.056-4.972-6.479-5.281-9.019-9.02c-0.525-9.243-5.158-14.38-6.764-22.544c-1.329-1.842-2.896-4.007-4.512-5.636
					c-2.806-2.831-6.469-4.804-9.018-7.892c-3.415,1.297-4.737,0.912-7.891-1.127c-0.625-0.404,0.176-1.061-1.127-1.128
					c-0.354-0.02-5.166-0.646-6.767-1.127c-1.82-0.547-3.099-2.019-4.509-2.255c-0.898-0.148-5.125,0.625-5.636,0
					c-1.506-1.84-2.746-0.05-6.767,0c-2.607,0.033-5.4-1.232-7.891-1.127c-8.772,0.378-17.309,3.475-27.053,2.255
					c-0.603-1.313-2.352-1.361-3.383-2.255c-1.662-1.438-3.5-3.446-5.638-5.636c-0.746-0.765-0.802-2.2-2.255-2.254
					c-1.822-1.841-4.714,1.006-9.018,0c0.453-6.458-4.566-8.49-9.021-11.271c-0.62-0.389,0.171-1.06-1.127-1.128
					c-1.498-0.078-1.764-2.169-3.382-2.254c-0.758-0.04-5.17-1.299-5.636-3.382c-1.501-1.128-3.402-1.856-4.511-3.381
					c-3.692,0.063-4.31,3.206-9.019,2.254c-0.332-3.257-2.154-3.114-2.254-5.637c-0.059-1.458,3.505-2.933,1.127-4.509
					c-3.604-1.046-5.377-3.768-9.018-4.511c-2.016-0.41-3.144,1.162-5.639,1.128c-2.168-0.029-3.483-2.3-5.636-1.128
					c-1.132-1.497-1.065-4.192-3.382-4.509c-0.884-5.018,6.046-2.221,5.636-6.764c-4.009-2.114-8.162,0.669-12.396,1.127
					c0.729-0.078-1-1.096-1.128-1.127c-1.293-0.322-4.346-0.324-5.638,0c-0.627,0.158-1.016,3.599-4.509,2.255
					c-0.107-0.9-1.264-1.142-1.127-2.255c0.036-0.291,2.897-3.671,0-4.509c-2.656,1.102-7.149,0.362-6.763,4.509
					c4.391,1.137,0.174,3.881,1.127,7.892c-1.681,0.494-4.021-0.652-5.638,0c-0.958,0.388-0.655,2.16-2.255,2.254
					c-1.742,0.104-2.039-0.756-3.382-1.127c-1.461-0.402-3.298,0.57-3.381-1.127c-1.993-1.014-3.291-2.722-5.636-3.382
					c-1.81,1.901-4.441,0.521-6.765,1.127c-0.375,0.099-2.03-0.271-2.255,0c-0.767,0.938-0.804,1.968-2.254,2.255
					c-3.634,0.719-7.466-0.285-11.271,1.127c-2.613,0.382-3.283-3.088-4.511-4.509c-0.875-1.015-1.202-1.396-2.255-2.254
					c-0.546-0.446-1.724-1.988-2.255-2.255c-1.183-0.592-3.229,0.39-4.509,0c-0.423-0.129-2.043-2.226-2.254-2.254
					c-2.417-0.339-5.409,0.416-7.892,1.127c-2.484-2.774-1.483-9.035-6.765-9.02c-4.51,0.75-4.928,5.593-4.509,11.271
					c-2.254-0.845-2.489,1.889-3.381,2.255c-1.563,0.642-4.47-0.956-4.51,1.127c-1.2,0.81-5.191,4.4-6.766,1.127
					c-7.305-5.83,6.84-9.421,3.383-14.652c0.346-2.098-3.736-0.187-4.51-1.128c-0.591-0.722-3.434-2.117-5.636,0
					c-1.327,1.53-2.425,1.624-3.381,3.383c-0.816,1.5-0.654,2.771-1.127,4.51c-3.015-0.124-5.739,1.229-7.893,3.381
					c-0.323,0.324-0.784,2.067-1.127,2.255c-1.037,0.563-3.976,0.355-5.637,1.127c-0.538,0.25,0.104,1.063-1.127,1.127
					c-0.55,0.028-1.604,0.843-2.254,1.127c-2.616,1.146-6.854,0.715-7.893,4.509c-2.63,0-5.26,0-7.892,0
					c-1.28,1.369-1.973,1.812-3.381,3.383c-2.419,2.699-3.314,4.548-4.509,10.146c-0.359,1.687-1.387,3.664-1.128,5.636
					c0.83,2.388-1.422,1.518-2.254,2.254c-1.211,1.076-2.761,3.646-4.51,5.638c-2.042,2.324-4.872,4.533-5.637,7.892
					c-2.355,2.457-3.217-0.563-6.763,0c-4.187,3.562,5.217,6.894,1.127,10.146c1.737,4.742-5.833,0.179-5.637,3.382
					c0.098,1.601,0.187,3.19-1.128,3.382c-0.869,1.958,0.823,2.725,1.128,3.382c0.32,0.693,0.563,2.56,1.127,3.382
					c1.244,1.813,3.614,2.356,4.51,4.509c-0.971,6.01,2.697,9.648-1.127,12.399c1.729,3.081,2.399,6.767,3.382,10.146
					c0.278,0.963-0.428,2.48,0,3.382c0.354,0.75,3.872,2.4,2.254,6.764c-1.753,4.007,3.828,0.68,3.381,3.382
					c0.975,5.48-3.227,5.791-2.254,11.271c-2.604,0.819-5.16,2.228-7.892,3.381c-0.501,0.213,0.073,1.063-1.127,1.127
					c-2.958,0.156-4.736,0.122-6.764,2.255c0.67,2.335-1.395,7.404,1.127,7.891c-2.01,2.5-4.438,4.579-3.381,10.146
					c-4.99,1.396-10.327,2.449-13.526,5.637c0,3.006,0,6.012,0,9.02c-1.229,1.235-2.646,2.834-3.382,4.509
					c-0.227,0.517-1.063-0.085-1.127,1.127c-0.079,1.499,0.063,3.01,0,4.51c-0.149,4.357-4.571,4.445-5.637,7.892
					c2.321,4.488,0.352,9.631,0,14.653c1.382,1.653,3.007,1.479,4.51,2.254c0.573,0.296-0.133,1.063,1.127,1.127
					c0.938,0.05,1.81,1.598,3.383,1.127c0.125,2.761,3.728,0.239,3.382-1.127c3.075-0.819,2.269,2.24,4.509,2.255
					c0.054,1.977-0.211,3.487-1.127,4.511c-0.326,0.362-1.947-0.376-2.254,0c-0.403,0.491-0.65,1.851-1.127,2.254
					c-0.387,0.326-1.943-0.38-2.255,0c-0.934,1.142-3.03,2.707-4.51,4.51c-0.529,0.646,0.364,2.61,0,3.381
					c-0.479,1.008-4.069,2.041-4.509,4.509c-1.389,3.351,2.136,3.381,2.254,5.638c0.017,0.299-0.109,0.853,0,1.127
					c0.533,1.335,0.819,6.641,3.382,9.019c1.205,4.211-2.799,3.213-2.254,6.764c1.303,2.509,3.505,4.407,6.764,5.637
					c0.397,0.148,2.006-0.307,2.255,0c0.754,0.921,0.858,0.776,2.254,1.127c-0.042-0.012,3.303,1.03,3.381,1.127
					c1.234,1.51,2.699,2.796,5.637,3.382c1.34,3.545,3.806,5.964,4.51,10.146c2.772,2.11,6.243,3.524,9.019,5.637
					c-0.448,3.196,2.756,4.261,3.381,6.764c0.745,2.979,0.582,4.14,2.254,6.763c0.34,0.532,0.955,0.838,1.128,1.128
					c1.024,1.73,2.057,3.346,3.381,5.636c0.563,0.97,0.473,2.184,1.127,3.383c0.396,0.724,1.915,1.622,2.255,2.254
					c0.679,1.261,0.567,2.239,1.127,3.382c0.959,1.961,3.444,3.95,2.255,6.764c1.86,0.409,2.229,2.257,3.382,3.382
					c1.285,1.257,2.202,1.946,3.382,3.382c1.624,1.978,4.844,4.221,4.51,7.893c5.192,3.072,6.855,9.676,11.271,13.524
					c0.537,4.99-1.552,5.604,0,9.02c0.2,1.368,1.38,1.539,2.254,2.254c0.714,0.584,1.552,1.747,2.254,2.254
					c0.854,0.617,2.432,0.414,3.382,1.127c1.344,1.008,3.595,5.036,5.637,6.764c0.896,0.758,2.358,0.359,3.383,1.127
					c1.48,1.111,0.915,1.64,3.383,2.256c0.992,0.248,1.933,0.766,3.381,1.127c1.816,0.454,1.534,2.095,3.382,3.383
					c0.406,0.282,1.953-0.369,2.254,0c1.289,1.574,2.5,0.123,4.51,1.127c0.317,0.158,0.932,2.207,1.127,2.254
					c2.407,0.588,4.51-0.736,6.766,0c0.387,0.126,0.018,1.068,1.127,1.127c1.166,0.063,3.233,1.356,5.636,2.254
					c2.634,0.983,4.931,2.409,7.892,2.255c2.974,2.663,4.825,6.445,11.271,5.636c0.944,2.676,0.718,5.146,2.254,6.766
					c1.835,1.933,5.654,0.621,6.764,3.381c-0.271,1.313,1.998,1.613,2.255,2.254c0.362,0.91-0.481,2.538,0,3.383
					c0.364,0.64,1.845,0.58,2.255,1.127c0.3,0.399-0.374,1.948,0,2.255c2.214,1.813,1.823,10.351,5.636,13.525
					c-1.646,2.11-0.045,7.471-2.254,9.019c2.237,3.919,1.933,7.495,3.381,12.398c0.573,1.939,1.888,3.266,1.127,6.764
					c-0.199,0.914-1.147,1.123-1.127,2.254c0.021,1.106,1.26,2.431,1.127,4.511c-0.126,1.979-0.896,2.438-1.127,4.509
					c-0.07,0.627,0.883,6.042,0,6.765c-0.132,0.107-1.063-0.142-1.127,0c-0.194,0.408,0.329,1.984,0,2.254
					c-0.81,0.661-1.448,2.93-1.127,6.765c0.301,3.597,2.031,6.836,3.382,10.146c0.439,12.756-1.854,20.843,0,31.563
					c-1.29,0.784-0.271,1.683-1.127,3.382c-0.285,0.564-1.063-0.125-1.127,1.128c-0.049,0.923-1.264,1.115-1.127,2.255
					c1.465,4.893-0.719,7.814-1.127,13.524c-0.103,1.41,0.338,3.144,0,4.511c-0.063,0.258-1.074,0.119-1.127,1.127
					c-0.022,0.426,0.288,3.146,0,3.383c-1.512,1.235-2.878,2.69-2.254,7.89c0.041,0.339-0.231,2.065,0,2.256
					c1.458,1.192,2.849,4.063,2.254,9.02c-0.041,0.337,0.229,2.063,0,2.255c-1.186,0.969-0.726,1.523-1.127,3.381
					c-0.205,0.939-1.073,1.104-1.127,2.255c-0.119,2.503,0.874,2.817,1.127,4.51c0.312,2.084-0.667,4.097,0,6.766
					c0.372,1.486,1.998,1.768,2.254,3.381c1.149,7.25-1.342,13.23,3.381,18.036c-1.235,5.335-0.938,9.403,0,15.779
					c0.21,1.429-0.366,3.116,0,4.51c0.075,0.285,1.073,0.097,1.127,1.128c0.166,3.156-2.607,6.271-3.382,10.145
					c-0.414,1.947-3.408,6.971-1.127,7.894c-1.109,2.488-3.44,4.102-4.509,6.763c-1.568,3.906-0.994,8.776-2.256,12.398
					c-0.828,2.385-2.479,4.823-3.382,6.765c-0.625,1.339-2.332,0.783-2.255,3.382c0.027,0.923,1.612,1.815,1.127,3.382
					c-0.894,1.29-3.188,1.329-4.509,2.254c-1.488,1.046-2.069,1.984-3.381,3.384c0.129,3.609,2.759,6.176,3.381,10.146
					c0.185,1.175-1.141,8.085,0,9.02c2.486,2.032,0.926,1.241,2.254,5.638c0.492,1.625,2.913,6.685,3.383,10.145
					c0.413,2.026-1.609,3.233-2.255,4.511c-0.917,1.817-0.542,3.126-2.254,4.51c3.297,8.357-3.798,22.41,3.381,28.181
					c0.044,2.146-2.744,2.053-3.381,3.382c-0.448,0.938,0.707,3.805,0,4.511c-0.078,0.075-1.111-0.087-1.127,0
					c-0.429,2.324,1.18,6.2,1.127,9.019c-0.086,4.709-1.957,7.063-2.254,11.271c-0.344,2.101,3.738,0.188,4.509,1.13
					c0.427,0.521,2.34,1.885,5.637,1.128c1.163-0.006,0.791-1.413,1.128-2.258c0.137-0.339,3.892-3.539,1.128-4.509
					c1.186-4.94-3.813-3.702-3.384-7.891c-0.299-3.68,4.374-2.389,4.511-5.636c-0.511-3.871-3.261-10.835,2.254-11.271
					c5.314-1.56,2.451,5.063,5.636,5.636c0.962,2.416-2.665,3.583-2.254,5.639c0.052,0.259,1.431-0.006,1.127,1.127
					c-0.498,1.854,0.053,4.853-3.381,5.637c1.657,1.672,0.836,4.425,1.127,6.763c0.277,2.232,1.214,4.936,1.127,6.767
					c-0.164,3.471-1.339,6.236-2.254,9.018c1.631,1.751,1.503,5.261,3.381,6.766c2.746,0.637,5.798,0.966,5.636,4.51
					c0.338,7.967-11.933,5.057-7.891,13.523c-1.958-0.869-2.727,0.822-3.381,1.128c-0.829,0.385-2.359,0.531-3.384,1.127
					c-1.658,0.968-2.445,4.184-5.637,3.384c-0.115,3.497,3.547,3.217,2.256,7.891c-4.304-0.546-7.193,0.318-9.019,2.255
					c-0.904,3.909,1.679,4.332,1.127,7.892c-3.534-0.526-3.178,2.835-4.509,4.51c-1.957,1.023-2.914,3.949-1.127,5.637
					c0.849,0.357,1.903,1.486,3.382,1.127c1.22-0.297,0.769-2.229,2.254-2.254c0.485-2.521,5.556-0.457,7.892-1.128
					c1.997,1.916,0.533,5.104,1.127,7.891c0.45,2.121,3.442,3.308,1.127,4.511c-2.418,2.092-6.005,3.014-10.146,3.383
					c-0.415,1.916,0.879,2.127,2.254,2.254c0.317,1.82-1.063,1.938-1.127,3.382c-0.332,2.299-3.05,2.211-3.381,4.509
					c0.805,3.801,2.372,7.075,3.381,10.146c0.758,2.305,0.072,3.508,1.127,5.636c0.643,1.295,1.933,1.886,2.254,3.382
					c0.396,1.835-1.261,1.942-1.127,3.382c-0.006-0.063,1.087,0.368,1.127,1.128c0.047,0.877,1.345,1.168,1.127,2.255
					c-0.015,0.077-1.021,0.321-1.127,1.128c-0.479,3.633,1.461,5.224,2.254,9.019c-0.432,2.296,1.344,2.435,2.255,3.382
					c0.729,0.756,1.146,1.875,2.254,2.254c1.274,3.539-0.322,2.979,1.127,5.638c1.827,3.435,5.659,4.859,6.765,9.02
					c-2.613,5.88-2.941,14.538,1.127,20.289c0.923,1.306,4.389,1.849,3.382,4.509c-0.135,3.247,0.616,7.379-1.127,9.02
					c0.376,4.134,4.467,4.553,3.382,10.146c-0.024,1.67,2.329,0.495,3.383,1.127c1.188,0.713,2.893,4.563,7.892,3.384
					c0.546,1.107-0.713,3.521,0,4.509c-0.147-0.204,6.705,2.172,6.763,2.255c0.222,0.313-0.304,2.089,0,2.255
					c0.548,0.299,1.642-0.153,2.254,0c0.938,0.231,0.805,1.029,1.127,1.127c3.227,0.967,7.34,0.559,11.272,1.128
					c-0.132,3.89,2.271,5.239,6.763,4.509c0.729,4.908,5.862,5.409,6.765,10.146c2.177,0.508,4.153,1.211,6.765,2.256
					c0.1,0.039,4.306,0.896,4.509,1.127c0.366,0.416-0.38,1.854,0,2.254c0.077,0.082,2.415,2.305,2.254,2.255
					c0.833,0.26,3.074-2.633,5.636-2.255c0.54,0.08,0.738,2.069,1.127,2.255c2.161,1.022,6.729-0.095,10.146,1.127
					c0.395,0.144,2.01-0.299,2.254,0c0.738,0.901-0.479,2.17,1.127,2.255c0.945,0.052,1.073,0.242,1.127,1.127
					c-84.541,0-169.082,0-253.623,0C-2,680.587-2,339.793-2-1c204.025,0,408.05,0,612.076,0c0,340.793,0,681.587,0,1022.381
					C491.344,1021.381,372.61,1021.381,253.877,1021.381z M189.626,12.526C185.829,9.103,186.208,16.694,189.626,12.526
					L189.626,12.526z"/>
				<path fill="#FFFFFF" d="M107.339,28.308c3.395-1.382,3.807,2.676,5.639,4.509c0.153,0.155,2.229,1.042,2.254,1.127
					c0.65,2.431-2.61,5.553-1.127,9.021c-1.603-0.1-3.192-0.188-3.382,1.127C104.153,43.816,101.304,31.244,107.339,28.308z"/>
				<path fill="#FFFFFF" d="M154.683,880.479c-0.655,2.866-4.076,5.936-6.767,3.382
					C147.742,880.159,152.522,878.449,154.683,880.479z"/>
				<path fill="#FFFFFF" d="M155.81,894.006c0.091,4.224,0.854,9.121-4.512,7.891C151.21,897.673,150.446,892.775,155.81,894.006z"
					/>
				<path fill="#FFFFFF" d="M227.951,952.618c2.254,0,4.509,0,6.763,0c0.969,3.6-1.771,3.486-2.254,5.639
					C229.29,958.046,227.658,956.296,227.951,952.618z"/>
				<path fill="#FFFFFF" d="M202.025,963.893c0.167,4.301-2.838,5.429-3.382,9.019c-4.906-1.146-5.186,2.331-7.894,3.384
					c-3.43-0.702-5.762-2.506-5.636-6.766c3.498,0.116,3.217-3.547,7.89-2.255c1.764,0.251,0.377-2.619,1.127-3.382
					c0.483-0.491,2.725,0.283,3.385,0c0.51-0.219-0.108-1.122,1.127-1.127C200.465,962.759,200.583,963.594,202.025,963.893z"/>
				<path fill="#FFFFFF" d="M209.916,963.893c1.879,0.001,3.758,0,5.639,0c0.146,3.906-0.974,6.544-5.639,5.637
					C209.916,967.65,209.916,965.771,209.916,963.893z"/>
				<path fill="#FFFFFF" d="M211.043,974.035c2.868,0.141,4.371,1.644,4.512,4.512c-1.506,0-3.009,0-4.512,0
					C211.043,977.044,211.043,975.541,211.043,974.035z"/>
				<path fill="#FFFFFF" d="M223.442,975.162c-0.211,3.174-1.961,4.806-5.636,4.512c0-1.127,0-2.254,0-3.383
					C219.115,975.347,220.828,974.806,223.442,975.162z"/>
				<path fill="#FFFFFF" d="M235.842,1003.346c-0.354,3.775-7.13,1.137-7.891,4.509c-3.224-0.158-2.062-4.702-2.254-7.891
					c1.785-0.097,4.299,0.542,4.509-1.127C234.063,998.361,233.594,1002.213,235.842,1003.346z"/>
			</g>
		</g>
	</g>
</g>
<g id="Layer_2_1_">
	<g id="Layer_3">
		<path d="M255.877,1022.381c-0.751,0-1.503,0-2.254,0c-0.054-0.888-0.182-1.077-1.127-1.127c-1.604-0.086-0.389-1.354-1.127-2.258
			c-0.245-0.299-1.86,0.145-2.254,0c-3.416-1.222-7.984-0.104-10.145-1.127c-0.392-0.185-0.59-2.175-1.127-2.255
			c-2.563-0.378-4.806,2.518-5.639,2.255c0.161,0.053-2.177-2.173-2.254-2.255c-0.38-0.396,0.366-1.838,0-2.254
			c-0.203-0.229-4.409-1.087-4.509-1.127c-2.609-1.044-4.588-1.748-6.763-2.255c-0.901-4.735-6.036-5.236-6.767-10.146
			c-4.487,0.731-6.896-0.616-6.763-4.509c-3.934-0.566-8.048-0.161-11.272-1.128c-0.321-0.097-0.19-0.894-1.127-1.127
			c-0.611-0.153-1.707,0.299-2.254,0c-0.304-0.166,0.224-1.942,0-2.254c-0.058-0.083-6.91-2.459-6.763-2.255
			c-0.713-0.989,0.546-3.399,0-4.509c-5,1.181-6.702-2.669-7.89-3.383c-1.056-0.634-3.409,0.543-3.385-1.129
			c1.085-5.594-3.005-6.013-3.382-10.146c1.743-1.64,0.993-5.771,1.127-9.02c1.007-2.659-2.458-3.202-3.382-4.51
			c-4.067-5.751-3.74-14.408-1.127-20.289c-1.104-4.155-4.938-5.585-6.763-9.019c-1.452-2.657,0.146-2.098-1.127-5.637
			c-1.109-0.379-1.527-1.497-2.254-2.254c-0.911-0.947-2.688-1.087-2.255-3.384c-0.794-3.795-2.734-5.386-2.256-9.018
			c0.106-0.806,1.112-1.05,1.128-1.128c0.219-1.086-1.08-1.377-1.128-2.254c-0.039-0.761-1.133-1.192-1.127-1.127
			c-0.133-1.439,1.523-1.548,1.127-3.384c-0.319-1.495-1.61-2.088-2.254-3.383c-1.055-2.128-0.37-3.331-1.127-5.636
			c-1.009-3.07-2.577-6.346-3.381-10.146c0.332-2.3,3.05-2.212,3.381-4.511c0.063-1.438,1.445-1.561,1.127-3.382
			c-1.375-0.127-2.669-0.337-2.254-2.254c4.142-0.369,7.729-1.291,10.146-3.382c2.313-1.203-0.679-2.39-1.127-4.51
			c-0.596-2.788,0.869-5.977-1.128-7.893c-2.335,0.671-7.404-1.393-7.893,1.128c-1.484,0.026-1.035,1.957-2.254,2.255
			c-1.477,0.358-2.533-0.77-3.382-1.128c-1.787-1.687-0.83-4.607,1.127-5.637c1.331-1.674,0.975-5.036,4.509-4.509
			c0.553-3.56-2.03-3.98-1.127-7.892c1.823-1.937,4.715-2.802,9.02-2.256c1.293-4.674-2.37-4.393-2.256-7.891
			c3.188,0.8,3.978-2.416,5.638-3.382c1.021-0.597,2.553-0.743,3.382-1.128c0.657-0.306,1.423-1.996,3.381-1.127
			c-4.042-8.472,8.229-5.562,7.892-13.525c0.161-3.544-2.892-3.873-5.637-4.509c-1.878-1.505-1.75-5.015-3.381-6.766
			c0.915-2.777,2.09-5.547,2.254-9.019c0.086-1.831-0.85-4.531-1.127-6.764c-0.291-2.339,0.53-5.092-1.127-6.765
			c3.437-0.783,2.883-3.778,3.381-5.638c0.305-1.132-1.075-0.868-1.127-1.127c-0.411-2.053,3.216-3.22,2.254-5.636
			c-3.186-0.572-0.318-7.195-5.636-5.637c-5.514,0.438-2.763,7.398-2.254,11.271c-0.135,3.247-4.809,1.956-4.509,5.636
			c-0.434,4.188,4.565,2.947,3.382,7.893c2.764,0.97-0.992,4.171-1.127,4.51c-0.336,0.842,0.036,2.251-1.127,2.255
			c-3.298,0.757-5.21-0.606-5.638-1.127c-0.771-0.942-4.854,0.97-4.51-1.128c0.297-4.209,2.168-6.563,2.254-11.271
			c0.053-2.813-1.556-6.689-1.127-9.019c0.019-0.085,1.051,0.077,1.127,0c0.707-0.707-0.447-3.572,0-4.509
			c0.639-1.329,3.427-1.239,3.382-3.383c-7.18-5.771-0.084-19.819-3.382-28.183c1.714-1.383,1.337-2.688,2.254-4.509
			c0.646-1.274,2.669-2.481,2.256-4.509c-0.471-3.46-2.892-8.521-3.384-10.146c-1.326-4.394,0.232-3.603-2.254-5.637
			c-1.141-0.934,0.187-7.843,0-9.019c-0.622-3.972-3.252-6.532-3.381-10.146c1.313-1.396,1.895-2.338,3.381-3.382
			c1.32-0.926,3.615-0.964,4.51-2.254c0.484-1.565-1.101-2.459-1.128-3.383c-0.075-2.6,1.632-2.044,2.256-3.383
			c0.902-1.938,2.553-4.381,3.383-6.765c1.26-3.622,0.686-8.493,2.254-12.398c1.065-2.66,3.397-4.271,4.509-6.764
			c-2.281-0.922,0.713-5.941,1.127-7.891c0.774-3.873,3.548-6.987,3.382-10.146c-0.054-1.029-1.052-0.842-1.127-1.128
			c-0.366-1.391,0.21-3.081,0-4.509c-0.937-6.376-1.234-10.444,0-15.779c-4.723-4.806-2.229-10.786-3.381-18.036
			c-0.256-1.611-1.882-1.895-2.254-3.382c-0.667-2.668,0.312-4.68,0-6.764c-0.253-1.69-1.247-2.006-1.127-4.509
			c0.055-1.149,0.923-1.314,1.127-2.256c0.403-1.855-0.058-2.411,1.127-3.381c0.23-0.188-0.041-1.919,0-2.256
			c0.595-4.957-0.796-7.823-2.254-9.019c-0.231-0.188,0.041-1.917,0-2.255c-0.624-5.198,0.743-6.653,2.254-7.892
			c0.288-0.234-0.021-2.957,0-3.383c0.053-1.008,1.063-0.869,1.127-1.127c0.338-1.367-0.101-3.099,0-4.51
			c0.408-5.71,2.592-8.634,1.127-13.525c-0.136-1.139,1.079-1.332,1.127-2.255c0.066-1.253,0.842-0.563,1.127-1.128
			c0.856-1.698-0.163-2.596,1.127-3.381c-1.854-10.72,0.439-18.807,0-31.563c-1.351-3.311-3.081-6.548-3.382-10.146
			c-0.32-3.834,0.319-6.104,1.127-6.763c0.329-0.271-0.193-1.847,0-2.255c0.066-0.142,0.995,0.106,1.127,0
			c0.883-0.723-0.068-6.138,0-6.765c0.232-2.067,1.001-2.527,1.127-4.51c0.133-2.08-1.104-3.401-1.127-4.509
			c-0.021-1.132,0.93-1.342,1.127-2.255c0.762-3.498-0.554-4.822-1.127-6.764c-1.449-4.904-1.144-8.479-3.381-12.397
			c2.209-1.548,0.607-6.906,2.254-9.02c-3.811-3.178-3.422-11.715-5.636-13.524c-0.374-0.308,0.3-1.854,0-2.256
			c-0.411-0.548-1.892-0.487-2.254-1.127c-0.482-0.845,0.362-2.473,0-3.383c-0.257-0.643-2.527-0.94-2.254-2.254
			c-1.109-2.762-4.931-1.45-6.766-3.382c-1.535-1.616-1.31-4.088-2.254-6.764c-6.444,0.812-8.299-2.975-11.271-5.637
			c-2.96,0.154-5.258-1.271-7.893-2.255c-2.398-0.896-4.471-2.191-5.636-2.254c-1.108-0.06-0.74-1.001-1.127-1.127
			c-2.256-0.736-4.354,0.588-6.764,0c-0.197-0.049-0.812-2.096-1.128-2.254c-2.011-1.005-3.222,0.447-4.511-1.128
			c-0.302-0.368-1.848,0.283-2.254,0c-1.848-1.287-1.563-2.928-3.382-3.382c-1.449-0.361-2.388-0.879-3.381-1.127
			c-2.467-0.617-1.898-1.144-3.382-2.256c-1.022-0.768-2.487-0.369-3.383-1.127c-2.042-1.728-4.293-5.756-5.638-6.764
			c-0.949-0.713-2.525-0.512-3.382-1.127c-0.703-0.507-1.54-1.67-2.254-2.254c-0.875-0.716-2.054-0.886-2.254-2.254
			c-1.551-3.412,0.537-4.026,0-9.02c-4.416-3.852-6.079-10.453-11.271-13.525c0.334-3.67-2.887-5.915-4.511-7.892
			c-1.18-1.436-2.097-2.125-3.382-3.382c-1.148-1.125-1.521-2.974-3.382-3.382c1.19-2.813-1.295-4.804-2.254-6.764
			c-0.56-1.143-0.449-2.122-1.127-3.382c-0.341-0.632-1.858-1.53-2.255-2.255c-0.656-1.198-0.565-2.412-1.127-3.382
			c-1.325-2.29-2.355-3.903-3.381-5.636c-0.174-0.291-0.788-0.596-1.128-1.127c-1.673-2.624-1.51-3.783-2.255-6.764
			c-0.625-2.503-3.828-3.565-3.381-6.764c-2.772-2.11-6.244-3.524-9.019-5.637c-0.703-4.182-3.168-6.601-4.509-10.146
			c-2.938-0.586-4.4-1.873-5.638-3.382c-0.078-0.097-3.424-1.139-3.381-1.127c-1.395-0.35-1.5-0.206-2.254-1.128
			c-0.249-0.305-1.854,0.149-2.254,0c-3.259-1.229-5.461-3.128-6.764-5.636c-0.545-3.551,3.459-2.553,2.254-6.764
			c-2.563-2.377-2.85-7.685-3.382-9.02c-0.109-0.274,0.017-0.827,0-1.127c-0.119-2.256-3.644-2.288-2.255-5.636
			c0.438-2.469,4.03-3.5,4.51-4.51c0.364-0.771-0.529-2.734,0-3.381c1.479-1.804,3.575-3.368,4.51-4.51
			c0.311-0.381,1.869,0.325,2.254,0c0.479-0.403,0.726-1.763,1.127-2.255c0.308-0.376,1.928,0.364,2.254,0
			c0.916-1.021,1.181-2.533,1.127-4.509c-2.239-0.016-1.434-3.076-4.509-2.255c0.345,1.366-3.256,3.887-3.381,1.127
			c-1.574,0.468-2.446-1.078-3.383-1.127c-1.26-0.065-0.554-0.831-1.127-1.128c-1.502-0.775-3.128-0.602-4.51-2.254
			c0.351-5.023,2.32-10.165,0-14.653c1.063-3.443,5.484-3.533,5.637-7.892c0.062-1.5-0.079-3.011,0-4.509
			c0.063-1.213,0.899-0.611,1.127-1.128c0.732-1.676,2.154-3.271,3.382-4.51c0-3.006,0-6.013,0-9.019
			c3.199-3.188,8.536-4.237,13.525-5.636c-1.058-5.566,1.373-7.646,3.382-10.146c-2.521-0.485-0.457-5.556-1.127-7.892
			c2.024-2.135,3.806-2.101,6.764-2.254c1.2-0.063,0.625-0.915,1.127-1.127c2.729-1.155,5.284-2.562,7.891-3.383
			c-0.973-5.479,3.229-5.791,2.255-11.271c0.446-2.701-5.135,0.625-3.382-3.382c1.617-4.36-1.897-6.016-2.254-6.765
			c-0.427-0.898,0.279-2.418,0-3.382c-0.979-3.378-1.649-7.063-3.382-10.146c3.825-2.75,0.156-6.393,1.127-12.398
			c-0.895-2.149-3.265-2.695-4.509-4.51c-0.564-0.822-0.808-2.688-1.128-3.382c-0.306-0.657-1.996-1.423-1.127-3.381
			c1.313-0.189,1.225-1.782,1.127-3.384c-0.196-3.201,7.374,1.362,5.637-3.382c4.09-3.252-5.313-6.584-1.127-10.146
			c3.546-0.563,4.405,2.457,6.763,0c0.766-3.356,3.596-5.565,5.638-7.893c1.749-1.989,3.297-4.562,4.51-5.636
			c0.833-0.739,3.084,0.131,2.254-2.255c-0.259-1.972,0.768-3.949,1.127-5.636c1.193-5.6,2.09-7.444,4.509-10.146
			c1.408-1.571,2.102-2.014,3.381-3.382c2.631,0,5.262,0,7.893,0c1.036-3.794,5.272-3.364,7.892-4.51
			c0.648-0.283,1.705-1.099,2.254-1.127c1.229-0.063,0.589-0.877,1.127-1.127c1.661-0.771,4.602-0.563,5.638-1.127
			c0.343-0.188,0.804-1.932,1.127-2.254c2.149-2.151,4.877-3.506,7.892-3.382c0.473-1.735,0.312-3.01,1.127-4.51
			c0.957-1.758,2.054-1.853,3.381-3.382c2.202-2.118,5.045-0.723,5.637,0c0.771,0.941,4.854-0.971,4.51,1.127
			c3.457,5.231-10.688,8.822-3.382,14.652c1.569,3.272,5.563-0.317,6.765-1.127c0.04-2.083,2.947-0.486,4.509-1.127
			c0.895-0.366,1.127-3.1,3.381-2.255c-0.419-5.681-0.001-10.521,4.509-11.271c5.279-0.02,4.278,6.242,6.766,9.019
			c2.479-0.711,5.474-1.467,7.891-1.127c0.211,0.028,1.832,2.125,2.254,2.254c1.278,0.39,3.326-0.593,4.509,0
			c0.532,0.267,1.709,1.809,2.256,2.255c1.052,0.857,1.381,1.239,2.256,2.254c1.226,1.42,1.896,4.891,4.509,4.509
			c3.806-1.411,7.638-0.408,11.271-1.127c1.45-0.286,1.487-1.316,2.256-2.255c0.223-0.271,1.88,0.099,2.255,0
			c2.319-0.605,4.954,0.773,6.763-1.127c2.345,0.661,3.643,2.369,5.636,3.382c0.083,1.697,1.92,0.724,3.381,1.127
			c1.344,0.371,1.642,1.229,3.384,1.128c1.598-0.095,1.297-1.867,2.255-2.255c1.612-0.652,3.957,0.494,5.636,0
			c-0.953-4.011,3.264-6.755-1.127-7.892c-0.388-4.146,4.104-3.407,6.763-4.51c2.898,0.838,0.036,4.219,0,4.51
			c-0.137,1.113,1.021,1.354,1.127,2.255c3.493,1.343,3.882-2.099,4.509-2.255c1.292-0.324,4.347-0.322,5.639,0
			c0.127,0.031,1.854,1.049,1.127,1.128c4.234-0.458,8.39-3.242,12.396-1.128c0.41,4.543-6.521,1.746-5.636,6.764
			c2.316,0.313,2.25,3.012,3.382,4.51c2.15-1.172,3.468,1.097,5.636,1.127c2.495,0.034,3.623-1.538,5.639-1.127
			c3.641,0.742,5.414,3.464,9.018,4.509c2.378,1.577-1.186,3.052-1.127,4.51c0.104,2.521,1.922,2.38,2.254,5.637
			c4.708,0.951,5.324-2.19,9.021-2.254c1.104,1.521,3.008,2.253,4.509,3.381c0.466,2.083,4.878,3.343,5.636,3.382
			c1.618,0.086,1.884,2.177,3.382,2.255c1.298,0.067,0.507,0.739,1.127,1.127c4.451,2.781,9.474,4.813,9.021,11.271
			c4.303,1.006,7.193-1.841,9.018,0c1.453,0.055,1.511,1.489,2.255,2.254c2.139,2.188,3.976,4.198,5.639,5.637
			c1.03,0.893,2.779,0.939,3.382,2.254c9.744,1.219,18.279-1.876,27.053-2.254c2.487-0.107,5.28,1.159,7.893,1.127
			c4.019-0.051,5.259-1.841,6.765,0c0.511,0.625,4.736-0.149,5.636,0c1.41,0.235,2.688,1.708,4.509,2.254
			c1.601,0.479,6.412,1.108,6.767,1.127c1.303,0.067,0.502,0.725,1.127,1.127c3.15,2.041,4.476,2.426,7.891,1.127
			c2.549,3.087,6.212,5.062,9.02,7.893c1.612,1.629,3.181,3.794,4.51,5.636c1.604,8.164,6.237,13.301,6.764,22.545
			c2.536,3.735,9.071,4.046,9.02,9.018c0.729,4.486-2.982,4.532-2.255,9.02c2.907,0.746,4.313,1.285,6.765,1.127
			c2.124-0.137,3.262-2.504,4.509-2.254c0.314,0.063,0.068,1.005,1.127,1.127c1.515,0.175,1.355,1.979,2.255,2.255
			c2.021,0.617,2.571-1.548,4.511-1.128c2.087,1.671,1.688,5.826,5.637,5.637c2.255,0,4.509,0,6.764,0
			c1.985,1.021,1.862,4.148,4.511,4.509c0.209-1.669,2.725-1.031,4.509-1.127c2.267,2.995,7.787,2.732,9.019,6.765
			c6.161,0.227,10.953,1.82,13.526,5.637c3.559,0.552,3.979-2.031,7.891-1.128c1.819,1.563,3.569,3.194,5.637,4.51
			c-1.605,4.989,3.813,2.948,3.383,6.765c3.869,0.732,7.685-1.297,11.271-1.128c1.149,0.056,1.313,0.925,2.255,1.128
			c3.268,0.711,4.14,0.675,5.637,1.128c3.979,1.201,6.041,0.671,10.146,1.127c1.145,0.127,1.311,0.903,2.254,1.127
			c4.084,0.961,7.313-0.878,9.02-1.127c1.841-0.271,3.789,0.23,5.638,0c6.206-0.781,11.919-2.217,14.651,1.127
			c0.271,0.329,1.848-0.193,2.256,0c0.142,0.064-0.107,0.995,0,1.127c0.28,0.344,1.843-0.226,2.254,0
			c0.279,0.15,0.888,1.96,1.129,2.254c0.295,0.359,1.844-0.267,2.254,0c0.17,0.107-0.135,0.963,0,1.127
			c0.307,0.374,1.854-0.3,2.255,0c0.533,0.398,0.477,1.945,1.127,2.254c1.537,0.729,4.151,0.608,5.637,1.128
			c2.347,0.819,5.688,2.696,6.765,3.382c3.382,2.154,5.535,6.194,7.892,7.891c1.728,1.242,3.824-0.188,4.51,2.255
			c8.341,0.823,13.769-1.264,21.417-1.127c1.372,2.047,4.493,2.444,5.637,3.381c0.379,0.312-0.32,1.865,0,2.254
			c0.388,0.469,1.773,0.732,2.255,1.127c0.353,0.287-0.239,1.842,0,2.255c0.093,0.159,0.977-0.125,1.127,0
			c0.328,0.27-0.192,1.845,0,2.254c0.065,0.142,0.995-0.107,1.128,0c2.169,1.774-1.278,11.604-1.128,13.525
			c0.365,4.604,3.994,8.176,4.51,12.397c0.152,1.257-1.179,5.813-1.127,6.765c0.04,0.759,1.134,1.19,1.127,1.127
			c0.091,0.972-0.82,2.097-1.127,3.381c-0.392,1.64-1.417,3.713-2.256,5.637c-2.372,5.44-4.158,6.688-7.892,10.146
			c-1.903,1.765-6.672,6.164-6.763,7.892c-0.104,1.938-5.068,5.605-5.639,5.637c-2.479,0.131-2.374,3.497-4.509,3.382
			c-1.244,7.021-4.975,11.561-10.146,14.654c-1.146,4.114-2.798,7.725-4.51,11.271c-1.505,1.878-6.388,0.378-7.892,2.255
			c1.92,6.907,0.143,11.618-1.127,18.034c1.896,5.591,4.702,10.008,5.636,15.781c0.91,5.634,0.854,13.485,0,19.162
			c-0.607,4.049-2.995,7.327-3.382,11.271c-0.195,2.008,0.896,2.621,1.128,4.51c0.523,4.283-0.664,7.341-1.128,9.019
			c-1.313,4.754-1.103,10.532-3.383,12.398c-0.367,0.302,0.282,1.849,0,2.254c-0.634,0.909-1.656,1.019-2.254,2.255
			c-1.179,2.438-0.944,4.368-2.256,6.764c-0.169,2.084-3.814,0.691-4.509,2.254c0.941,3.539-1.069,5.688-1.128,6.765
			c-0.05,0.939-1.093,0.956-1.127,1.127c-0.885,4.378,0.036,9.354-1.127,14.653c-3.614,2.228-5.788,6.102-10.146,7.892
			c-1.721,0.707-5.407,0.622-7.893,1.127c-0.119,0.024-0.354,0.935-1.127,1.127c-2.696,0.675-4.688-0.519-6.765,0
			c0.299,1.145-0.642,0.741-1.127,1.128c-1.676,1.33-1.552,4.926-4.51,4.509c-4.507-0.374-6.257,2.01-11.271,1.127
			c-1.023,2.356-3.327,3.438-6.765,3.383c-3.163,2.099-3.326,7.193-7.892,7.892c-4.493,0.973-8.328-1.685-10.146,0
			c-2.491,0.89-2.819,3.941-4.509,5.637c-0.506,3.253-4.852,2.665-5.638,5.637c-4.229,3.285-4.955,10.073-11.271,11.271
			c0.245,6.861-5.487,12.336-4.511,19.163c0.587,4.09,1.058,2.76,2.255,4.51c0.779,1.14,2.396,2.264,2.256,4.509
			c-0.883,5.804,2.375,12.71,0,14.653c-0.23,0.188,0.039,1.918,0,2.256c-0.225,1.85-0.03,2.481-1.129,3.381
			c-0.367,0.303,0.282,1.85,0,2.255c-1.906,2.737-5.655,1.859-6.764,5.637c-2.216-0.337-2.234,1.521-3.382,2.256
			c0.492,3.875-0.445,6.315-1.127,9.019c-4.139,6.529-3.965,12.297-6.766,18.034c-0.284,0.586-1.102,1.758-1.127,2.256
			c-0.066,1.298-0.739,0.507-1.127,1.127c-2.117,3.389-3.424,5.862-5.638,7.892c-0.865,0.794-2.437,0.354-3.381,1.127
			c-0.37,0.303,0.284,1.85,0,2.255c-0.125,0.178-0.953-0.144-1.128,0c-0.349,0.283,0.229,1.842,0,2.255
			c-0.356,0.646-1.878,1.502-2.254,2.255c-1.188,2.368-1.549,4.538-2.257,6.764c-1.888,0.295-2.447,2.342-3.383,3.383
			c-1.341,1.497-2.285,1.829-3.381,3.382c-0.962,1.361-1.453,3.067-2.255,4.51c-0.087,0.155-0.979-0.12-1.127,0
			c-0.098,0.077-1.139,3.425-1.127,3.383c-0.617,2.467-1.146,1.897-2.255,3.381c-0.229,0.303-1.129,3.393-1.128,3.383
			c-0.066,1.274-0.797,0.532-1.128,1.128c-0.647,1.168-0.454,2.04-1.127,3.381c-1.773,3.54-3.685,6.06-4.511,10.146
			c-4.58,1.432-7.037,4.983-11.271,6.764c-1.888-1.99-3.776,1-7.892,0c-4.36-1.25-4.012,3.983-6.765,1.128
			c-3.951-1.309-7.188-3.167-11.271-3.383c-1.106-0.06-0.741-1.002-1.127-1.127c-5.122-1.667-7.885,0.188-13.525,0
			c-5.085,0.199-2.783-6.985-9.02-5.638c-0.533,3.211,0.635,5.158,2.255,6.765c0.898,0.892,2.13,0.501,3.382,1.127
			c1.267,0.634,1.308,1.634,2.256,2.256c1.679,1.102,4.754,1.086,6.763,2.254c2.107,1.227,3.368,2.237,4.51,4.509
			c-1.936,1.823-2.801,4.716-2.255,9.02c1.89,1.194,1.726,1.593,4.511,2.256c1.852,0.438,5.078-1.299,5.636,1.127
			c0.73,5.719,1.407,7.814,0,11.271c-1.228,3.013-3.284,6.16-2.254,11.271c-1.438-0.063-0.613,1.331-1.128,2.255
			c-0.356,0.645-1.878,1.502-2.254,2.254c-0.574,1.147-0.744,2.488-1.128,3.383c-1.361,3.178-2.756,3.883-4.51,5.638
			c-0.892,0.892-1.24,2.645-2.255,3.381c-0.832,0.604-2.646,0.729-3.382,1.128c-1.357,0.732-2.071,1.54-3.382,2.255
			c-1.215,0.661-2.401,0.547-3.382,1.127c-0.291,0.172-0.597,0.788-1.128,1.128c-1.521,0.969-2.298,0.574-4.51,1.127
			c-0.902,0.228-0.793,0.995-1.128,1.127c-3.772,1.492-10.055,1.388-13.524,2.256c-0.841,0.21-0.871,1.035-1.127,1.127
			c-7.475,2.646-16.725,2.15-23.673,1.127c-0.646,3.833,2.255,5.019,2.255,6.766c0,1.019-1.244,1.479-1.128,2.254
			c0.546,3.608,1.999,7.354,2.255,11.271c0.165,2.521-1.141,4.166-1.127,6.765c-0.002-0.319,1.015,0.675,1.127,1.128
			c0.674,2.695-0.52,4.687,0,6.763c-4.989,5.021-9.57,5.731-16.907,4.509c-2.103-0.35-4.768-0.72-6.765-1.127
			c-4.783-0.975-9.203-3.752-12.397-2.254c1.638,7.003,0.458,16.825,4.509,21.417c6.967,2.197,7.906-1.771,15.781-1.128
			c0.45,2.932,3.363,3.399,3.382,6.765c-1.842,3.041-4.405,5.362-7.892,6.766c-3.112,0.479-1.06-4.203-3.382-4.511
			c-3.598-0.968-3.484,1.772-5.637,2.255c-2.477,6.983,9.24-0.224,6.765,6.765c0.953,2.487-2.356,2.521-3.382,3.381
			c-1.979,1.658-4.406,4.819-4.51,6.765c-0.065,1.274-0.8,0.533-1.127,1.127c-0.94,1.701-1.923,4.094-2.254,5.639
			c-0.558,2.602,1.547,4.604,1.127,7.89c-0.334,2.615-1.929,2.615-2.254,5.638c-0.916,3.897,2.104,4.761,0,6.765
			c-2.014,1.368-6.559,0.206-7.891,2.255c-1.594,2.165-5.477,2.04-7.893,3.382c-3.517,5.5-7.638,10.396-6.763,20.289
			c0.054,1.453,1.49,1.51,2.254,2.255c0.957,0.936,1.305,2.457,2.254,3.382c1.782,1.732,3.95,2.633,5.637,4.511
			c3.402-1.521,8.995-1.521,12.398,0c3.392,3.747,3.646,10.633,3.382,18.033c-3.021,3.366-5.462,7.313-10.146,9.021
			c-0.462,3.672-2.354,5.913-4.51,7.891c-0.423,3.711-5.992,2.273-5.637,6.767c-0.063,0.688-0.168,1.334-1.127,1.127
			c0.909,7.672-1.188,12.339-2.254,18.032c-2.997,2.428-7.455,2.941-10.146,5.639c-0.349,0.349,0.211,1.787,0,2.255
			c-0.156,0.349-1.975,0.736-2.254,1.127c-0.815,1.138-0.997,2.703-2.255,3.382c2.44,4.475-1.548,10.092,0,13.526
			c0.191,0.425,2.075,0.576,2.255,1.127c1.178,3.617-0.533,4.274,1.127,5.637c0.372,0.304,0.885,3,1.127,3.382
			c1.336,2.099,2.062,2.302,3.383,3.381c0.377,0.313-0.313,1.861,0,2.257c2.052,2.579,5.831,3.011,5.637,6.765
			c-0.833,1.797-5.52-0.258-4.51,3.381c1.565,5.948,7.985,7.043,9.019,13.526c-2.947-0.317-4.849,0.41-4.509,3.382
			c1.588,0.291,1.28,2.477,2.254,3.382c0.379,0.354,1.767-0.221,2.254,0c0.325,0.146,0.771,1.975,1.127,2.255
			c2.367,1.864,5.465,2.429,7.892,4.509c1.68,1.438,3.019,4.042,4.511,5.639c0.825,0.883,1.366,2.557,2.254,3.382
			c0.379,0.353,1.766-0.222,2.254,0c0.381,0.171,0.686,1.979,1.127,2.254c1.403,0.87,3.001,0.509,4.509,1.128
			c0.313,0.127,0.357,0.818,1.128,1.127c2.275,0.91,3.032,0.99,5.637,1.127c1.022,0.054,0.851,1.057,1.127,1.127
			c4.063,1.05,6.695,0.521,10.146,1.128c1.466,0.258,1.546,1.095,3.382,1.127c2.09,0.038,5.065-3.296,6.765,0
			c-1.928,3.688-6.354,1.522-10.146,1.127c0.104,3.205-4.48,1.734-5.636,2.257c-0.415,0.188-0.621,2.009-1.127,2.254
			c-1.606,0.78-3.304,0.489-4.51,1.128c-0.186,0.098-0.681,0.843-1.128,1.128c-0.802,0.512-1.604,0.501-2.254,1.127
			c-3.55,0.545-2.553-3.46-6.764-2.255c-2.788,3.601-6.784,5.988-12.397,6.764C254.944,1018.533,258.418,1019.943,255.877,1022.381z
			 M112.721,45.088c0.188-1.313,1.779-1.227,3.382-1.127c-1.483-3.468,1.777-6.59,1.127-9.021c-0.022-0.084-2.102-0.972-2.254-1.127
			c-1.833-1.833-2.244-5.891-5.639-4.509C103.304,32.244,106.153,44.816,112.721,45.088z M149.919,884.861
			c2.688,2.554,6.108-0.516,6.767-3.382C154.522,879.449,149.742,881.159,149.919,884.861z M153.301,902.896
			c5.363,1.229,4.603-3.667,4.512-7.891C152.446,893.775,153.21,898.673,153.301,902.896z M234.46,959.257
			c0.48-2.149,3.224-2.039,2.254-5.639c-2.254,0-4.509,0-6.763,0C229.658,957.296,231.29,959.046,234.46,959.257z M200.644,963.766
			c-1.235,0.005-0.617,0.908-1.127,1.127c-0.66,0.283-2.898-0.491-3.382,0c-0.75,0.763,0.633,3.633-1.13,3.382
			c-4.673-1.292-4.392,2.371-7.89,2.255c-0.126,4.26,2.206,6.063,5.636,6.766c2.708-1.053,2.985-4.529,7.894-3.384
			c0.544-3.59,3.549-4.718,3.382-9.019C202.583,964.594,202.465,963.759,200.644,963.766z M211.916,970.529
			c4.665,0.907,5.785-1.729,5.639-5.637c-1.881,0-3.76,0.001-5.639,0C211.916,966.771,211.916,968.65,211.916,970.529z
			 M213.043,979.547c1.503,0,3.006,0,4.512,0c-0.141-2.868-1.644-4.371-4.512-4.512
			C213.043,976.541,213.043,978.044,213.043,979.547z M219.806,977.291c0,1.129,0,2.256,0,3.383
			c3.675,0.294,5.425-1.338,5.636-4.512C222.828,975.806,221.115,976.347,219.806,977.291z M232.206,999.837
			c-0.209,1.669-2.724,1.03-4.509,1.127c0.193,3.188-0.97,7.729,2.254,7.891c0.761-3.372,7.536-0.729,7.891-4.509
			C235.594,1003.213,236.063,999.361,232.206,999.837z"/>
		<path d="M191.626,13.526C188.208,17.694,187.829,10.103,191.626,13.526L191.626,13.526z"/>
	</g>
</g>
</svg>
