<?xml version="1.0" encoding="UTF-8" standalone="no"?>
<!-- Generator: Adobe Illustrator 12.0.0, SVG Export Plug-In . SVG Version: 6.00 Build 51448)  -->

<svg
  xmlns:dc="http://purl.org/dc/elements/1.1/"
  xmlns:cc="http://creativecommons.org/ns#"
  xmlns:rdf="http://www.w3.org/1999/02/22-rdf-syntax-ns#"
  xmlns:svg="http://www.w3.org/2000/svg"
  xmlns="http://www.w3.org/2000/svg"
  xmlns:sodipodi="http://sodipodi.sourceforge.net/DTD/sodipodi-0.dtd"
  xmlns:inkscape="http://www.inkscape.org/namespaces/inkscape"
  version="1.1"
  width="1204.818"
  height="965.164"
  viewBox="0 0 1204.818 965.164"
  overflow="visible"
  enable-background="new 0 0 1204.818 965.164"
  xml:space="preserve"
  id="svg3395"
  inkscape:version="0.47 r22583"
  sodipodi:docname="NorthAmericaContour.svg"><metadata
  id="metadata3567"><rdf:RDF><cc:Work
    rdf:about=""><dc:format>image/svg+xml</dc:format><dc:type
     rdf:resource="http://purl.org/dc/dcmitype/StillImage" /></cc:Work></rdf:RDF></metadata><defs
  id="defs3565"><inkscape:perspective
  sodipodi:type="inkscape:persp3d"
  inkscape:vp_x="0 : 482.582 : 1"
  inkscape:vp_y="0 : 1000 : 0"
  inkscape:vp_z="1204.818 : 482.582 : 1"
  inkscape:persp3d-origin="602.409 : 321.72133 : 1"
  id="perspective3569" />
	

		
	
			
		
				
				
				
				
				
				
				
				
				
				
				
				
				
				
				
				
				
				
				
				
				
				
				
				
				
				
				
				
				
				
				
				
				
				
				
				
				
				
				
				
				
				
				
				
				
				
				
				
				
				
				
				
				
				
				
				
				
				
				
				
				
				
				
				
				
				
				
				
				
				
				
				
				
				
				
				
				
				
				
			</defs><sodipodi:namedview
  pagecolor="#ffffff"
  bordercolor="#666666"
  borderopacity="1"
  objecttolerance="10"
  gridtolerance="10"
  guidetolerance="10"
  inkscape:pageopacity="0"
  inkscape:pageshadow="2"
  inkscape:window-width="1366"
  inkscape:window-height="722"
  id="namedview3563"
  showgrid="false"
  inkscape:zoom="0.49007215"
  inkscape:cx="602.409"
  inkscape:cy="482.582"
  inkscape:window-x="0"
  inkscape:window-y="23"
  inkscape:window-maximized="1"
  inkscape:current-layer="layer2" />
<g
  inkscape:groupmode="layer"
  id="layer2"
  inkscape:label="Lag" /><g
  id="Layer_1"
  display="none">
	<g
  id="Layer_1_7_">
	</g>
</g>
<path
  d="m 1204.818,18.334 c 0,3.058 0,6.112 0,9.167 -2.184,0 -4.365,0 -6.549,0 -3.598,0.88 -5.102,3.473 -6.548,5.238 -0.337,0.412 -2.14,-0.287 -2.619,0 -0.188,0.113 0.147,1.128 0,1.31 -0.295,0.36 -2.152,-0.187 -2.619,0 -1.663,0.666 -1.608,1.387 -2.619,2.619 -0.869,1.063 -4.402,0.151 -3.929,2.619 -2.725,-0.741 -4.232,-3.742 -6.548,-1.31 -3.11,0.817 0.203,8.061 -2.619,9.167 -3.669,-1.506 -6.808,-1.506 -10.478,0 0.1,2.279 -0.291,4.071 -1.311,5.236 0.161,1.488 1.256,0.938 2.619,1.312 3.789,1.033 4.177,3.351 9.167,2.619 -0.632,4.561 3.282,4.575 5.238,6.548 0.395,3.451 -1.813,4.298 -5.238,3.929 0,2.619 0,5.239 0,7.858 -2.273,-1.192 -3.385,-4.589 -1.312,-6.548 -0.767,-2.813 -9.729,-4.12 -11.785,-1.312 -1.438,3.49 2.979,1.563 3.93,2.619 0.579,0.647 -0.333,3.098 0,3.929 0.298,0.745 2.937,1.096 2.619,2.619 0,1.746 0,3.492 0,5.238 2.035,4.655 -4.448,0.791 -3.931,3.929 -1.788,5.718 5.071,2.787 3.931,7.857 -1.549,1.508 -4.631,1.48 -7.857,1.31 -2.941,0.551 -0.036,6.949 -2.619,7.857 -7.659,-1.547 -8.941,3.277 -15.715,2.619 -2.036,4.653 4.447,0.791 3.929,3.929 -0.224,1.959 0.47,4.833 -1.31,5.239 2.036,4.653 -4.448,0.79 -3.93,3.929 -1.147,4.204 3.396,2.715 3.93,5.238 -0.163,8.127 1.785,7.449 0,13.096 -4.829,-1.72 -11.917,-1.179 -17.024,-2.619 1.023,-5.825 -1.233,-8.369 -6.548,-7.855 -2.893,0.161 -0.557,5.555 -1.313,7.855 -3.763,-0.271 -6.65,0.332 -7.855,2.619 0.016,1.321 2.296,1.647 2.619,0 9.245,-0.951 13.351,3.238 20.954,3.929 0.364,3.203 -3.146,3.615 -3.931,3.931 -3.514,1.403 -7.887,3.68 -11.787,3.929 -1.686,0.854 -3.439,4.078 -5.236,5.238 -0.489,0.314 -3.83,1.305 -3.93,1.31 -1.345,0.071 -0.791,1.117 -1.311,1.31 -1.859,0.693 -4.577,-0.342 -6.548,0 -2.396,0.416 -5.081,1.962 -7.857,2.619 -3.817,0.908 -7.879,0.509 -10.477,1.312 -1.584,0.49 -1.312,1.932 -2.619,2.619 -0.834,-0.158 -1.798,0.205 -2.619,0 -0.176,-0.044 -2.11,-1.245 -1.31,-1.312 -1.4,0.113 -2.055,2.6 -2.619,2.619 -3.016,0.114 -5.045,-2.1 -7.857,-1.31 -1.886,0.528 -0.181,1.723 -1.311,2.617 -1.561,1.237 -5.277,0.466 -6.549,1.312 -2.889,1.923 -4.066,5.204 -6.548,7.855 -3.261,3.489 -8.683,4.798 -9.167,9.168 -2.184,0 -4.363,0 -6.549,0 -1.968,1.617 -2.896,3.807 -5.238,3.93 -1.203,0.063 -0.967,1.218 -1.309,1.31 -4.089,1.098 -5.709,1.127 -9.168,1.312 -0.904,0.048 -1.354,1.313 -1.311,1.31 -1.718,0.178 -3.058,-1.446 -3.93,-1.31 -2.336,0.365 -4.556,2.429 -6.548,2.619 -2.481,0.236 -2.885,-1.436 -5.238,-1.312 -1.938,0.244 -1.2,3.165 -1.31,5.238 -3.155,-0.536 -2.847,2.392 -6.548,1.31 0,3.058 0,6.112 0,9.167 -4.052,-0.122 -3.902,3.955 -3.929,7.857 -4.791,0.448 -5.993,4.481 -7.857,7.855 -4.638,-0.709 -3.22,4.64 -7.857,3.931 -0.792,3.137 -1.883,5.975 -1.31,10.477 -1.196,1.229 -3.834,0.913 -5.238,2.619 -0.789,0.959 1.314,1.336 1.312,1.31 0.538,2.692 -7.551,5.507 -3.931,10.479 -5.599,-0.796 -4.847,4.757 -6.548,7.855 -5.236,1.289 -7.858,1.289 -13.096,0 -0.559,-2.496 -3.742,-2.368 -2.619,-6.548 -2.254,0.07 -3.357,-1.008 -3.93,-2.619 -2.32,-0.299 -6.56,1.32 -5.238,-2.618 -5.338,-0.975 -4.509,4.221 -10.477,2.618 2.737,-5.213 -3.956,-6.604 -3.931,-6.548 -1.396,-2.88 -1.04,-7.5 -2.618,-10.477 -0.933,-1.757 -1.869,-3.328 -3.93,-3.929 -0.6,-1.796 1.326,-2.888 1.311,-3.931 -0.038,-2.559 -3.311,-4.183 -3.93,-6.548 -0.529,-2.031 0.331,-4.469 0,-6.548 -0.486,-3.065 -2.598,-3.713 -2.619,-6.548 0.057,-4.313 2.213,-6.521 1.312,-11.787 -0.22,-1.526 -2.07,-1.422 -3.929,-1.312 -0.718,-1.901 1.528,-6.769 -1.312,-6.548 -0.202,-3.258 2.06,-4.054 2.619,-6.548 -1.538,-3.472 2.511,-7.711 0,-7.855 2.257,-4.729 8.268,-5.702 7.856,-13.098 4.646,1.065 3.156,-1.787 5.237,-2.619 0.979,-0.391 2.614,0.042 2.619,-1.31 4.064,-0.135 3.737,4.12 9.167,2.619 1.944,-1.132 2.094,-4.621 2.619,-6.548 0.031,-0.112 1.199,0.091 1.31,0 1.634,-1.335 -1.253,-6.827 0,-7.857 -0.274,-1.254 -1.109,-1.229 -2.618,-1.31 -3.099,-0.163 -2.906,-5.04 -6.549,-3.931 -4.565,3.397 4.72,3.91 3.931,7.857 -4.229,1.885 -9.718,2.507 -14.405,3.929 -0.289,-1.021 -1.097,-1.521 -2.619,-1.31 0.07,-2.253 -1.008,-3.357 -2.619,-3.931 1.021,-2.909 2.751,-5.104 2.619,-9.167 1.584,-0.185 1.934,2.015 3.929,1.312 2.288,-0.806 -0.104,-2.813 1.312,-3.929 1.343,-1.063 5.001,0.804 6.548,0 1.473,-7.584 -5.916,-6.309 -10.478,-7.857 -0.552,-4.267 2.013,-5.029 2.618,-6.548 0.394,-0.979 -0.042,-2.614 1.312,-2.619 -1.286,-4.367 1.361,-9.121 1.31,-10.477 -0.094,-2.469 -3.422,-4.654 -1.31,-6.55 -0.148,-1.598 -0.394,-3.101 -2.619,-2.617 0.243,-1.939 3.165,-1.201 5.238,-1.312 -0.805,-4.435 -0.363,-10.113 -6.55,-9.167 -0.534,-3.155 2.394,-2.847 1.312,-6.548 -1.547,-2.805 -4.113,-0.555 -6.548,-1.311 -0.457,-0.143 -2.021,-2.297 -2.619,-2.618 -0.913,-0.492 -3.345,-1.187 -3.929,-1.312 -7.377,-1.582 -14.63,-0.802 -18.334,0 -5.828,1.26 -8.65,0.741 -14.405,1.312 -1.951,0.19 -4.367,1.34 -5.238,1.31 -1.95,-0.069 -2.661,-1.08 -3.929,-1.31 -4.303,-0.782 -5.185,0.357 -6.548,-1.312 -0.312,-0.378 -2.146,0.218 -2.62,0 -0.762,-0.351 -1.655,-2.321 -3.93,-1.31 1.03,-4.523 -1.225,-5.762 -3.93,-6.548 0.119,-2.064 3.341,-1.025 2.619,-3.931 1.903,-0.716 6.771,1.53 6.549,-1.31 1.524,-4.068 -3.909,-2.073 -5.238,-2.619 -0.146,-0.062 0.113,-1.17 0,-1.311 -0.85,-1.037 -4.119,-0.469 -5.237,-1.311 -0.347,-4.274 5.082,-2.775 5.237,-6.548 6.081,-0.429 12.327,-0.01 18.336,-1.311 2.269,-0.49 4.478,-2.355 6.548,-2.618 5.118,-0.65 10.885,0.736 15.715,0 3.413,-0.521 5.512,-3.016 9.167,-2.619 0.799,-0.074 1.551,-0.196 1.31,-1.312 0.118,-2.063 3.341,-1.023 2.619,-3.929 -1.394,-2.972 -8.231,-0.499 -11.786,-1.31 -1.076,-5.006 6.314,-1.544 5.238,-6.549 -2.15,-2.375 -6.482,-0.75 -9.167,0 -1.746,0.487 -1.451,1.989 -2.619,2.618 -0.642,0.347 -1.901,-0.179 -2.619,0 -0.944,0.236 -1.05,1.224 -1.31,1.312 -3.402,1.147 -6.389,0.337 -9.167,1.31 -1.949,0.684 -3.605,1.875 -5.238,2.619 -2.038,0.929 -4.135,0.793 -5.237,2.619 -2.223,-1.662 -4.865,-1.406 -6.549,-1.311 -1.404,0.081 -8.353,1.715 -7.856,1.311 -0.304,0.247 0.335,2.489 0,2.619 -1.517,0.591 -3.668,-0.453 -5.238,0 -3.357,0.133 -2.104,4.88 -3.929,6.548 -4.896,-1.026 -5.162,1.139 -6.549,2.619 -1.918,2.05 -2.496,1.934 -5.237,2.619 -3.472,0.867 -8.626,2.758 -13.097,1.31 -1.223,1.398 -4.83,0.408 -3.93,3.929 -5.607,-0.808 -5.34,4.266 -10.477,3.931 -1.926,4.979 5.854,0.258 3.929,5.236 -4.146,-1.479 -4.382,2.319 -5.237,2.62 -1.653,0.581 -5.592,0.854 -7.856,1.312 -2.311,0.466 -5.396,1.094 -7.857,1.31 -4.653,2.036 -0.791,-4.448 -3.929,-3.929 -4.175,-1.119 -4.971,1.141 -6.548,2.62 -3.536,1.133 -7.165,-1.206 -10.479,-1.312 -1.979,-0.063 -2.654,1.085 -3.929,1.312 0.039,-0.008 -0.158,-1.54 -1.31,-1.312 -0.438,0.087 0.023,1.225 -1.312,1.312 -3.649,0.233 -6.908,0.119 -9.167,0 -0.69,-0.037 -1.633,-1.312 -1.31,-1.312 -1.511,0.001 -2.028,1.06 -3.93,1.312 -2.95,0.39 -6.51,0.075 -7.856,0 -0.689,-0.039 -2.939,-1.281 -2.619,-1.312 -3.655,0.333 -6.537,4.481 -10.477,2.619 -0.979,4.035 4.516,1.597 2.618,6.548 2.521,-1.731 5.271,0.96 9.167,-1.31 4.999,-0.701 1.229,4.684 3.93,1.31 0.594,-0.742 1.775,1.229 1.31,1.312 2.447,-0.419 5.997,-2.077 9.167,-2.619 10.671,-1.825 23.932,-0.396 31.432,0 2.063,0.107 1.023,3.347 3.93,2.619 -2.305,3.294 -3.441,6.384 -6.548,6.548 -1.209,0.063 -0.963,1.216 -1.312,1.31 -2.038,0.553 -4.498,-0.508 -6.549,0 -2.844,0.706 -5.271,2.292 -7.855,2.619 -4.18,1.123 -4.052,-2.061 -6.55,-2.619 -2.116,-0.924 -3.604,2.326 -5.236,2.619 -4.639,0.834 -8.835,-1.217 -10.479,-1.31 -1.24,-0.07 -1.021,1.252 -1.31,1.31 -1.295,0.259 -1.578,-1.363 -2.619,-1.31 -1.021,0.054 -1.205,1.292 -1.311,1.31 -1.857,0.303 -2.876,-1.388 -3.93,-1.31 -3.273,0.243 -3.385,2.314 -5.237,0 -0.597,-0.744 -1.774,1.229 -1.311,1.31 -2.365,-0.396 -3.592,-1.625 -5.237,-2.619 -4.18,-1.123 -4.051,2.063 -6.549,2.619 -4.11,0.619 -3.46,-3.522 -6.548,-3.929 -2.478,-0.293 -2.89,1.476 -5.237,1.31 -2.201,-9.622 8.175,-6.667 5.237,-17.022 -5.494,-0.178 -7.315,2.381 -11.786,0 -3.557,-0.938 0.938,6.175 -2.619,5.237 -0.949,4.006 2.26,3.853 1.312,7.856 -1.888,0.733 -3.196,2.042 -3.93,3.929 -2.179,0.097 -4.373,-0.125 -6.548,0 -1.189,0.068 -0.981,1.225 -1.311,1.312 -1.167,0.307 -6.918,-4.16 -5.238,1.31 -1.938,-0.243 -1.2,-3.165 -1.311,-5.237 -1.938,-0.242 -1.2,-3.164 -1.312,-5.237 3.403,0.784 4.714,-0.526 3.931,-3.93 3.304,4.428 6.857,0.815 13.097,1.311 0,-2.619 0,-5.238 0,-7.857 -1.722,0.317 -0.646,-1.854 -1.311,-2.619 -0.76,-0.875 -3.743,0.166 -2.618,-2.618 1.307,-0.057 2.621,0.067 3.929,0 1.063,-0.058 1.15,-1.28 1.311,-1.312 2,-0.369 5.841,1.434 6.548,-1.31 1.685,0.146 1.26,2.125 2.619,2.619 2.637,0.958 6.896,-0.962 7.856,0 0.21,0.211 -0.23,2.566 0,2.618 4.872,1.09 10.971,-1.278 15.715,1.311 2.841,0.221 0.595,-4.646 1.311,-6.548 1.525,0.221 1.423,2.068 1.311,3.929 8.278,0.421 12.353,-3.363 20.953,-2.619 2.941,-0.55 0.036,-6.949 2.619,-7.855 2.618,0 5.237,0 7.856,0 0,-2.185 0,-4.365 0,-6.549 -3.813,-1.185 -3.407,1.523 -5.238,2.618 -0.877,0.525 -2.692,-0.147 -2.618,1.312 -5.064,-1.788 -12.723,1.042 -20.953,0 -1.321,-2.607 -2.265,-5.593 -5.238,-6.548 -1.617,-4.237 4.237,-1.001 2.619,-5.238 0.521,-2.542 -5.965,-1.913 -3.929,1.31 -3.746,-0.183 -2.396,-5.463 -2.619,-9.167 3.154,0.536 2.847,-2.392 6.548,-1.31 1.627,0.646 0.767,-2.268 1.311,-2.619 0.933,-0.603 2.953,0.539 3.93,0 0.181,-0.1 -0.141,-1.139 0,-1.31 0.376,-0.459 3.454,-0.993 3.929,-1.312 2.338,-1.559 3.545,-0.748 6.548,-1.31 3.97,-0.743 6.744,-4.405 11.786,-2.619 0.222,1.524 2.07,1.422 3.93,1.31 -0.041,6.589 6.074,7.021 13.098,6.549 5.396,-1.031 2.46,6.271 7.855,5.237 2.423,-0.197 0.805,-4.435 2.619,-5.237 -0.221,-1.525 -2.069,-1.423 -3.929,-1.311 -3.654,-1.147 -6.47,-3.135 -10.479,-3.929 0,-1.312 0,-2.619 0,-3.931 -1.746,0 -3.492,0 -5.237,0 1.169,-2.483 7.467,-1.288 7.855,-1.31 1.515,-0.08 0.584,-0.84 1.313,-1.311 5.058,-3.272 17.049,-1.841 23.571,-2.619 1.934,-0.231 2.62,-0.94 3.93,-1.312 6.967,-1.97 14.969,0.315 20.952,0 1.298,-0.066 0.851,-1.155 1.311,-1.31 3.558,-1.187 4.601,-0.967 7.857,-1.312 1.81,-0.188 2.774,-1.16 3.929,-1.31 3.689,-0.477 8.515,0.93 10.478,0 0.367,-0.174 0.767,-2.625 1.311,-2.619 1.803,0.021 2.301,2.212 3.929,2.619 0.715,0.179 1.883,0.054 2.619,0 7.104,-0.518 12.521,-3.323 19.646,-2.619 1.986,0.196 4.318,1.328 5.237,1.311 2.445,-0.049 3.834,-1.144 5.238,-1.311 7.831,-0.927 17.456,-1.169 24.882,0 2.405,0.379 4.058,2.377 6.548,2.619 6.433,0.625 18.273,-1.798 22.265,0 0.493,0.223 0.67,2.411 1.31,2.619 3.044,0.991 5.062,-0.753 7.858,0 0.635,1.547 1.396,2.969 2.618,3.929 7.173,-0.752 12.742,-0.877 19.645,-1.311 1.607,-0.102 3.066,-1.354 3.929,-1.311 0.813,0.043 1.477,1.319 1.311,1.311 1.341,0.079 1.533,-1.279 2.619,-1.311 4.666,-0.125 9.652,-0.533 11.785,0 0.287,0.072 1.939,1.313 1.312,1.311 2.764,0.007 5.022,-1.764 7.856,-1.311 2.625,0.42 4.704,3.251 7.856,2.619 1.525,-0.22 1.422,-2.07 1.31,-3.929 4.217,0.442 9.438,-0.593 13.098,0 3.152,0.51 5.195,2.524 7.855,2.618 2.542,0.521 1.914,-5.966 -1.31,-3.93 0.134,-1.912 2.184,-0.917 3.929,-1.31 3.398,-0.764 10.273,-1.161 13.096,-1.312 1.516,-0.079 0.584,-0.84 1.313,-1.31 2.146,-1.391 3.921,-1.424 6.548,-1.311 5.811,0.252 3.335,0.598 7.856,0 5.806,-0.768 10.679,0.263 15.716,0 1.805,-0.095 2.829,-1.245 3.929,-1.311 5.657,-0.332 11.732,0.314 15.715,0 1.154,-0.091 1.003,-1.229 1.311,-1.311 1.26,-0.331 1.609,1.408 2.619,1.311 1.704,-0.166 2.913,-1.262 3.93,-1.311 9.535,-0.441 19.938,-0.795 28.811,0 1.754,0.156 2.859,1.235 3.932,1.311 7.391,0.51 14.968,-0.127 22.263,1.311 0.071,1.675 1.679,1.813 1.311,3.93 7.488,-0.941 11.697,1.396 18.334,1.31 -0.337,2.721 -5.755,0.358 -6.549,2.619 0.438,4.639 3.604,3.22 1.312,7.858 0.834,-0.158 1.798,0.204 2.619,0 1.155,-0.29 0.795,-1.071 1.31,-1.312 2.682,-1.242 6.745,-0.97 5.238,-5.238 3.483,0.009 3.341,3.645 5.237,5.238 3.938,1.32 2.321,-2.918 2.619,-5.238 1.525,0.221 1.422,2.069 1.311,3.93 1.746,0 3.492,0 5.238,0 2.574,0.392 2.598,-1.771 3.929,-2.62 5.234,0.033 10.47,0.033 15.709,0.033 z m -60.241,-1.31 c -0.433,6.468 7.253,3.409 6.548,-1.312 -3.155,-0.533 -2.847,2.395 -6.548,1.312 z m -222.63,1.31 c -1.814,0.464 -2.271,1.982 -3.929,2.62 -2.814,1.082 -8.709,-0.546 -6.548,5.238 6.315,-2.082 13.05,-1.054 19.644,0 0.149,-1.598 0.394,-3.103 2.619,-2.619 0,-2.183 0.001,-4.366 0,-6.548 -3.305,1.427 -7.807,0.295 -11.786,1.309 z m -27.501,11.787 c 4.422,-1.688 12.513,0.289 13.097,-5.238 -5.907,0.204 -12.679,-0.456 -13.097,5.238 z M 790.989,31.43 c -1.598,0.146 -3.101,0.392 -2.619,2.617 4.394,0.026 8.73,0 7.857,-5.236 -3.573,-0.954 -2.633,2.602 -5.238,2.619 z m -11.786,13.096 c -0.158,-3.333 -1.904,-5.079 -5.236,-5.238 0.448,3.041 0.845,6.136 5.236,5.238 z m -19.644,10.476 c -1.746,0 -3.492,0 -5.238,0 -1.032,5.043 6.272,5.043 5.238,0 z m 92.982,7.858 c 1.311,0 2.618,0 3.93,0 0.236,-2.856 -1.072,-4.166 -3.93,-3.929 0,1.31 0,2.619 0,3.929 z m 280.25,40.597 c 0.396,-3.45 -1.813,-4.298 -5.236,-3.929 -1.318,4.371 1.814,4.295 5.236,3.929 z m -204.296,19.644 c -0.243,-1.939 -3.163,-1.201 -5.236,-1.312 -2.798,4.819 6.668,5.91 5.236,1.312 z m -2.618,9.167 c 5.225,-1.295 3.942,3.914 9.166,2.619 0.946,-4.002 -1.338,-4.772 -1.31,-7.857 -3.056,0 -6.11,0 -9.167,0 -0.097,2.281 0.293,4.073 1.311,5.238 z m 174.175,1.31 c 0,-1.31 0,-2.619 0,-3.929 -1.541,0.205 -3.719,-0.227 -3.93,1.31 2.065,0.118 1.025,3.339 3.93,2.619 z"
  id="path3405" /><path
  d="m 698.01,34.049 c 0.188,5.266 -3.358,3.466 -6.548,2.619 0.191,-2.863 3.298,-2.812 6.548,-2.619 z"
  id="path3415" /><path
  d="m 678.365,47.145 c -3.019,3.331 -1.333,6.387 -2.619,9.167 -4.099,-0.719 -7.572,1.013 -10.478,0 -0.296,-0.104 0.25,-2.357 0,-2.619 -0.828,-0.869 -4.497,0.969 -3.929,-1.312 -1.316,-1.294 -7.438,1.296 -6.55,1.312 -1.565,-0.027 -1.808,-2.396 -2.617,-2.619 -0.487,-0.134 -5.576,3.682 -6.55,0 -0.043,-5.985 4.597,-0.067 7.857,-1.31 2.451,-5.943 -5.202,-1.782 -3.929,-6.55 1.443,-0.546 11.25,-3.564 13.096,-1.31 0.126,0.153 -0.163,1.232 0,1.31 0.476,0.227 2.307,-0.382 2.619,0 1.495,1.826 4.239,0.063 7.856,1.312 -0.303,-0.107 1.115,4.952 5.244,2.619 z"
  id="path3419" /><path
  d="m 618.125,48.455 c 1.828,4.89 -3.5,2.189 -5.237,3.931 -0.353,0.351 0.405,2.377 0,2.617 -0.599,0.355 -1.936,-0.171 -2.619,0 -2.666,0.667 -8.703,4.551 -11.787,6.55 -4.692,-1.091 -10.416,-0.041 -14.405,-1.312 -0.28,-0.089 0.281,-2.497 0,-2.619 -1.399,-0.607 -8.585,1.489 -6.548,-2.619 5.602,0.119 9.592,2.624 14.405,0 1.777,-0.403 1.086,-3.277 1.31,-5.236 5.646,-1.717 1.623,6.233 6.55,5.236 3.99,-1.601 -1.915,-4.998 1.31,-6.548 6.48,0.239 11.545,-2.956 17.021,0 z"
  id="path3421" /><path
  d="m 687.532,47.145 c 8.751,-1.331 11.886,2.957 18.334,3.929 -0.532,2.523 -5.077,1.035 -3.929,5.238 0.405,1.775 3.278,1.086 5.238,1.31 -2.019,8.837 -10.289,-2.808 -14.405,3.931 -5.406,-1.231 1.967,-7.116 -6.548,-5.238 -1.048,-4.545 1.953,-5.037 1.31,-9.17 z"
  id="path3423" /><path
  d="m 654.794,57.622 c 0.034,-1.271 1.604,-1.016 2.617,-1.31 1.312,0 2.619,0 3.931,0 0.219,2.84 -4.647,0.594 -6.548,1.31 z"
  id="path3427" /><path
  d="m 631.22,57.622 c 3.683,-0.188 3.775,3.208 3.929,6.548 -5.298,1.468 -6.474,-4.022 -3.929,-6.548 z"
  id="path3429" /><path
  d="m 728.131,62.86 c -2.619,0 -5.238,0 -7.857,0 -0.166,-2.349 1.604,-2.762 1.311,-5.238 4.472,-0.547 7.46,0.395 6.546,5.238 z"
  id="path3431" /><path
  d="m 565.741,60.241 c 0.994,3.419 -2.376,1.669 -3.929,2.619 -1.179,0.722 -1.075,2.3 -2.62,2.619 -1.271,0.036 -1.016,1.603 -1.31,2.619 1.331,3.953 3.681,-0.654 6.548,1.31 0.688,0.472 0.392,3.619 1.31,3.929 2.667,0.901 4.391,-0.662 7.857,0 -0.484,8.343 10.037,5.68 15.715,7.857 -0.52,-0.719 0.649,-3.358 0,-3.929 -0.161,-0.143 -2.616,0.114 -2.619,0 -0.061,-2.427 5.983,-1.502 2.619,-7.858 7.416,1.305 8.299,-3.923 15.715,-2.619 -0.212,1.535 -2.388,1.105 -3.929,1.312 0,2.62 0,5.237 0,7.856 4.976,0.589 9.317,-3.394 13.096,0 0.375,2.758 -3.131,3.835 -5.237,5.238 -0.952,0.634 -2.872,0.518 -3.93,1.31 -0.336,0.251 -1.047,2.529 -1.31,2.619 -1.497,0.516 -3.659,-0.208 -5.239,0 -1.803,0.238 -9.328,3.485 -14.405,1.312 -0.573,-0.246 0.154,-1.443 -1.31,-1.312 -1.089,0.102 -2.171,1.125 -3.93,1.312 -2.808,0.295 -4.049,0.31 -6.549,1.31 -0.466,0.188 -2.322,-0.361 -2.617,0 -1.381,1.688 -2.673,0.653 -5.238,1.312 -1.505,0.385 -1.689,2.225 -2.619,2.617 -3.905,1.658 -9.566,0.296 -13.096,1.312 -0.532,-2.523 -5.077,-1.035 -3.931,-5.238 3.475,-0.02 7.711,0.729 7.857,-2.619 -0.296,-1.668 -3.908,-1.716 -3.929,0 -1.935,-1.266 -3.611,1.289 -3.931,1.312 -0.906,0.059 -1.465,-1.194 -2.619,-1.312 -1.487,-0.147 -2.481,1.325 -2.617,1.312 -2.972,-0.348 -4.367,-3.827 -9.168,-2.619 1.297,-3.506 7.979,-1.625 7.856,-6.548 -0.071,-1.066 -2.571,-1.718 -3.929,-1.312 -1.349,0.404 -1.113,2.078 -2.619,2.619 -2.483,0.895 -4.526,0.401 -6.548,1.312 -0.853,-1.332 -3.012,-1.354 -2.619,-3.931 -1.72,0.188 -3.527,-0.245 -5.238,0 -0.563,0.08 -3.356,1.132 -2.619,1.312 -1.419,-0.343 -0.891,-2.588 -2.619,-2.619 -2.302,-0.042 -3.645,1.972 -7.856,1.31 -0.37,-2.713 3.869,-0.943 5.238,-2.619 1.25,-1.526 1.941,-0.367 3.929,-1.31 0.501,-0.238 0.927,-2.483 1.31,-2.62 1.505,-0.534 0.841,1.216 1.312,1.312 0.276,0.056 6.417,-2.229 7.855,-2.62 0.438,-0.119 2.357,0.318 2.619,0 2.129,-2.604 6.387,-0.828 10.479,-2.619 0.697,-0.306 2.078,-2.432 2.619,-2.619 1.151,-0.4 2.729,0.261 3.929,0 3.989,-0.876 14.391,-2.016 22.266,-2.629 z m -18.335,13.096 c 4.478,0.547 7.462,-0.396 6.548,-5.237 -3.189,0.738 -6.735,1.12 -6.548,5.237 z m -11.786,1.309 c 5.146,-1.216 3.306,4.553 9.167,2.619 -0.223,-1.959 0.47,-4.833 -1.31,-5.238 -1.479,3.456 -1.549,-5.285 -6.548,-2.62 -0.411,1.772 -1.864,2.502 -1.309,5.239 z"
  id="path3435" /><path
  d="m 568.36,65.479 c 1.746,0 3.492,0 5.238,0 0,0.873 0,1.746 0,2.619 -1.746,0 -3.492,0 -5.238,0 0,-0.873 0,-1.746 0,-2.619 z"
  id="path3437" /><path
  d="m 667.889,68.098 c 3.987,6.507 -5.201,5.58 -3.932,13.096 -4.521,-1.031 -5.76,1.224 -6.548,3.929 -5.694,-0.021 -11.78,-0.433 -15.715,1.312 -1.508,-1.548 -1.48,-4.629 -1.31,-7.857 -4.938,-1.007 -6.261,1.598 -10.479,1.312 0.612,-2.795 -1.871,-2.495 -3.929,-2.619 -0.58,-1.166 -1.15,-2.344 -2.619,-2.619 0.571,-1.584 2.896,-1.507 3.929,-2.619 1.093,-1.173 0.104,-4.2 2.619,-3.929 4.104,0.264 5.354,3.377 7.857,5.237 3.648,1.5 3.854,-1.688 5.237,-2.617 1.249,-0.841 3.44,-0.996 3.93,-2.62 8.286,-1.432 12.357,-0.677 20.96,-0.006 z"
  id="path3439" /><path
  d="m 781.822,74.646 c 0.873,0 1.746,0 2.619,0 0.611,2.794 -1.871,2.494 -3.929,2.619 0.25,-1.06 1.314,-1.305 1.31,-2.619 z"
  id="path3445" /><path
  d="m 619.434,79.885 c 0,1.744 0,3.49 0,5.236 -2.619,0 -5.238,0 -7.857,0 1.725,-2.639 4.298,-4.429 7.857,-5.236 z"
  id="path3447" /><path
  d="m 1168.149,82.504 c 3.229,-0.173 6.312,-0.196 7.857,1.312 -0.021,1.997 -9.703,2.869 -7.857,-1.312 z"
  id="path3449" /><path
  d="m 589.313,151.912 c -0.861,1.758 -2.799,2.439 -5.238,2.619 -1.318,-3.939 2.917,-2.321 5.238,-2.619 z"
  id="path3475" /><path
  d="m 768.727,166.317 c -4.999,0.634 -8.359,-0.372 -10.479,-2.619 -2.423,0.197 -0.805,4.435 -2.618,5.238 -2.239,-0.059 -3.394,0.973 -3.931,2.619 -4.311,0.055 -6.52,2.211 -11.786,1.31 -1.439,-9.735 7.018,-9.573 10.479,-14.406 2.603,2.184 1.666,-0.118 5.238,0 -0.521,3.141 5.965,-0.726 3.929,3.931 4.316,0.049 9.266,-0.537 9.168,3.927 z"
  id="path3483" /><path
  d="m 679.677,185.961 c 4.119,-1.5 3.182,2.058 5.236,2.619 -0.82,3.186 -6.615,0.693 -5.236,-2.619 z"
  id="path3485" /><path
  d="m 30.121,220.01 c -2.983,-0.366 -4.923,0.313 -5.238,2.617 -1.917,-1.139 -4.149,-1.96 -3.929,-5.236 -3.979,-1.961 -8.619,3.957 -7.855,-1.312 2.812,-2.427 9.593,-0.884 14.404,-1.31 -1.62,4.241 4.236,1.004 2.618,5.241 z"
  id="path3489" /><path
  d="m 716.344,214.772 c 1.31,0 2.619,0 3.929,0 0,0.873 0,1.746 0,2.619 -1.31,0 -2.619,0 -3.929,0 0,-0.873 0,-1.746 0,-2.619 z"
  id="path3491" /><path
  d="m 705.866,216.082 c 3.75,-0.258 7.147,-0.163 6.548,3.931 -1.856,-0.112 -3.709,-0.218 -3.929,1.31 -1.757,-0.865 -2.437,-2.802 -2.619,-5.241 z"
  id="path3493" /><path
  d="m 677.056,222.629 c 0.367,1.474 -1.276,4.079 -2.619,5.238 -0.444,0.383 -2.258,-0.442 -2.62,0 -0.178,0.217 -1.154,2.563 -1.309,2.619 -1.138,0.42 -2.818,-0.476 -3.932,0 -1.856,0.797 -1.448,3.996 -6.548,2.619 0.361,-1.165 -0.451,-2.8 0,-3.929 0.647,-1.619 1.714,-0.234 2.619,-1.312 0.626,-0.742 1.832,-3.57 2.619,-3.929 3.156,-1.431 8.71,1.142 11.79,-1.306 z"
  id="path3495" /><path
  d="m 687.532,229.177 c 2.737,-0.557 3.468,0.896 5.238,1.31 -0.862,1.634 -0.245,3.707 -1.31,5.238 -0.896,1.289 -2.677,0.351 -3.931,1.31 -0.771,0.59 -0.063,3.728 -2.619,2.619 -1.1,-1.52 -1.728,-3.511 -1.31,-6.548 2.862,0.238 4.17,-1.072 3.932,-3.929 z"
  id="path3497" /><path
  d="m 796.228,235.725 c 5.544,0.596 3.047,5.097 1.31,7.855 -4.319,-0.753 -1.879,-4.942 -1.31,-7.855 z"
  id="path3499" /><path
  d="m 770.036,252.75 c 0.398,3.454 -2.732,3.377 -5.236,3.931 -0.398,-3.453 1.811,-4.3 5.236,-3.931 z"
  id="path3503" /><path
  d="m 18.334,255.369 c -1.626,2.739 -3.809,4.922 -6.548,6.548 -4.231,-1.332 -6.853,0.931 -7.855,-5.236 5.974,0.736 8.153,-2.323 14.403,-1.312 z"
  id="path3505" /><path
  d="m 102.147,278.941 c 0.188,3.682 -3.207,3.777 -6.548,3.929 -2.184,1.747 -2.034,5.824 -3.931,7.858 -0.945,0.942 -9.007,0.885 -9.167,3.929 -0.164,3.106 -9.419,0.964 -11.786,5.238 -3.654,-2.485 0.242,-8.385 1.312,-10.479 2.31,-1.305 3.716,-0.164 7.855,-1.31 3.062,-0.847 1.9,-3.483 6.55,-1.312 1.939,-1.729 4.781,-3.405 7.855,-5.236 0.709,-0.422 -0.188,-1.23 1.312,-1.312 1.13,-0.054 5.094,-4.379 6.548,-1.305 z"
  id="path3509" /><path
  d="m 658.721,301.205 c 2.603,0.019 1.666,3.573 5.237,2.619 1.031,5.397 -6.271,2.46 -5.237,7.857 -1.521,-1.101 -3.511,-1.729 -6.548,-1.312 -2.201,-7.437 7.539,-2.937 6.548,-9.164 z"
  id="path3519" /><path
  d="m 65.479,302.514 c 0.873,0 1.747,0 2.62,0 0.261,3.688 -9.789,-0.362 -2.62,0 z"
  id="path3521" /><path
  d="m 220.01,335.255 c -0.572,1.609 -1.678,2.688 -3.931,2.617 -0.161,8.136 -5.227,11.361 -3.929,20.954 -3.126,0.708 -2.057,-1.999 -2.619,-3.929 -0.681,-2.334 -1.854,-6.901 -1.31,-11.786 0.417,-3.74 2.618,-6.64 2.617,-9.167 3.484,0.014 7.484,-0.495 9.172,1.311 z"
  id="path3523" /><path
  d="m 750.392,387.637 c 0.873,0 1.746,0 2.619,0 4.834,-1.026 8.128,3.734 11.787,3.929 2.696,0.142 1.223,2.787 2.619,3.929 1.058,0.866 4.319,-0.966 3.929,1.312 1.146,3.496 -2.792,2.782 -5.238,2.619 -0.547,-0.037 -6.886,-1.978 -7.855,-2.619 -2.179,-1.439 -3.899,-5.104 -5.239,-6.548 -0.792,-0.854 -3.576,-0.001 -2.622,-2.622 z"
  id="path3527" /><path
  d="m 557.885,721.582 c 4.306,2.242 2.068,11.025 2.619,17.024 -1.51,4.236 -1.482,-3.517 -1.312,-5.238 -0.324,-1.423 -2.604,-0.889 -2.619,-2.619 -0.036,-1.271 -1.603,-1.017 -2.619,-1.31 1.164,-2.764 3.987,-3.871 3.931,-7.857 z"
  id="path3539" /><path
  d="m 542.17,758.251 c 6.084,0.769 7.904,-1.791 11.784,0 1.138,0.871 0.768,3.83 2.619,3.93 1.273,0.065 1.944,3.059 2.619,3.929 2.178,2.811 4.576,4.892 6.548,7.857 5.338,-0.975 4.51,4.221 10.479,2.619 0.954,3.571 -2.604,2.637 -2.619,5.236 3.701,1.082 3.393,-1.846 6.548,-1.31 0.189,2.53 3.752,0.572 3.929,3.929 0.135,2.527 4.032,1.304 3.931,5.238 -4.388,-1.692 -6.901,2.234 -10.479,2.619 -2.785,0.299 -6.021,-1.273 -9.167,-1.312 -4.586,-0.052 -9.212,2.49 -14.406,1.312 -0.129,-5.367 8.193,-2.283 6.55,-9.167 -0.163,-2.895 -5.557,-0.558 -7.857,-1.312 -2.486,-3.188 -4.875,-6.474 -3.929,-13.096 -4.005,-0.95 -3.854,2.26 -7.857,1.31 -2.007,-3.668 -9.688,-1.66 -9.167,-7.855 -6.68,-0.305 -15.016,1.047 -14.405,-6.548 -2.619,0 -5.236,0 -7.856,0 -3.57,1.229 -2.487,7.116 -9.167,5.236 -3.08,0.412 -0.777,6.207 -5.238,5.238 -3.349,0.058 -1.597,-0.974 -1.31,-2.619 0.591,-4.646 4.42,-6.057 5.236,-10.477 8.192,-1.615 16.32,-5.679 24.882,-5.238 2.888,0.148 8.073,1.718 10.479,2.619 -0.135,-0.051 0.567,2.237 1.31,1.31 2.142,-2.675 0.484,3.35 6.55,1.312 -0.007,1.748 -0.007,3.494 -0.007,5.24 z"
  id="path3541" /><path
  d="m 506.809,764.799 c 4.391,-0.898 4.788,2.195 5.239,5.236 -3.156,-0.536 -2.849,2.394 -6.55,1.312 -0.533,-3.157 2.394,-2.848 1.311,-6.548 z"
  id="path3543" /><path
  d="m 594.552,775.274 c 1.746,0 3.492,0 5.236,0 0,0.873 0,1.746 0,2.619 -1.744,0 -3.49,0 -5.236,0 0,-0.873 0,-1.746 0,-2.619 z"
  id="path3545" /><path
  d="m 601.1,789.679 c 1.223,0.96 1.981,2.382 2.619,3.929 6.804,0.693 10.495,-1.727 15.715,-2.619 0.7,4.104 4.885,4.719 9.167,5.238 0,1.31 0,2.619 0,3.929 1.746,0 3.492,0 5.238,0 -2.184,2.604 0.116,1.666 0,5.239 4.599,-2.438 4.308,0.994 7.855,2.619 1.295,5.223 -3.914,3.943 -2.619,9.167 -1.758,-0.862 -2.438,-2.8 -2.619,-5.238 -3.056,0 -6.109,0 -9.167,0 -2.474,0.146 -0.907,4.329 -3.929,3.929 -2.903,0.723 -1.864,-2.5 -3.929,-2.617 -5.479,0.193 -5.479,5.872 -7.857,9.167 -1.892,-1.604 -1.984,-4.998 -3.929,-6.55 -5.414,0.678 -13.207,-0.904 -17.025,0 -0.501,0.118 -1.725,2.584 -1.31,2.619 -2.624,-0.227 -0.985,-4.723 -3.929,-3.929 -1.611,-0.572 -2.689,-1.676 -2.619,-3.929 5.287,-3.664 11.104,1.449 17.022,1.31 0.37,-3.425 -0.478,-5.634 -3.929,-5.237 0.211,-1.534 2.388,-1.104 3.929,-1.311 2.893,0.122 -2.251,-4.226 1.312,-6.549 0.632,-4.125 -6.004,-0.98 -6.548,-3.929 -0.835,-4.768 6.242,-1.616 6.552,-5.238 z"
  id="path3547" /><path
  d="m 565.741,819.802 c -3.942,-1.503 -7.618,1.753 -10.477,1.31 -0.092,-0.015 0.088,-1.227 0,-1.31 -0.662,-0.625 -3.104,0.438 -3.929,0 -1.146,-0.607 -1.674,-3.024 -2.619,-3.931 -0.924,-0.883 -3.472,0.023 -2.619,-2.617 1.924,-0.447 4.293,-2.498 6.548,-2.619 2.118,-0.114 2.257,1.017 3.929,1.31 4.215,0.736 3.803,0.866 6.548,3.93 1.015,1.129 2.105,-0.615 2.619,1.311 0.218,0.81 -0.167,1.785 0,2.616 z"
  id="path3551" /><path
  d="m 652.175,810.635 c 5.978,-0.739 8.154,2.318 14.403,1.31 1.193,8.177 -7.496,6.475 -14.403,6.548 0,-2.621 0,-5.239 0,-7.858 z"
  id="path3553" /><path
  d="m 0,310.372 c 2.767,-2.886 3.871,1.683 7.857,1.312 2.49,0.308 1.526,-2.837 2.619,-3.929 1.091,-1.094 4.261,-0.104 3.929,-2.619 2.693,0.424 3.527,-0.727 5.238,-1.312 1.165,-0.396 3.524,-0.565 5.237,-1.31 2.185,-0.946 2.634,-3.53 7.857,-2.619 1.917,-1.139 4.151,-1.961 3.929,-5.238 2.545,-0.105 4.454,-0.34 6.548,-1.31 2.203,-1.021 3.539,-5.697 5.238,-2.619 1.909,-2.457 4.313,-4.419 6.548,-6.548 1.722,-0.462 2.062,-2.307 3.931,-2.619 1.887,-0.296 0.457,-3.909 2.617,-3.929 -0.336,-2.722 -5.753,-0.358 -6.548,-2.619 -4.884,-1.394 -2.071,4.912 -6.548,3.929 -0.369,-2.115 1.238,-2.254 1.312,-3.929 0.519,-3.14 -5.967,0.727 -3.931,-3.931 -2.504,0.553 -5.637,0.477 -5.236,3.931 -4.135,-0.643 -4.625,2.358 -9.167,1.31 0.754,-2.738 3.247,-3.738 2.617,-7.855 3.123,-1.681 7.098,-2.509 7.857,-6.55 -0.249,-1.061 -1.314,-1.305 -1.31,-2.617 -5.192,0.155 -7.182,4.905 -14.405,1.31 0.927,-0.967 3.263,-6.41 -1.312,-5.238 -0.221,-4.586 4.607,-4.123 6.55,-6.548 -1.722,-4.063 0.354,-3.738 0,-9.167 2.492,-0.562 3.289,-2.821 6.548,-2.619 4.091,-4.203 7.767,-8.818 15.715,-9.167 0.607,-0.964 1.95,-1.769 2.619,-2.619 0.583,-0.738 1.229,0.221 1.31,-1.31 0.09,-1.708 2.508,-0.88 3.929,-1.31 0.575,-0.176 3.416,-1.694 3.931,-3.931 4.029,-0.976 2.517,3.597 6.548,2.619 3.658,-2.017 10.157,-1.193 10.477,-6.548 2.83,-0.431 1.962,2.118 3.931,2.619 3.043,0.774 6.393,-1.826 9.167,-2.619 3.301,-0.395 2.813,-3.408 3.929,-5.238 0.33,-0.542 2.396,-0.84 2.619,-1.31 0.426,-0.898 -0.616,-3.173 0,-3.931 0.832,-1.02 5.457,0.843 3.929,-2.617 -0.036,-1.274 -1.603,-1.019 -2.619,-1.312 -1.542,-0.545 -0.681,2.329 -1.31,2.619 -1.552,0.715 -7.831,-0.027 -10.479,2.619 -1.975,1.974 -0.914,-0.706 -5.236,-1.312 -5.527,-0.771 -12.671,1.646 -18.334,0 -1.388,-2.712 2.2,-1.839 2.617,-2.617 0.919,-1.716 -0.834,-4.948 1.312,-6.55 -0.563,-2.056 -4.119,-1.117 -2.619,-5.236 7.412,-1.755 13.629,-4.705 22.263,-5.238 1.616,-2.143 1.155,-1.385 5.238,-2.619 0.229,-0.069 3.198,-2.203 3.929,-1.31 1.313,1.603 2.48,-0.705 7.857,0 0.167,2.349 -1.603,2.762 -1.31,5.236 5.509,-0.854 11.141,1.73 14.404,-1.31 0.345,-0.319 0.979,-2.467 1.312,-2.619 1.754,-0.805 5.235,1.157 5.236,-1.31 1.273,-3.521 -2.744,-1.538 -3.929,-2.619 -0.971,-0.889 0.762,-6.73 -3.929,-3.93 -0.954,-3.572 2.602,-2.637 2.619,-5.237 -0.962,-3.84 -3.974,-5.631 -6.548,-7.857 -2.652,-4.607 5.09,-2.432 5.236,-5.238 0.207,-3.924 16.473,-2.02 20.953,-3.93 1.436,-0.608 2.259,-2.531 3.929,-2.619 1.498,-0.079 4.479,-1.478 6.55,-2.618 0.688,-0.38 -0.173,-1.23 1.31,-1.311 1.888,-0.099 2.832,-2.492 5.239,-2.619 2.2,-0.116 1.873,-1.776 5.236,-2.619 1.154,-0.289 2.245,-0.889 3.931,-1.31 0.943,-0.236 1.109,-1.265 1.31,-1.312 4.172,-0.943 8.6,0.04 13.098,-1.31 0.401,-0.121 0.058,-1.244 1.31,-1.31 0.494,-0.026 3.655,0.334 3.929,0 0.099,-0.118 -0.122,-1.272 0,-1.312 3.36,-1.038 8.154,0.293 10.479,-3.929 1.422,0.324 0.889,2.604 2.619,2.619 0.873,-1.26 5.302,0.213 6.548,-1.312 1.254,-1.533 4.194,-1.365 7.855,-2.619 2.629,-0.898 3.813,-3.631 7.857,-2.618 -0.049,-0.014 3.837,1.197 3.929,1.311 2.585,3.16 4.104,-2.972 5.238,2.619 3.929,0 7.855,0 11.786,0 0,1.746 0,3.492 0,5.237 6.423,0.391 11.466,-0.534 17.023,0 2.973,0.285 5.981,2.182 9.167,2.618 2.122,0.292 4.45,-0.417 6.548,0 3.124,0.62 6.098,2.508 9.167,2.619 4.556,0.166 8.187,-2.535 13.098,-1.31 2.69,-0.688 2.794,1.804 3.929,2.619 1.23,0.884 3.456,0.961 3.929,2.618 1.858,-0.111 3.708,-0.217 3.931,1.311 3.49,0 6.982,0 10.477,0 1.362,5.622 5.627,8.342 13.096,7.856 3.803,0.679 4.204,-3.479 6.55,-5.237 0.871,-0.654 2.85,0.404 2.617,-1.312 3.959,-0.404 10.187,1.455 10.479,-2.618 4.031,-0.977 2.517,3.596 6.548,2.618 2.332,0.903 3.118,-2.008 5.238,-2.618 2.007,-0.577 4.488,0.387 6.548,0 3.521,-0.66 5.549,-4.214 9.167,-2.618 1.54,0.548 0.683,-2.333 1.31,-2.619 2.559,-1.168 9.563,1.918 10.479,-1.312 1.886,0.297 0.457,3.909 2.619,3.931 4.086,0.688 5.873,-2.59 7.855,-3.931 1.298,-0.876 2.827,-0.345 3.93,-1.31 0.83,-0.729 0.017,-3.62 2.618,-2.619 3.873,3.769 -2.796,10.403 1.312,14.405 5.76,-1.661 9.479,-5.362 13.096,-9.167 5.906,-0.122 -0.57,3.955 1.312,7.855 2.546,0.218 3.72,-0.45 5.236,-1.31 2.41,-1.363 4.395,-2.805 9.168,-3.93 3.154,-0.535 2.848,2.393 6.548,1.311 1.477,2.016 3.763,3.223 5.237,5.238 2.619,0 5.238,0 7.857,0 0.725,3.641 5.063,3.667 7.855,5.237 5.722,0.918 7.377,-2.228 13.098,-1.311 1.81,2.119 4.634,3.224 3.929,7.857 -6.519,-1.278 -7.8,2.677 -11.786,3.93 1.047,4.073 6.509,2.441 10.478,2.619 6.407,0.284 13.758,0.217 19.645,-1.312 0.325,-0.084 0.119,-1.247 1.311,-1.31 1.849,-0.098 3.718,0.377 3.93,-1.311 1.886,0.296 0.457,3.908 2.62,3.93 3.938,1.319 2.318,-2.918 2.619,-5.238 2.521,0.532 1.032,5.077 5.236,3.929 3.172,-0.756 2.912,-4.943 3.93,-7.856 1.857,0.112 3.709,0.217 3.93,-1.312 -0.957,-3.014 -4.716,-0.199 -6.548,0 -1.713,0.188 -3.538,-0.271 -5.238,0 -4.235,0.681 -15,2.125 -23.573,1.312 -1.398,-4.894 3.252,-3.732 2.619,-7.857 -3.099,-3.012 -11.754,-0.469 -17.022,-1.31 -1.366,-3.709 -1.366,-5.457 0,-9.167 5.661,-0.395 9.791,-0.596 17.022,-1.312 2.532,-0.25 3.599,-1.267 5.238,-1.31 2.042,-0.054 12.063,3.64 15.715,0 1.256,-4.16 -2.22,-1.864 -5.239,-2.619 -0.689,-0.173 -1.447,-1.323 -1.31,-1.311 -2.194,-0.216 -2.915,1.143 -5.238,1.311 -6.001,0.433 -11.897,-1.017 -18.334,0 0.247,-0.039 -0.604,2.189 -1.31,1.31 -0.423,-0.527 -3.163,-1.861 -3.931,-3.929 -0.121,-4.051 3.955,-3.902 7.857,-3.929 1.076,-5.005 -6.314,-1.543 -5.238,-6.548 1.625,0.077 1.744,-2.01 2.619,-2.619 0.472,-0.329 2.27,0.428 2.619,0 0.146,-0.183 -0.19,-1.196 0,-1.312 1.689,-1.015 6.6,0.715 5.238,-3.929 -0.741,-1.94 -2.671,-0.706 -3.931,0 -0.626,0.352 -2.118,2.447 -2.618,2.619 -1.554,0.533 -3.702,-0.576 -5.237,0 -2.27,0.85 -2.753,3.362 -5.238,2.619 -1.758,0.86 -2.438,2.799 -2.619,5.237 -8.855,1.184 -17.489,2.592 -24.882,5.237 1.118,-7.229 -2.59,-9.633 -7.855,-10.477 1.635,-3.167 5.366,-4.236 9.166,-5.238 1.31,-0.998 2.604,-1.601 3.93,-2.619 1.525,-1.175 2.903,-2.44 5.238,-3.929 0.616,-0.395 0.972,-1.109 1.31,-1.311 1.067,-0.633 2.646,-0.534 3.929,-1.311 2.228,-1.346 3.713,-4.178 6.549,-3.929 -0.536,-3.155 2.393,-2.847 1.311,-6.549 6.854,0.832 13.872,-4.295 23.571,-2.618 3.668,0.634 5.827,3.251 9.168,3.929 7.819,-0.092 10.011,-1.584 17.023,0 -0.5,4.866 5.309,3.424 3.93,9.167 3.422,-0.365 6.555,-0.441 5.237,3.929 5.576,-0.771 8.662,0.942 13.097,1.312 0.788,2.705 2.024,4.959 6.549,3.929 1.775,-0.405 1.086,-3.279 1.31,-5.239 9.481,-0.758 7.055,4.539 6.548,11.787 1.312,0 2.62,0 3.93,0 2.437,0.4 0.216,-4.343 1.311,-5.237 0.404,-0.331 3.861,-1.354 2.619,-5.238 2.484,0.374 1.534,-2.926 2.619,-3.93 1.104,-1.021 6.587,-0.239 5.237,-3.93 2.902,-0.721 1.864,2.501 3.93,2.619 2.239,0.059 3.392,-0.973 3.929,-2.619 1.058,-1.126 3.587,-0.777 3.929,-2.619 4.771,-0.404 8.522,0.208 11.786,1.312 0.456,3.726 -2.511,4.146 -5.237,5.237 -1.729,0.69 -5.742,4.249 -9.167,5.238 1.479,4.638 -5.505,7.453 -1.311,10.478 -1.354,3.446 -5.192,4.411 -6.548,7.856 1.402,0.434 0.44,2.938 1.311,3.93 1.041,1.188 2.479,0.424 3.93,1.311 1.661,1.017 3.854,3.553 6.548,2.619 -0.481,2.228 1.021,2.471 2.619,2.619 0.167,2.349 -1.604,2.762 -1.312,5.236 -2.228,-0.479 -2.471,1.021 -2.619,2.619 -0.809,-0.979 -1.688,-1.749 -2.618,-2.619 -0.91,-0.853 -2.536,-0.939 -2.618,-2.618 -5.604,0.973 -1.74,4.868 -2.619,7.856 -0.283,0.962 -3.694,1.38 -2.619,3.929 -0.324,1.423 -2.604,0.891 -2.619,2.619 -1.345,0.75 -0.927,-2.584 -1.31,-2.619 -2.761,-0.25 -4.17,1.479 -9.168,1.312 -3.565,-0.121 -5.628,-2.4 -9.166,-1.312 0.086,-4.451 -6.728,-2.004 -6.55,-6.548 -3.477,1.325 -7.448,2.153 -7.855,6.548 1.263,3.242 5.028,-1.804 9.167,0 0.167,2.351 -1.604,2.764 -1.312,5.238 4.111,0.646 3.461,-4.514 6.55,-1.311 -0.853,1.332 -3.013,1.354 -2.619,3.93 1.188,4.752 3.864,0.797 7.855,1.31 2.149,6.86 11.042,2.426 19.646,2.619 3.875,0.087 6.786,2.109 10.477,1.312 1.535,-0.212 1.104,-2.39 1.311,-3.931 3.402,0.784 4.713,-0.524 3.93,-3.929 2.183,0 4.365,0 6.548,0 1.075,-6.313 -7.917,-2.56 -7.857,-7.856 1.521,-1.1 3.512,-1.728 6.549,-1.311 5.205,-1.779 7.136,-6.833 13.096,-7.856 2.34,-0.368 2.688,1.237 1.311,1.311 -0.369,2.115 1.236,2.255 1.311,3.929 3.085,0.029 3.854,-2.255 7.856,-1.31 -0.41,2.749 -8.793,4.164 -3.93,7.855 -2.24,2.127 -4.767,3.965 -9.167,3.931 3.906,8.143 -6.469,5.525 -5.237,14.405 4.844,0.913 5.784,-2.071 5.237,-6.549 2.585,1.039 2.938,-2.271 3.93,-2.618 2.869,-1.009 5.254,0.375 7.856,-1.311 0.728,-0.47 -0.204,-1.229 1.311,-1.311 2.107,-0.11 2.948,-1.144 5.237,-2.619 0.166,-2.351 -1.604,-2.764 -1.311,-5.238 4.104,0.613 3.69,-3.292 5.237,-5.238 -0.835,-1.099 -6.121,-4.1 -6.548,-1.31 -2.024,-1.903 -2.749,-5.108 -2.618,-9.167 2.35,0.167 2.763,-1.604 5.237,-1.312 -1.501,-5.43 2.755,-5.103 2.619,-9.167 8.729,-0.438 12.312,-6.021 18.334,-9.167 0.418,-3.074 2.068,-4.916 1.31,-9.167 0.81,-1.452 7.676,-4.378 7.857,-7.855 0.099,-1.873 2.563,-0.662 3.929,-1.312 0.484,-0.229 0.948,-2.497 1.311,-2.618 1.563,-0.527 3.628,0.379 5.237,0 1.434,-0.337 9.688,-3.409 13.099,0 1.466,1.466 1.585,-0.229 6.548,0 2.705,0.125 3.49,0.383 5.237,1.311 -5.114,6.234 -14.197,8.501 -20.953,13.096 -4.856,0.929 -5.62,-2.237 -10.479,-1.31 -3.922,0.861 1.253,2.799 0,5.238 -4.022,0.342 -5.889,2.842 -9.167,3.93 -1.122,4.178 2.063,4.05 2.619,6.548 1.123,4.178 -2.062,4.05 -2.619,6.548 1.164,2.766 3.987,3.871 3.93,7.857 -4.896,-0.094 -7.499,2.104 -9.167,5.236 0.404,1.777 3.278,1.087 5.237,1.312 -0.48,-2.229 1.021,-2.472 2.619,-2.619 0.732,1.886 2.043,3.196 3.93,3.929 0.532,2.453 -3.136,1.578 -3.93,2.619 -1.561,2.047 -0.145,6.396 -2.619,7.857 4.388,2.951 2.365,-2.613 3.93,-3.931 0.9,-0.758 2.96,-0.812 3.93,-1.31 1.3,-0.667 2.355,-2.536 3.929,-2.619 1.087,-0.057 2.102,-1.854 3.93,-1.311 -1.216,5.146 4.554,3.305 2.618,9.167 -1.271,0.036 -1.016,1.604 -1.309,2.62 -5.688,-1.321 -5.839,2.894 -7.858,5.237 0.146,3.347 2.401,4.583 3.93,6.549 2.229,0.48 2.472,-1.021 2.619,-2.619 2.351,-0.167 2.764,1.604 5.238,1.311 -0.286,-4.79 -1.8,-5.023 0,-9.167 4.119,-1.5 3.183,2.056 5.238,2.619 2.468,0.476 1.557,-3.062 2.619,-3.93 0.757,-0.62 5.567,-0.946 3.929,-5.238 4.002,0.945 4.771,-1.34 7.856,-1.312 -1.653,-6.892 2.713,-7.765 2.619,-13.096 0.301,-2.046 -3.057,-0.438 -3.93,-1.311 -2.063,-2.063 -1.313,-0.743 -3.929,1.311 -2.766,0.305 -3.318,-2.76 -5.238,-3.929 -1.42,-0.864 -4.659,-0.097 -5.237,-2.619 -1.388,-4.879 2.758,-4.229 3.93,-6.548 -0.297,-1.887 -3.909,-0.457 -3.93,-2.619 -0.979,-4.035 4.516,-1.597 2.619,-6.548 2.834,-0.563 4.318,-3.412 6.548,-5.238 0.923,-0.757 1.788,-1.983 2.619,-2.619 1.801,-1.377 4.167,-1.98 6.548,-3.929 1.669,-1.365 3.75,-2.31 6.548,-3.93 0.771,-0.445 2.199,-2.465 2.619,-2.618 1.063,-0.393 4.479,0.761 5.237,0 0.085,-0.085 -0.089,-1.297 0,-1.312 4.064,-0.612 8.485,0.223 13.097,-1.31 0.212,1.534 2.389,1.104 3.93,1.31 0,1.312 0,2.619 0,3.93 2.046,-0.455 4.546,0.603 6.548,0 1.15,-0.347 2.056,-2.473 2.619,-2.618 3.365,-0.878 6.941,-0.942 11.785,-1.312 3.521,-0.901 2.531,2.708 3.93,3.93 2.856,0.237 4.167,-1.071 3.929,-3.93 4.864,2.121 12.882,1.088 19.646,1.312 -0.902,3.521 2.707,2.53 3.929,3.929 -0.167,2.349 1.604,2.762 1.311,5.238 -1.857,-0.112 -3.709,-0.217 -3.93,1.31 0.146,3.347 4.386,2.6 7.857,2.619 -0.784,3.402 0.524,4.712 3.929,3.929 0.118,3.573 -2.182,2.637 0,5.238 6.205,-0.967 9.004,1.473 14.405,1.311 1.097,2.832 3.391,4.467 2.619,9.167 5.212,-0.956 5.265,-0.956 10.477,0 0.036,1.272 1.604,1.017 2.619,1.311 -0.237,2.856 1.072,4.167 3.929,3.929 0.66,5.978 -2.271,7.423 0,11.786 -4.541,-1.05 -5.032,1.951 -9.166,1.311 0,1.746 0,3.491 0,5.237 1.104,0.987 2.843,1.646 3.929,2.619 1.11,0.997 1.813,2.606 2.619,3.929 2.619,0 5.237,0 7.856,0 0.036,1.273 1.604,1.018 2.619,1.312 -1.393,4.884 4.912,2.072 3.929,6.548 2.63,-0.446 4.1,0.269 3.93,2.619 5.31,-0.07 7.853,2.625 10.478,5.237 0.187,2.021 -2.904,0.473 -3.929,1.311 -1.313,1.074 0.587,5.157 -3.93,3.929 -0.921,1.065 -2.467,2.264 -3.93,3.93 -1.008,1.147 -2.146,2.238 -2.619,3.93 -1.745,0 -3.491,0 -5.237,0 -2.268,2.099 -3.836,4.895 -5.237,7.857 -2.751,-3.417 -5.104,-1.114 -7.856,-2.62 -1.046,-2.446 -2.188,-4.796 -2.619,-7.856 -2.302,-2.501 -4.771,-4.834 -7.856,-6.548 -5.823,-1.021 -1.729,7.873 -9.167,5.237 -1.277,3.884 1.643,3.32 2.619,5.237 0.681,1.338 1.661,2.828 1.31,5.238 0.514,1.894 3.82,0.251 5.238,1.311 1.037,0.772 0.146,4.501 2.619,3.93 1.422,0.323 0.889,2.604 2.618,2.618 -0.323,1.423 -2.604,0.889 -2.618,2.619 -0.398,3.453 2.733,3.377 5.237,3.93 0.837,2.673 -2.003,2.819 -2.619,3.929 -0.215,0.386 0.342,2.416 0,2.619 -1.516,0.902 -5.439,-1.028 -6.548,1.31 -0.428,0.901 0.615,3.169 0,3.931 -0.859,1.061 -4.437,0.127 -3.93,2.618 0.036,1.272 1.604,1.017 2.619,1.311 2.391,1.017 -0.784,1.408 -2.619,1.311 -0.682,-1.938 -1.938,-3.302 -2.619,-5.237 -3.154,0.535 -2.847,-2.394 -6.548,-1.312 0,-1.31 0,-2.618 0,-3.929 -6.719,0.606 -8.048,-4.176 -13.096,-5.238 -1.042,6.093 4.938,6.665 7.856,9.167 1.061,0.909 0.82,3.834 2.618,3.93 1.434,0.074 2.604,4.673 2.619,9.167 -3.9,2.729 -3.356,-1.143 -6.548,-1.311 -1.508,-0.079 -2.343,-0.055 -2.619,-1.31 -4.937,1.007 -6.26,-1.6 -10.478,-1.312 -0.004,-2.264 -1.544,-2.71 -2.618,-3.929 -0.784,-0.889 -1.378,-2.172 -2.619,-2.619 -4.119,-1.5 -3.184,2.057 -5.239,2.619 -7.08,0.532 -2.861,-10.233 -9.167,-10.478 0.762,-5.126 -1.126,-7.604 -2.618,-10.478 -1.633,-0.373 -3.641,0.486 -5.238,0 -0.462,-0.142 -2.413,-2.595 -2.618,-2.619 -2.076,-0.243 -3.045,1.041 -5.238,1.311 -2.149,0.264 -4.391,-0.209 -6.548,0 -5.938,0.575 -11.465,3.552 -15.715,-1.311 0.558,-2.498 3.741,-2.37 2.618,-6.548 1.93,-0.733 3.316,-0.413 5.237,-1.311 2.304,-1.074 3.636,-3.92 9.168,-2.618 1.628,0.383 4.491,1.771 9.166,1.31 1.058,-0.104 1.315,-1.47 2.619,-1.31 0.554,0.066 1.832,1.218 1.311,1.31 3.626,-0.639 5.522,-4.194 9.167,-2.619 1.399,-4.892 -3.252,-3.73 -2.618,-7.855 1.776,-1.611 4.574,-1.595 6.549,-2.619 1.434,-0.745 1.545,-1.798 2.619,-2.619 1.444,-1.105 5.396,-0.125 5.237,-3.929 3.155,0.535 2.847,-2.394 6.548,-1.312 -0.213,-1.521 0.288,-2.33 1.311,-2.618 1.169,-4.999 -2.139,-8.358 0,-10.478 0.398,-2.438 -4.344,-0.216 -5.237,-1.311 -0.076,-0.094 0.085,-1.295 0,-1.311 -1.938,-0.324 -1.956,1.277 -2.619,1.311 -1.099,0.055 -2.696,-2.361 -6.549,-1.311 -0.166,-2.349 1.604,-2.762 1.312,-5.238 -3.354,0.14 -6.244,0.742 -7.857,2.619 -3.428,-2.256 3.256,-5.372 7.857,-3.929 0.62,-4.113 -1.635,-5.352 -3.931,-6.548 -4.353,-0.424 -1.421,6.437 -7.856,3.929 -1.432,-2.686 2.261,-1.874 2.619,-2.619 1.126,-2.338 -1.184,-5.999 1.31,-7.856 0.223,-2.84 -4.646,-0.593 -6.548,-1.311 -2.422,0.197 -0.804,4.436 -2.619,5.238 -5.672,-0.87 -8.109,1.493 -10.477,3.929 -2.751,-1.613 -5.105,-3.625 -7.857,-5.237 -4.644,0.157 -8.302,1.303 -9.167,5.237 0.212,1.535 2.389,1.104 3.93,1.311 -0.213,1.521 0.289,2.33 1.311,2.619 -0.563,2.057 -4.119,1.119 -2.619,5.237 -3.085,-0.028 -3.854,2.257 -7.856,1.311 -1.665,3.375 -4.438,9.462 0,11.787 -0.888,3.042 -4.353,3.506 -5.237,6.549 -4.548,-0.65 -6.968,1.892 -10.478,3.929 -2.334,1.354 -5.084,1.082 -5.238,3.929 -2.505,0.61 -5.637,-4.036 -5.237,1.312 -3.938,-2.914 -4.571,-1.544 -10.478,-1.312 -0.104,-4.264 -5.937,-2.795 -9.168,-3.929 -1.547,5.913 5.805,2.927 3.93,9.167 4.03,0.977 2.518,-3.595 6.549,-2.619 1.084,4.7 -2.953,6.335 0,9.167 -0.048,1.951 2.725,0.563 3.929,1.311 0.651,0.404 0.153,3.868 2.619,2.62 1.285,1.771 3.494,2.616 5.238,3.93 0,1.746 0,3.491 0,5.237 -0.222,2.841 4.646,0.594 6.548,1.311 1.011,5.813 -4.332,5.271 -6.548,7.856 -4.064,0.136 -3.737,-4.12 -9.167,-2.618 0.975,-4.031 -3.596,-2.519 -2.619,-6.549 -4.104,-0.612 -3.691,3.292 -5.238,5.237 -8.017,0.278 -9.586,7.003 -18.335,6.549 -0.166,-2.35 1.604,-2.763 1.311,-5.238 -4.502,-0.572 -7.34,0.518 -10.478,1.311 0.315,-5.359 5.466,-5.885 10.478,-6.548 0,-1.746 0,-3.492 0,-5.238 4.313,-0.49 2.643,-6.962 7.856,-6.548 -0.627,-4.12 1.865,-5.119 2.619,-7.856 -4.893,-1.399 -3.731,3.252 -7.856,2.618 -1.887,0.537 -0.261,3.788 -1.311,5.238 0.396,-0.548 -3.318,0.808 -5.237,2.62 -2.021,1.91 -0.971,3.183 -5.237,3.929 -2.537,0.443 -1.231,3.186 -2.619,3.93 -1.09,0.585 -4.394,-0.847 -5.238,0 -2.333,2.333 -5.486,3.511 -10.477,1.311 -2.69,0.365 -2.613,3.498 -3.93,5.238 -4.003,-0.946 -4.771,1.339 -7.856,1.31 0.173,3.229 0.197,6.311 -1.311,7.857 -4.937,-1.008 -6.261,1.598 -10.478,1.31 -2.893,2.783 -8.184,3.167 -9.167,7.857 -4.521,-1.03 -5.76,1.224 -6.548,3.929 -7.009,-0.46 -8.192,4.903 -11.786,7.856 -1.796,2.345 -5.768,3.125 -7.856,5.238 -1.031,1.043 -0.375,2.684 -1.311,3.93 -0.457,0.608 -2.239,0.729 -2.619,1.311 -1.277,1.946 -1.501,4.703 -2.62,6.548 -0.665,1.099 -1.928,1.121 -2.619,2.619 -0.218,0.475 0.38,2.311 0,2.619 -0.612,0.502 -5.58,2.795 -3.929,6.548 0.977,2.954 7.347,0.512 10.478,1.311 -1.393,6.467 -2.011,13.706 -3.93,19.645 3.604,3.939 9.087,-1.314 13.097,-1.311 0.355,2.699 5.799,0.313 5.237,3.93 4.002,-0.946 4.771,1.339 7.857,1.311 0.285,4.952 6.681,3.795 5.237,10.478 1.239,2.006 4.793,0.527 6.548,1.31 0.74,0.33 -0.188,2.22 1.311,2.619 2.115,0.564 6.124,0.197 5.239,3.93 1.521,-0.214 2.329,0.288 2.618,1.311 8.439,-1.021 12.896,1.945 20.953,1.31 0.833,3.354 -1.485,4.479 -2.619,6.549 -0.785,1.438 -0.289,2.833 -1.311,3.93 -0.241,0.259 -2.546,1.101 -2.619,1.31 -0.142,0.402 1.371,2.597 1.312,3.93 -0.158,3.403 -4.354,5.698 -2.619,9.167 2.641,2.599 10.089,0.389 9.167,6.549 -4.306,-0.936 -9.855,-0.621 -10.479,-5.238 -2.938,-0.636 -1.736,2.461 -1.31,5.238 0.53,3.431 0.392,9.216 5.238,9.167 -0.643,4.133 2.358,4.625 1.31,9.167 1.521,-0.214 2.33,0.29 2.619,1.31 5.885,-0.663 5.688,-7.406 13.096,-6.548 1.242,-2.687 1.624,-6.233 5.238,-6.548 -2.429,-6.324 0.362,-15.32 2.619,-20.954 -1.144,-5.208 -1.143,-6.578 0,-11.786 3.075,-0.417 4.916,-2.069 9.167,-1.311 5.398,-2.896 9.499,-7.091 15.716,-9.166 1.999,0.136 0.497,-2.843 1.311,-3.931 0.455,-0.609 3.275,-0.812 3.93,-1.31 2.614,-2 4.313,-8.75 6.548,-13.098 3.202,-6.234 -0.032,-13.812 -6.548,-19.644 0.699,-4.976 5.104,-6.245 9.167,-7.857 2.354,-3.755 4.918,-7.304 7.855,-10.477 -4.031,-2.39 2.63,-7.341 -1.31,-9.167 0.57,-1.611 1.676,-2.69 3.929,-2.62 1.126,-1.056 0.778,-3.587 2.619,-3.929 -2.322,-6.406 0.489,-10.461 3.929,-14.405 12.109,-1.762 23.816,9.26 31.432,0 3.435,-0.313 2.58,5.099 5.236,5.238 1.931,0.102 0.173,1.565 0,1.31 0.757,1.134 2.273,1.109 2.619,2.619 0.036,1.273 1.604,1.017 2.619,1.311 -1.017,1.165 -1.408,2.957 -1.31,5.237 3.161,2.95 9.453,2.771 14.403,3.93 -1.313,1.74 -1.236,4.872 -3.929,5.238 -0.534,1.479 0.699,3.841 0,5.238 -0.251,0.502 -2.474,0.918 -2.619,1.31 -0.552,1.494 1.218,0.852 1.312,1.312 0.278,1.397 -2.508,2.328 -2.619,3.929 -0.168,2.404 2.093,3.641 1.31,7.857 0.197,2.422 4.437,0.804 5.239,2.618 -0.979,4.034 4.515,1.597 2.619,6.549 6.214,-2.953 11.826,-6.509 18.334,-9.167 2.261,-2.979 5.417,-5.061 5.237,-10.479 3.711,-1.251 5.87,-3.954 9.167,-6.548 0.643,-0.505 1.118,-1.631 2.618,-1.311 0.392,4.188 -1.119,9.25 1.312,11.786 1.376,1.438 0.604,2.911 1.31,5.237 0.408,1.351 0.688,3.176 1.312,5.238 0.266,0.878 2.38,3.151 0,5.237 4.529,5.928 7.02,17.609 1.31,23.573 0.725,5.823 6.767,6.33 5.238,14.404 4.907,-0.104 10.597,-0.992 9.167,5.238 4.002,0.946 4.771,-1.339 7.855,-1.311 -0.952,3.572 2.604,2.637 2.619,5.237 -1.609,0.572 -2.688,1.677 -2.619,3.93 1.02,1.166 1.408,2.958 1.312,5.237 6.39,-1.587 6.646,2.958 10.477,3.93 -2.417,5.003 -2.844,11.998 -3.929,18.334 -1.255,1.435 -4.458,0.526 -5.238,2.619 -0.505,1.354 -2.465,0.939 -2.619,2.618 0.163,2.895 5.558,0.557 7.857,1.312 0.48,2.228 -1.021,2.471 -2.619,2.618 -3.42,2.256 -2.84,8.511 -7.856,9.167 1.081,3.7 -1.847,3.394 -1.311,6.549 0.212,1.534 2.388,1.104 3.929,1.31 0.32,2.767 -1.971,2.047 -2.618,3.93 -0.361,1.055 1.976,2.563 0,3.93 7.489,1.771 8.349,-3.868 13.097,-1.312 1.271,-0.036 1.017,-1.603 1.31,-2.618 2.696,0.358 1.233,4.878 3.931,5.237 0.058,2.24 -0.975,3.393 -2.619,3.93 0.11,1.857 0.217,3.708 -1.312,3.93 0.315,2.304 2.254,2.983 5.238,2.618 0.347,4.274 -5.081,2.775 -5.238,6.549 1.567,1.896 6.222,1.754 2.619,5.237 0.324,1.646 2.604,1.32 2.619,0 4.045,1.084 -0.571,4.792 -1.311,6.548 -1.291,3.073 -0.496,6.528 -3.93,6.549 -5.184,1.689 -2.674,-4.313 -7.855,-2.619 -0.978,-4.031 3.595,-2.518 2.619,-6.548 -0.337,-3.065 -5.755,-0.754 -6.55,0 -2.896,1.033 -3.275,4.581 -5.236,6.548 -2.185,0 -4.365,0 -6.548,0 -0.048,-4.85 8.141,-1.463 7.855,-6.548 -2.432,-2.554 -5.889,-0.65 -7.855,-2.619 -0.423,-0.421 -5.938,0.071 -9.167,0 0.333,0.007 -0.645,-2.145 -1.312,-1.311 -2.34,2.926 -1.575,-0.125 -5.237,0 -3.222,0.11 -5.716,1.775 -9.168,1.311 -1.352,-7.025 3.606,-7.743 6.55,-10.478 -0.213,-1.535 -2.39,-1.104 -3.931,-1.311 0.96,-1.223 2.381,-1.984 3.931,-2.619 0.634,-0.969 1.917,-1.762 2.618,-2.619 0.854,-1.042 1.798,-1.685 2.618,-2.618 1.447,-1.646 2.13,-5.499 5.238,-5.237 0.142,-6.844 6.362,-7.607 6.548,-14.405 2.315,-1.177 3.823,-3.162 6.548,-3.929 -0.979,-4.035 4.518,-1.597 2.619,-6.549 -1.947,-3.105 -11.636,-0.111 -14.405,1.311 -1.207,0.62 -2.96,1.667 -3.929,2.619 -0.886,0.871 -1.602,1.882 -1.31,3.929 -5.381,0.295 -8.104,3.248 -10.479,6.548 -4.313,-0.099 -10.03,2.321 -17.022,1.312 -2.918,-0.422 -3.209,-1.868 -7.857,-1.312 -0.392,0.048 -2.399,-0.269 -2.62,0 -1.133,1.386 -0.594,0.332 -5.238,0 -0.755,-0.054 -17.107,-1.497 -18.334,0 -0.072,0.092 0.084,1.297 0,1.312 -1.217,0.19 -2.863,-1.235 -2.617,-1.312 -2.428,0.733 -4.725,3.852 -7.857,5.238 -1.892,1.602 -1.986,4.998 -3.929,6.548 -1.772,0.956 -4.79,0.482 -6.548,1.312 -0.598,0.278 -0.824,2.398 -1.312,2.618 -0.695,0.313 -1.965,-0.384 -2.619,0 -5.67,3.314 -9.582,8.888 -14.403,13.097 0.974,4.188 3.899,-1.292 3.929,-1.312 0.479,-0.297 2.278,0.416 2.619,0 0.31,-0.379 0.938,-2.399 1.31,-2.618 1.689,-0.998 3.473,-0.339 5.238,-1.311 0.555,-0.305 0.844,-2.409 1.31,-2.619 1.914,-0.862 3.222,-0.502 5.238,-1.31 1.535,-0.614 5.913,-2.627 9.167,-3.93 4.508,-1.804 11.215,-4.147 19.645,-1.311 -0.214,1.521 0.289,2.33 1.311,2.619 0.342,3.834 -2.961,4.022 -2.619,7.856 -4.113,-0.621 -5.351,1.633 -6.548,3.93 -0.481,2.228 1.021,2.471 2.619,2.618 0.785,2.932 -3.789,1.279 -3.93,3.93 -0.166,3.149 -2.524,2.035 -3.93,5.237 0.036,1.273 1.604,1.018 2.619,1.311 -2.758,2.913 1.381,6.314 0,11.787 4.119,1.5 3.183,-2.057 5.238,-2.619 0.444,-2.628 -0.27,-4.098 -2.619,-3.929 0.463,-1.721 2.306,-2.062 2.619,-3.93 1.461,1.196 0.412,2.436 1.31,6.548 5.303,1.407 9.104,1.407 14.406,0 2.188,3.027 -6.572,4.173 -5.239,5.237 1.028,0.822 1.095,0.855 0,1.312 -2.902,0.721 -1.864,-2.501 -3.929,-2.619 -2.184,0 -4.365,0 -6.548,0 -0.445,2.628 0.269,4.097 2.619,3.929 0.02,2.563 3.002,0.127 2.618,0 1.388,0.462 0.919,2.476 2.618,2.619 2.76,0.233 4.308,-0.411 7.858,-1.311 -0.482,2.229 1.021,2.472 2.619,2.619 1.901,-0.581 -0.134,-1.149 0,-2.619 0,-1.311 0,-2.618 0,-3.93 2.725,-0.768 4.23,-2.752 6.548,-3.929 1.017,-1.166 1.407,-2.958 1.31,-5.237 1.059,-1.127 3.587,-0.778 3.931,-2.62 4.719,2.78 -4.227,11.13 3.929,10.478 -1.508,4.604 -3.911,8.313 -10.479,7.856 -2.304,0.314 -2.983,2.253 -2.617,5.237 -1.225,0.291 -2.729,-0.362 -3.932,0 -1.624,0.491 -2.847,1.583 -3.929,2.619 -1.508,1.445 -5.32,0.928 -7.857,2.619 -1.267,0.845 -2.063,0.843 -3.929,1.31 0.05,-0.012 -3.837,1.198 -3.929,1.312 -1.033,1.263 -2.804,1.476 -5.238,1.31 -2.735,0.196 -2.421,3.495 -3.929,5.238 -0.368,0.426 -2.267,-0.434 -2.619,0 -0.872,1.065 -0.248,3.106 -1.311,3.929 -1.444,1.12 -3.573,0.396 -5.237,1.312 -1.119,0.613 -1.263,3.441 -3.929,2.618 0.479,-2.229 -1.021,-2.472 -2.619,-2.618 0,-2.619 0,-5.239 0,-7.858 2.31,-0.001 2.435,-2.905 3.929,-3.929 0.474,-0.324 2.271,0.427 2.619,0 0.126,-0.153 -0.163,-1.232 0,-1.312 0.476,-0.225 2.307,0.383 2.619,0 1.196,-1.465 5.478,-7.157 10.477,-6.548 1.172,-4.228 -4.271,-1.84 -5.238,-3.929 -3.055,0.438 -5.642,1.342 -6.548,3.929 -6.105,-0.607 -8.413,2.579 -13.096,0 -1.451,5.067 4.629,4.659 1.31,7.857 -8.122,-0.702 -10.809,4.032 -18.334,3.929 -1.771,1.286 -2.615,3.494 -3.929,5.239 -3.085,-0.03 -3.854,2.255 -7.855,1.31 -2.691,1.184 -3.531,4.2 -5.238,6.548 -0.643,0.881 -2.028,1.793 -2.619,2.619 -0.892,1.247 0.029,3.223 -2.619,2.619 0.436,5.236 -2.335,7.27 -1.311,13.096 0.314,2.305 2.254,2.985 5.237,2.619 -0.947,2.979 -7.468,0.391 -6.548,5.238 -1.423,-0.324 -0.889,-2.604 -2.62,-2.619 -2.734,0.56 -5.186,2.227 -7.855,3.93 -0.688,0.438 -0.892,1.04 -1.312,1.311 -2.74,1.757 -5.479,3.176 -7.855,5.237 -6.044,-0.807 -7.536,2.939 -13.096,2.618 -1.402,2.521 -1.423,4.857 -2.619,7.857 -0.158,0.396 -1.045,0.253 -1.312,1.311 -1.104,4.424 -2.059,4.68 -5.237,7.856 -1.092,1.092 -2.082,2.282 -2.618,3.929 -1.332,-0.851 -1.354,-3.011 -3.931,-2.619 -5.26,1.379 0.172,5.321 -1.31,10.479 -0.089,3.84 -2.993,4.862 -5.238,6.548 -0.288,4.95 -4.117,6.358 -5.237,10.478 -1.164,-1.019 -2.957,-1.407 -5.237,-1.311 3.487,4.807 2.053,14.535 3.929,20.953 -3.818,1.418 -4.929,5.548 -10.477,5.237 0,2.619 0,5.237 0,7.856 -4.001,-0.945 -4.772,1.339 -7.857,1.311 -1.166,0.58 -2.342,1.149 -2.619,2.619 -2.575,2.228 -5.586,4.019 -6.548,7.856 -12.387,-1.037 -12.013,10.688 -18.334,15.715 -3.715,1.105 -7.637,2.27 -10.477,5.238 -0.434,0.452 0.438,2.18 0,2.619 -0.395,0.393 -2.297,-0.438 -2.619,0 -0.799,1.08 -0.75,2.839 -1.312,3.93 -0.771,1.506 -2.185,2.192 -2.617,3.93 -0.428,1.701 -0.383,3.727 -1.312,5.237 -0.23,0.379 -2.228,-0.276 -2.619,0 -0.576,0.407 0.342,3.222 -1.31,2.619 0.449,6.408 -0.601,13.79 0,19.644 0.541,5.291 1.118,10.327 3.929,13.098 -3.743,8.066 1.841,16.644 1.312,24.882 -0.058,0.869 -0.722,4.756 -1.312,5.237 -1.813,1.484 -0.097,4.224 -1.31,7.856 -0.213,0.641 -2.396,0.815 -2.619,1.311 -0.813,1.8 -0.096,3.878 -1.312,6.55 -2.183,0 -4.363,-10e-4 -6.548,0 -0.178,-2.779 -0.215,-4.166 -1.31,-6.55 -1.107,-2.408 -3.253,-3.2 -3.931,-5.237 -0.987,-2.979 0.559,-5.809 -1.31,-9.167 -0.036,-1.273 -1.603,-1.017 -2.619,-1.311 0.112,-1.857 0.216,-3.708 -1.31,-3.93 0.107,-2.073 -0.63,-4.995 1.31,-5.237 -0.017,-2.603 -3.573,-1.665 -2.619,-5.237 1.354,-0.005 0.918,-1.644 1.312,-2.619 1.231,-3.082 3.308,-6.679 2.619,-13.097 -0.969,-0.896 -1.767,-1.574 -2.619,-2.618 -0.899,-1.101 0.036,-3.337 -2.619,-2.619 0.063,-3.993 -1.19,-6.668 -3.929,-7.857 -4.952,-1.896 -2.515,3.601 -6.55,2.619 0.223,2.84 -4.645,0.594 -6.548,1.311 -0.006,-5.669 -5.323,-6.025 -7.855,-9.167 -1.193,0.811 -5.675,-1.069 -6.55,0 -0.082,0.102 0.1,1.288 0,1.311 -2.002,0.435 -5.048,-0.876 -5.236,1.311 -2.996,-2.973 -1.997,-1.236 -7.857,-1.311 -1.855,-0.022 -3.71,0.32 -3.929,-1.311 -1.062,0.249 -1.305,1.313 -2.619,1.311 -3.962,-0.161 -1.612,4.729 -2.619,6.548 -0.609,1.104 -3.558,1.248 -3.929,3.93 0.157,3.771 5.585,2.271 5.238,6.548 -5.217,3.127 -3.546,-2.923 -7.857,-3.93 -1.552,-0.521 -0.668,2.3 -1.31,2.619 -0.261,0.129 -6.34,-3.606 -6.548,1.311 -1.166,-1.019 -2.958,-1.407 -5.238,-1.311 2.981,-2.963 -0.889,-5.759 -2.619,-7.856 -2.903,-0.722 -1.865,2.5 -3.929,2.619 -5.302,0.011 -9.427,-3.025 -14.406,-2.619 -4.005,0.327 -6.878,3.106 -10.479,3.93 -1.535,0.211 -1.104,2.388 -1.31,3.929 -6.227,1.634 -8.291,7.425 -15.715,7.857 -2.008,-0.155 -0.487,2.865 -1.312,3.929 -0.332,0.43 -2.272,-0.421 -2.619,0 -0.46,0.563 -0.762,2.163 -1.31,2.619 -1.021,0.852 -3.155,1.587 -3.929,2.619 -1.104,1.469 -0.3,3.647 -1.312,5.237 -0.758,1.191 -2.137,0.819 -2.619,2.619 -1.199,4.476 0.56,10.206 0,15.715 -0.266,2.623 -2.083,5.234 -1.31,7.857 -0.466,0.911 -3.027,2.451 -3.929,3.93 -0.292,0.479 0.414,2.279 0,2.618 -0.153,0.125 -1.232,-0.163 -1.312,0 -0.225,0.478 0.382,2.308 0,2.619 -1.511,1.235 -0.005,3.935 -1.31,5.238 -0.107,0.106 -1.274,-0.125 -1.312,0 -1.359,4.878 -1.32,14.321 -2.618,20.953 -0.548,2.796 -1.546,8.729 -1.311,14.404 0.088,2.124 1.135,2.224 1.311,3.93 0.91,8.888 1.052,17.265 6.549,22.263 -1.1,8.521 3.189,11.651 5.237,17.025 1.746,0 3.492,0 5.238,0 -0.48,2.228 1.021,2.47 2.619,2.618 1.314,1.74 1.238,4.873 3.929,5.237 4.427,0.497 5.587,-2.271 7.857,-3.929 7.468,1.793 7.915,-3.437 14.404,-2.619 2.903,-0.722 1.864,2.5 3.93,2.619 2.587,-0.906 3.492,-3.493 3.929,-6.548 3.771,-0.157 2.272,-5.585 6.548,-5.239 -0.051,-4.853 2.013,-7.592 3.931,-10.478 -1.589,-9.444 3.071,-12.644 6.548,-17.023 12.256,-0.332 16.355,-5.091 28.811,-2.619 1.739,4.898 -3.902,9.054 0,11.786 -0.133,3.359 -4.88,2.104 -6.548,3.93 -2.081,9.828 -2.637,14.533 -5.237,24.883 -1.164,1.018 -2.958,1.406 -5.237,1.311 -0.802,8.364 -1.591,16.743 -2.619,24.882 -3.159,2.518 -5.2,6.15 -7.857,9.167 -1.209,3.592 5.156,-0.392 6.55,1.312 1.646,2.015 2.352,-0.262 6.548,0 3.068,0.188 6.087,1.479 9.167,1.31 2.508,-0.138 4.156,-2.189 6.548,-2.619 2.875,-0.516 3.38,1.37 5.237,1.312 1.156,-0.038 2.016,-1.451 3.93,-1.312 3.123,0.231 4.927,2.194 7.855,1.312 -0.755,6.43 4.179,7.173 7.857,9.166 0.333,2.112 -1.191,2.259 -1.311,3.93 -0.166,2.347 1.631,2.769 1.311,5.238 -0.638,4.911 -4.407,8.851 -5.238,14.404 -0.516,3.446 0.56,6.942 0,10.478 -1.066,6.766 -2.859,13.172 -5.236,18.335 1.362,1.862 1.807,4.314 2.617,6.548 0.167,0.46 -0.35,2.333 0,2.619 0.153,0.125 1.232,-0.163 1.312,0 0.225,0.476 -0.382,2.307 0,2.619 0.157,0.128 1.228,-0.167 1.31,0 0.234,0.477 -0.387,2.303 0,2.618 0.153,0.125 1.232,-0.162 1.312,0 0.225,0.477 -0.382,2.308 0,2.619 1.08,0.885 3.802,1.521 3.929,3.93 0.116,2.195 0.564,2.494 2.619,2.619 -0.029,3.085 2.256,3.854 1.31,7.855 1.859,0.112 3.708,0.218 3.931,-1.31 3.02,-0.4 1.453,3.782 3.929,3.929 2.272,1.014 3.167,-0.958 3.929,-1.31 0.476,-0.22 2.311,0.379 2.619,0 0.141,-0.173 -0.182,-1.209 0,-1.312 3.828,-2.13 8.157,-4.109 11.786,-7.855 4.217,-0.288 5.541,2.314 10.477,1.31 -0.219,3.71 -2.398,5.457 -2.618,9.167 -2.497,-0.558 -2.369,-3.741 -6.549,-2.619 -4.919,1.63 -3.104,9.99 -10.477,9.167 -1.009,6.247 4.664,5.813 3.929,11.786 -4.125,-0.633 -2.965,4.021 -7.855,2.619 1.468,-5.833 -4.022,-4.709 -6.548,-6.548 -0.63,-5.482 -3.894,-8.331 -10.479,-7.857 -1.535,0.213 -1.104,2.39 -1.31,3.931 -2.482,-1.627 0.227,-7.691 -7.857,-5.238 -1.177,-3.834 -1.177,-4.022 0,-7.856 -0.249,-1.062 -1.313,-1.307 -1.31,-2.619 -2.047,-3.191 -7.057,-3.422 -7.857,-7.856 -5.126,0.761 -7.604,-1.127 -10.477,-2.619 -1.013,-6.25 2.048,-8.429 1.31,-14.405 0.313,-2.217 -1.408,-3.588 -2.619,-5.237 -0.929,-1.269 -3.153,-2.666 -3.929,-3.929 -1.014,-1.657 -1.001,-4.872 -2.619,-6.549 -1.279,-1.341 -2.589,-2.649 -3.929,-3.93 0.058,-2.239 -0.974,-3.393 -2.619,-3.93 -0.95,-4.005 2.26,-3.853 1.31,-7.856 -4.217,-0.288 -5.54,2.315 -10.477,1.311 -1.782,-0.166 -2.688,-0.538 -3.929,-1.311 -0.541,-0.336 -2.204,-2.493 -2.619,-2.619 -1.472,-0.444 -3.885,0.696 -5.238,0 -0.942,-0.483 -3.026,-3.315 -3.929,-3.929 -1.246,-0.849 -3.444,-0.989 -3.929,-2.619 -3.156,-0.536 -2.849,2.393 -6.55,1.311 -0.731,-1.133 -1.627,-3.809 -3.929,-3.93 -0.386,-0.021 -2.279,-2.265 -2.619,-2.619 -0.827,-0.861 -0.458,-3.076 -1.31,-3.929 -0.391,-0.39 -2.306,0.435 -2.619,0 -1.098,-1.514 -0.458,-3.487 -1.312,-5.238 -0.313,-0.644 -1.231,0.136 -1.31,-1.31 -0.077,-1.47 -2.281,-4.571 -3.929,-6.549 -0.322,-0.388 -2.457,-0.949 -2.619,-1.311 -0.276,-0.612 0.414,-2.107 0,-2.618 -0.648,-0.801 -3.683,-0.04 -2.619,-2.619 -1.522,0.213 -2.33,-0.289 -2.619,-1.311 -2.619,0 -5.238,0 -7.855,0 -2.447,-0.551 -1.586,3.158 -2.619,3.93 -0.81,0.603 -2.988,-0.402 -3.931,0 -0.072,0.031 -0.784,1.044 -1.31,1.311 -1.555,0.788 -2.186,2.059 -3.929,2.619 -2.273,1.013 -3.167,-0.959 -3.931,-1.312 -0.474,-0.219 -2.31,0.378 -2.618,0 -0.104,-0.126 0.133,-1.264 0,-1.31 -2.037,-0.705 -6.007,-0.281 -7.856,-1.312 -1.505,-0.836 -2.175,-3.761 -3.929,-5.237 -1.658,-1.396 -4.781,-0.386 -5.238,-3.929 -2.183,0 -4.365,0 -6.548,0 -1.307,-1.75 -3.54,-2.572 -3.93,-5.237 -5.225,1.295 -3.943,-3.914 -9.167,-2.619 -0.711,-4.527 -5.563,-4.913 -6.549,-9.167 -4.165,-0.2 -5.761,-2.971 -10.477,-2.619 -1.14,-1.917 -1.96,-4.151 -5.238,-3.93 0.167,-2.351 -1.603,-2.764 -1.31,-5.237 -4.239,-2.311 -6.771,-6.325 -11.786,-7.857 2.026,-4.117 -2.489,-5.38 -2.619,-7.856 -0.19,-3.627 -1.745,-4.235 0,-9.167 0.104,-0.297 1.065,-0.334 1.311,-1.311 0.443,-1.777 0.441,-2.628 1.311,-3.93 0.936,-1.404 1.947,-2.299 2.619,-3.929 1.123,-4.179 -2.063,-4.051 -2.619,-6.549 1.633,-13.419 -5.866,-17.706 -7.858,-27.501 0.31,-2.489 -2.837,-1.527 -3.929,-2.618 -0.41,-0.41 0.442,-2.259 0,-2.619 -0.438,-0.358 -2.33,-0.876 -2.619,-1.311 -1.076,-1.614 0.883,-4.864 -2.619,-3.93 0.777,-4.179 -2.458,-4.051 0,-6.548 -1.378,-3.86 -5.924,-4.553 -9.167,-6.549 0.059,-2.239 -0.973,-3.393 -2.618,-3.93 1.973,-1.956 0.393,-7.467 5.237,-6.549 0.095,-4.459 -3.853,-4.878 -6.548,-6.548 1.148,-3.754 -1.265,-3.207 -2.619,-5.237 -0.438,-0.66 0.012,-1.583 -1.31,-1.311 0.213,-1.521 -0.289,-2.33 -1.312,-2.619 -0.368,-2.114 1.238,-2.255 1.312,-3.929 -0.979,-0.81 -1.749,-1.688 -2.619,-2.619 -0.355,-0.38 -2.503,-2.378 -2.619,-2.619 -0.322,-0.671 0.4,-2.001 0,-2.619 -1.276,-1.972 -4.687,-3.495 -3.929,-6.548 -2.185,0 -4.366,0 -6.548,0 1.344,-0.647 0.517,-2.653 1.31,-3.929 0.729,-1.171 2.294,-1.081 2.619,-2.619 -0.217,-8.446 -4.317,-19.661 0,-24.882 -3.757,-3.229 -6.972,-6.997 -14.406,-6.549 -1.352,0.006 -0.918,1.643 -1.31,2.619 -0.93,2.322 -3.69,17.611 -1.312,20.953 -0.395,1.577 2.144,0.635 2.619,1.311 1.041,1.472 0.042,5.165 5.238,3.929 1.619,4.237 -4.237,1.001 -2.619,5.238 -1.461,2.663 2.3,1.9 2.619,2.618 0.633,1.424 -0.374,3.714 0,5.238 0.424,1.729 2.335,2.053 2.619,3.93 -2.913,5.91 3.006,9.78 2.618,17.022 0.961,1.225 2.382,1.984 3.93,2.619 0.954,2.977 -2.359,10.217 2.619,9.167 -0.684,1.938 -1.938,3.302 -2.619,5.238 3.712,3.018 0.022,6.65 5.238,9.168 -1.265,3.124 -4.322,8.389 -1.312,11.786 4.476,-0.536 1.664,-3.537 6.548,-1.312 0.167,8.286 3.994,17.247 -5.237,18.334 0,-2.618 0,-5.237 0,-7.855 -2.542,-3.569 -7.281,-4.941 -7.856,-10.479 -3.374,-1.428 -6.294,-3.31 -7.857,-6.548 1.992,-5.429 3.313,-11.527 2.618,-19.646 0.132,-1.996 -2.835,-0.5 -3.929,-1.311 -0.479,-0.354 -1,-3.372 -1.311,-3.929 -0.314,-0.566 -1.781,-1.178 -1.311,-2.619 -3.155,0.536 -2.846,-2.393 -6.548,-1.311 -1.136,-0.87 -0.766,-3.831 -2.619,-3.929 -1.768,-0.094 -1.123,-2.721 -2.619,-5.238 -0.671,-1.13 -3.398,-1.253 -2.619,-3.93 2.351,-0.166 2.764,1.604 5.238,1.311 0.702,-0.979 1.829,-1.748 2.619,-2.618 1.291,-1.419 0.792,-2.854 1.31,-5.238 0.231,-1.063 1.328,-1.303 1.312,-2.619 -0.063,-4.593 -5.246,-7.223 -5.238,-11.785 -1.286,-1.771 -3.494,-2.617 -5.238,-3.93 -1.318,-2.19 1.854,-8.96 0,-10.478 -1.707,-1.396 0.27,-0.563 0,-2.618 -0.239,-1.853 -0.717,-4.512 -1.31,-6.548 -0.562,-1.931 -0.984,-3.924 -2.619,-5.238 0.462,-1.721 2.307,-2.062 2.619,-3.93 -4.208,-3.386 -1.004,-15.796 -3.929,-23.572 -1.692,-2.673 -6.351,-2.382 -5.238,-7.856 -4.523,1.029 -5.761,-1.225 -6.548,-3.93 -3.479,-0.014 -7.479,0.495 -9.167,-1.311 1.905,-12.445 -1.608,-15.026 -3.93,-26.19 -1.124,-2.785 1.859,-1.744 2.618,-2.619 0.662,-0.765 -0.41,-2.938 1.312,-2.618 0.399,-3.021 -3.783,-1.455 -3.93,-3.93 -0.796,-2.75 1.217,-3.451 1.311,-5.238 -0.007,0.141 -2.428,-2.811 -1.311,-3.929 1.104,-1.104 0.277,-1.291 0,-3.929 -0.131,-1.236 0.296,-2.728 0,-3.93 -0.842,-3.414 -3.417,-5.144 -2.618,-11.787 0.267,-2.22 1.237,-3.178 2.618,-5.237 1.027,-5.394 -2.011,-6.721 -1.311,-11.786 2.522,-0.532 1.035,-5.077 5.238,-3.929 -0.103,-3.492 0.934,-5.215 2.618,-7.857 0.118,-0.185 1.396,-1.586 1.311,-1.31 1.234,-3.96 0.205,-8.08 1.311,-11.786 0.118,-0.399 1.243,-0.061 1.311,-1.311 0.121,-2.3 3.076,-4.68 2.62,-9.167 4.236,1.617 1,-4.237 5.237,-2.619 0.556,-3.616 1.726,-6.475 3.93,-9.167 1.714,-2.096 3.186,-5.66 5.237,-9.167 0.737,-1.262 1.936,-1.639 2.618,-2.618 0.329,-0.473 -0.428,-2.271 0,-2.619 0.188,-0.153 1.188,0.194 1.312,0 0.909,-1.448 0.324,-6.33 3.929,-5.238 0.208,-2.452 -0.188,-5.857 1.312,-7.856 0.354,-0.475 2.401,-0.87 2.618,-1.311 0.691,-1.402 -0.698,-3.84 0,-5.237 0.138,-0.273 2.604,-1.21 2.618,-1.311 0.142,-0.936 -3.835,-4.636 1.312,-3.929 -0.563,-7.547 1.486,-12.482 2.619,-18.335 2.526,0.59 4.826,1.407 7.855,2.619 0.877,0.352 1.417,0.059 1.312,1.311 0.948,-2.979 9.063,1.206 7.856,-3.93 -1.571,-3.53 -5.537,0.089 -7.856,0 -2.702,-0.104 -3.825,-1.933 -6.549,-1.311 -1.713,-0.554 -2.032,-5.692 -3.93,-6.548 -0.474,-0.214 -2.311,0.376 -2.619,0 -1.07,-1.306 0.458,-7.097 -3.929,-5.237 -1.38,-5.345 1.287,-8.895 -5.238,-10.478 3.161,-2.604 -2.179,-6.234 1.312,-9.167 5.43,-1.501 5.103,2.755 9.167,2.62 -0.517,-4.725 -1.695,-8.782 -2.619,-13.097 2.228,0.48 2.471,-1.021 2.619,-2.619 0.249,-1.062 1.313,-1.306 1.31,-2.618 1.125,-2.785 -1.858,-1.744 -2.619,-2.619 -0.662,-0.765 0.411,-2.938 -1.31,-2.619 -0.536,-3.154 2.392,-2.847 1.31,-6.548 0.351,-2.785 -2.009,-2.021 -2.618,-3.93 -0.719,-2.242 0.517,-4.416 0,-7.857 3.508,-2.259 4.979,0.924 7.856,-2.619 -0.841,-1.116 -0.271,-4.389 -1.31,-5.237 -1.95,-1.597 1.354,-1.336 0,-3.93 -1.067,-2.041 -4.541,0.036 -3.931,-3.929 -4.104,-0.613 -3.689,3.293 -5.236,5.237 -3.834,-1.177 -4.023,-1.177 -7.857,0 2.003,-4.165 0.459,-5.761 0,-10.478 2.628,0.446 4.097,-0.268 3.929,-2.618 0.917,-2.761 -1.589,-1.775 -2.618,-2.619 -1.012,-0.827 -1.203,-2.22 -2.618,-2.619 -1.318,-2.521 1.223,-3.999 1.31,-6.548 0.076,-2.247 -1.624,-4.66 -1.31,-6.549 0.096,-0.578 2.279,-1.396 2.618,-2.619 0.767,-2.77 -1.175,-5.884 1.311,-7.856 0.564,-0.449 1.656,0.018 1.31,-1.312 0.613,-4.104 -3.293,-3.69 -5.236,-5.237 2.741,-9.729 -7.239,-6.729 -6.549,-14.404 -2.184,0 -4.364,0 -6.549,0 -0.313,-3.616 -4.87,-2.988 -6.548,-5.238 -4.812,0.427 -11.594,-1.117 -14.405,1.311 -2.993,1.423 -2.598,-3.007 -3.929,-3.93 -0.862,-0.597 -2.952,0.418 -3.929,0 -1.155,-0.494 -1.057,-4.124 -5.238,-2.618 0,-1.746 0,-3.492 0,-5.238 -5.758,0.354 -12.495,-0.272 -11.786,6.548 0.405,1.776 3.279,1.086 5.238,1.31 2.389,1.019 -0.785,1.408 -2.619,1.312 -4.223,1.015 -7.739,2.737 -10.477,5.237 -1.374,-0.564 -0.951,-2.289 -2.619,-2.619 -2.679,-0.529 -6.038,0.256 -9.167,1.311 -1.607,0.542 -2.321,1.869 -3.929,2.619 -1.895,0.883 -3.233,0.497 -5.238,1.31 -0.563,0.229 0.066,1.237 -1.312,1.312 -0.348,0.018 -0.987,-0.128 -1.31,0 -1.302,0.521 -2.097,0.852 -3.929,1.31 -1.009,0.252 -1.032,1.238 -1.312,1.312 -2.159,0.557 -4.8,-1.302 -6.548,1.31 -3.868,-1.889 1.56,-5.272 5.238,-3.929 0.118,-3.573 -2.184,-2.637 0,-5.238 2.778,-2.021 5.836,-3.768 9.167,-5.237 2.941,-3.169 5.999,-6.225 9.167,-9.167 -2.351,-0.166 -2.764,1.604 -5.238,1.311 -2.44,-0.569 -1.594,3.185 -2.619,3.929 -1.174,0.854 -1.13,-1.273 -1.31,-1.31 -1.62,-0.324 -0.668,1.083 -1.312,1.31 -2.315,0.818 -3.84,2.361 -6.548,3.93 -0.623,0.359 -5.157,1.069 -5.238,2.618 -0.146,2.761 -8.322,1.674 -9.167,6.549 -5.338,-0.974 -4.509,4.222 -10.477,2.618 -1.082,3.701 1.846,3.395 1.31,6.549 -5.817,3.349 -14.156,4.177 -17.022,10.478 -1.651,0.344 -3.616,-0.449 -5.238,0 -1.339,0.371 -1.854,2.363 -2.619,2.619 -2.903,0.975 -5.248,-0.379 -7.856,1.31 -0.728,0.471 0.204,1.229 -1.312,1.312 -1.677,0.088 -1.652,2.184 -2.619,2.618 -0.672,0.304 -2.011,-0.399 -2.618,0 -1.142,0.75 -1.104,2.275 -2.618,2.618 -1.166,0.58 -2.344,1.15 -2.619,2.619 -1.746,0 -3.492,0 -5.238,0 -1.894,2.035 -4.35,3.508 -5.238,6.549 -3.072,-3.095 -6.434,0.214 -10.477,0 -1.223,0.961 -1.984,2.382 -2.619,3.93 -2.271,1.063 -3.121,-0.063 -6.548,1.31 -0.975,0.392 -0.866,2.47 -1.311,2.619 -0.69,0.234 -1.58,-1.37 -2.618,-1.31 -1.339,0.078 -2.61,2.02 -3.931,2.618 0.646,-0.293 -0.849,-1.887 -1.31,-1.311 -2.175,2.719 -0.377,1.817 -3.929,1.311 0.445,0.063 -0.703,2.066 -1.312,1.311 -1.474,-1.843 -0.485,0.419 -3.929,-1.311 -2.508,6.438 4.353,3.506 3.929,7.856 -2.521,2.543 -5.27,-1.377 -9.167,-1.31 C 0,316.483 0,313.427 0,310.372 z M 733.367,138.816 c -1.746,0 -3.492,0 -5.236,0 0,1.31 0,2.619 0,3.929 3.421,0.365 6.552,0.442 5.236,-3.929 z m 89.054,282.87 c 1.051,-7.926 -6.005,-0.873 0,0 l 0,0 z M 709.797,108.695 c 0,2.183 0,4.366 0,6.548 2.183,0 4.363,0 6.548,0 0,-2.183 0,-4.365 0,-6.548 1.992,-2.808 9.052,-0.551 7.855,-6.548 -5.711,1.274 -9.429,4.54 -14.403,6.548 z m 39.285,5.239 c 4.875,-1.979 15.116,3.436 15.718,-5.239 -3.037,-0.417 -5.028,0.21 -6.55,1.31 0.317,-1.721 -1.854,-0.646 -2.618,-1.31 -0.875,-0.759 0.166,-3.743 -2.619,-2.619 -0.526,3.405 -3.909,3.95 -3.931,7.858 z m 17.025,-3.929 c 3.332,0.677 5.078,2.231 5.238,-2.618 -2.985,-0.367 -4.92,0.314 -5.238,2.618 z m -58.93,10.477 c 0.515,1.929 1.511,0.201 2.619,1.31 0.443,0.445 -0.419,2.145 0,2.619 0.569,0.649 3.21,-0.52 3.929,0 0.469,-4.834 -3.258,-5.473 -6.548,-6.548 0.167,0.828 -0.218,1.804 0,2.619 z m -20.954,9.167 c 1.746,0 3.492,0 5.238,0 0,-0.873 0,-1.746 0,-2.619 -1.746,0 -3.492,0 -5.238,0 0,0.873 0,1.746 0,2.619 z m 24.881,14.405 c 1.31,0 2.619,0 3.929,0 0,-0.873 0,-1.746 0,-2.619 -1.31,0 -2.619,0 -3.929,0 0,0.873 0,1.746 0,2.619 z M 542.17,158.459 c 2.058,-0.125 4.541,0.178 3.929,-2.619 -0.873,0 -1.746,0 -2.619,0 0.002,1.314 -1.061,1.559 -1.31,2.619 z m 62.858,2.62 c 1.312,0 2.619,0 3.929,0 0,-1.31 0,-2.62 0,-3.929 -1.31,0 -2.617,0 -3.929,0 0,1.309 0,2.62 0,3.929 z m -75.956,1.31 c 1.312,0 2.619,0 3.931,0 0,-1.312 0,-2.619 0,-3.931 -1.312,0 -2.619,0 -3.931,0 0,1.312 0,2.621 0,3.931 z m 117.863,32.739 c -0.333,-4.469 -2.802,-6.802 -7.857,-6.548 -0.513,5.314 2.031,7.571 7.857,6.548 z m -506.81,52.383 c 2.703,-2.969 8.395,3.458 9.167,-2.619 -1.556,-2.727 -9.578,-0.951 -9.167,2.619 z m 95.6,30.121 c 0,0.873 0,1.746 0,2.619 3.223,2.036 3.851,-4.446 1.31,-3.929 -0.075,0.799 -0.196,1.551 -1.31,1.31 z m -3.929,5.238 c 0,-1.31 0,-2.619 0,-3.929 -1.31,0 -2.617,0 -3.929,0 -0.237,2.857 1.072,4.167 3.929,3.929 z m 3.929,10.477 c -0.521,0.824 -3.929,-0.128 -2.619,2.617 1.803,-0.057 2.875,0.617 3.929,1.312 -1.216,-5.146 4.554,-3.304 2.619,-9.167 -4.654,-1.402 -2.899,3.601 -3.929,5.238 z m -7.857,5.24 c 3.521,0.9 2.531,-2.71 3.929,-3.931 -1.31,0 -2.617,0 -3.929,0 0,1.31 0,2.62 0,3.931 z m -6.548,5.237 c 1.31,0 2.619,0 3.929,0 -0.125,-2.058 0.175,-4.541 -2.619,-3.929 0.056,1.803 -0.617,2.876 -1.31,3.929 z m 22.263,91.671 c 5.589,0.086 7.541,3.812 6.548,10.479 3.342,-0.151 6.738,-0.247 6.55,-3.929 0.037,-1.74 -2.366,-1.187 -2.619,-2.619 0.008,0.047 2.584,-2.275 1.31,-3.931 -4.946,-0.729 -9.493,-1.855 -7.855,-9.167 -1.312,0 -2.62,0 -3.931,0 -0.003,3.057 -0.003,6.111 -0.003,9.167 z m 492.403,20.953 c -0.159,-3.332 -1.906,-5.078 -5.238,-5.236 -0.607,4.098 1.139,5.844 5.238,5.236 z m -91.671,90.361 c 1.746,0 3.492,0 5.238,0 0,-0.873 0,-1.746 0,-2.619 -1.313,0.005 -1.561,-1.061 -2.619,-1.31 -0.313,1.872 -2.156,2.211 -2.619,3.929 z m -39.287,47.146 c 5.06,-0.181 5.364,-5.11 5.238,-10.477 -1.312,0 -2.619,0 -3.929,0 -1.017,4.655 -0.174,4.76 -1.309,10.477 z M 454.427,654.792 c 4.466,0.985 5.106,-5.003 1.31,-5.236 -0.414,1.769 -1.866,2.499 -1.31,5.236 z m -1.311,153.222 c 0,0.873 0,1.746 0,2.619 3.225,2.036 3.853,-4.448 1.312,-3.931 -0.076,0.803 -0.198,1.554 -1.312,1.312 z"
  id="path3555" /><path
  d="m 644.315,111.315 c 0.3,2.49 -2.827,1.525 -3.929,2.619 -0.678,0.672 -0.62,3.395 -1.312,3.929 -0.461,0.357 -2.262,-0.437 -2.619,0 -0.125,0.153 0.163,1.232 0,1.31 -0.476,0.227 -2.307,-0.382 -2.617,0 -0.428,0.521 -2.281,2.777 -3.931,3.931 -2.349,0.166 -2.763,-1.604 -5.236,-1.312 -2.101,2.268 -3.966,4.768 -9.167,3.931 -1.307,-5.682 -2.278,-11.69 -10.479,-10.479 -0.688,-4.944 -1.84,-6.146 1.312,-9.167 5.065,-1.138 4.656,3.199 7.855,3.929 4.031,0.977 2.519,-3.595 6.548,-2.618 -0.245,-1.501 -0.437,-3.058 -1.31,-3.931 -0.057,-0.055 -1.313,0.031 -1.312,0 0.423,-4.41 11.325,-8.087 15.717,-5.236 4.052,-1.358 11.012,-4.732 15.715,-1.312 0.501,4.866 -5.309,3.424 -3.931,9.167 -1.061,0.249 -1.305,1.314 -2.617,1.312 -0.108,1.857 -0.212,3.706 1.313,3.927 z m -1.307,-7.858 c -0.873,0 -1.746,0 -2.619,0 -0.071,1.674 -1.68,1.814 -1.312,3.931 1.312,0 2.619,0 3.931,0 0,-1.312 0,-2.621 0,-3.931 z"
  id="path3557" /><path
  d="m 746.465,145.364 c -2.771,-0.964 -1.762,1.652 -2.619,2.619 -1.324,1.492 -4.394,2.868 -6.548,5.238 -1.819,-0.457 -0.866,-3.045 0,-3.931 1.047,-1.065 2.648,-0.371 3.929,-1.31 0.409,-0.3 -0.415,-2.333 0,-2.619 0.932,-0.643 2.803,0.396 2.619,-1.31 2.517,-0.551 4.725,0.901 2.619,1.313 z"
  id="path3559" />
</svg>